<?xml version="1.0" encoding="UTF-8" standalone="no"?>
<svg width="1121px" height="1120px" viewBox="0 0 1121 1120" version="1.1" xmlns="http://www.w3.org/2000/svg" xmlns:xlink="http://www.w3.org/1999/xlink" xmlns:sketch="http://www.bohemiancoding.com/sketch/ns">
    <!-- Generator: Sketch 3.3.3 (12072) - http://www.bohemiancoding.com/sketch -->
    <title>eurucamp-2015</title>
    <desc>Created with Sketch.</desc>
    <defs></defs>
    <g id="Page-1" stroke="none" stroke-width="1" fill="none" fill-rule="evenodd" sketch:type="MSPage">
        <rect id="path-1" fill="#913BBE" sketch:type="MSShapeGroup" x="0.989399" y="0" width="1120" height="1120"></rect>
        <g id="flag-link" sketch:type="MSLayerGroup" transform="translate(279.699652, 46.796168) rotate(-5.000000) translate(-279.699652, -46.796168) translate(272.199652, 41.796168)">
            <g id="flag" transform="translate(0.139708, 0.139832)" sketch:type="MSShapeGroup">
                <path d="M13.1486204,7.18541695 L0.019917909,8.49312759 C0.019917909,8.49312759 0.836375341,6.20715094 0.836375341,4.24838161 C0.836375341,2.28961229 0.019917909,0.248901299 0.019917909,0.248901299 L13.1486204,1.55605262 L9.55754898,4.28921261 L13.1486204,7.18541695 L13.1486204,7.18541695 Z" id="flag-background" fill="#4FB79B"></path>
                <path d="M1.60840542,0.407471003 L9.2353808,7.57498943 L13.1486204,7.18513728 L9.55754898,4.28921261 L13.1486204,1.55605262 L1.60840542,0.407471003 L1.60840542,0.407471003 Z" id="flag-highlight" fill="#7DC5B1"></path>
                <path d="M4.52803708,3.74330774 C4.62862731,3.31933654 4.97175179,3.07714719 5.37467158,3.07714719 C5.7781502,3.07714719 6.11121566,3.31933654 6.22214434,3.74330774 L4.52803708,3.74330774 L4.52803708,3.74330774 Z M5.36489198,1.92688759 C3.88314188,1.92688759 2.81409119,2.96640009 2.81409119,4.41925655 C2.81409119,5.88274026 3.81216988,6.84142976 5.4151871,6.84142976 C6.33307302,6.84142976 7.24034107,6.49828156 7.68433522,5.76164558 L6.5247533,4.9646021 C6.23220336,5.39836155 5.8893583,5.56979582 5.46576163,5.56979582 C4.99214925,5.56979582 4.55849356,5.28733479 4.50819845,4.77247267 L7.81510253,4.76240475 C7.83549999,4.62089457 7.83549999,4.49001164 7.83549999,4.35912871 C7.83549999,2.9160605 6.92795251,1.92688759 5.36489198,1.92688759 L5.36489198,1.92688759 L5.36489198,1.92688759 Z" id="flag-e" fill="#FFFFFF"></path>
            </g>
        </g>
        <g id="flag-link-copy-3" sketch:type="MSLayerGroup" transform="translate(809.294719, 566.306816) rotate(-5.000000) translate(-809.294719, -566.306816) translate(795.794719, 557.306816)">
            <g id="flag" transform="translate(0.268527, 0.268764)" sketch:type="MSShapeGroup">
                <path d="M25.2722858,13.8107196 L0.0382831864,16.3242028 C0.0382831864,16.3242028 1.60755394,11.9304449 1.60755394,8.16559536 C1.60755394,4.40074578 0.0382831864,0.47840036 0.0382831864,0.47840036 L25.2722858,2.99080854 L18.3700724,8.24407452 L25.2722858,13.8107196 L25.2722858,13.8107196 Z" id="flag-background" fill="#4FB79B"></path>
                <path d="M3.09143317,0.783179016 L17.7508495,14.5594968 L25.2722858,13.8101821 L18.3700724,8.24407452 L25.2722858,2.99080854 L3.09143317,0.783179016 L3.09143317,0.783179016 Z" id="flag-highlight" fill="#7DC5B1"></path>
                <path d="M8.70310671,7.1948189 C8.89644602,6.3799257 9.5559479,5.91442602 10.3303793,5.91442602 C11.1058847,5.91442602 11.7460527,6.3799257 11.9592629,7.1948189 L8.70310671,7.1948189 L8.70310671,7.1948189 Z M10.3115824,3.70357133 C7.4635869,3.70357133 5.40881965,5.70156474 5.40881965,8.49402527 C5.40881965,11.3069119 7.32717527,13.1495596 10.408252,13.1495596 C12.1724732,13.1495596 13.9162865,12.4900121 14.7696647,11.074162 L12.5408921,9.54220583 C11.9785969,10.3759125 11.3196321,10.7054175 10.5054588,10.7054175 C9.59515281,10.7054175 8.76164556,10.1625137 8.6649759,9.17292376 L15.0210058,9.15357273 C15.0602108,8.88158331 15.0602108,8.63001998 15.0602108,8.37845664 C15.0602108,5.60480961 13.3158605,3.70357133 10.3115824,3.70357133 L10.3115824,3.70357133 L10.3115824,3.70357133 Z" id="flag-e" fill="#FFFFFF"></path>
            </g>
        </g>
        <g id="flag-link-copy-4" sketch:type="MSLayerGroup" transform="translate(619.539614, 659.632104) rotate(-5.000000) translate(-619.539614, -659.632104) translate(598.539614, 645.632104)">
            <g id="flag" transform="translate(0.429472, 0.429852)" sketch:type="MSShapeGroup">
                <path d="M40.4196167,22.0883855 L0.0612287993,26.1083634 C0.0612287993,26.1083634 2.57106597,19.0811395 2.57106597,13.0597698 C2.57106597,7.03840004 0.0612287993,0.765136929 0.0612287993,0.765136929 L40.4196167,4.78339536 L29.380456,13.1852866 L40.4196167,22.0883855 L40.4196167,22.0883855 Z" id="flag-background" fill="#4FB79B"></path>
                <path d="M4.94433088,1.25258933 L28.3900924,23.2859538 L40.4196167,22.0875258 L29.380456,13.1852866 L40.4196167,4.78339536 L4.94433088,1.25258933 L4.94433088,1.25258933 Z" id="flag-highlight" fill="#7DC5B1"></path>
                <path d="M13.9194468,11.5071436 C14.2286669,10.2038317 15.2834514,9.45932767 16.5220499,9.45932767 C17.7623665,9.45932767 18.7862289,10.2038317 19.12723,11.5071436 L13.9194468,11.5071436 L13.9194468,11.5071436 Z M16.4919869,5.92336342 C11.9370018,5.92336342 8.65067838,9.11888473 8.65067838,13.5850492 C8.65067838,18.0838824 11.7188298,21.0309491 16.646597,21.0309491 C19.4682312,21.0309491 22.2572255,19.9760918 23.622089,17.7116303 L20.0574674,15.2614728 C19.1581521,16.5948743 18.1042266,17.1218731 16.8020661,17.1218731 C15.3461543,17.1218731 14.0130717,16.2535717 13.8584616,14.6708558 L24.0240753,14.6399065 C24.0867782,14.204896 24.0867782,13.8025544 24.0867782,13.4002127 C24.0867782,8.96413793 21.296925,5.92336342 16.4919869,5.92336342 L16.4919869,5.92336342 L16.4919869,5.92336342 Z" id="flag-e" fill="#FFFFFF"></path>
            </g>
        </g>
        <g id="flag-link" sketch:type="MSLayerGroup" transform="translate(112.381788, 622.160301) rotate(-5.000000) translate(-112.381788, -622.160301) translate(93.381788, 609.660301)">
            <g id="flag" transform="translate(0.346619, 0.468110)" sketch:type="MSShapeGroup">
                <path d="M36.9518457,19.7202219 L0.92040463,23.3092056 C0.92040463,23.3092056 3.16115442,17.0353919 3.16115442,11.6595917 C3.16115442,6.28379157 0.92040463,0.683104249 0.92040463,0.683104249 L36.9518457,4.27055285 L27.0962275,11.7716515 L36.9518457,19.7202219 L36.9518457,19.7202219 Z" id="flag-background" fill="#4FB79B"></path>
                <path d="M5.27997432,1.11829539 L26.2120438,20.7893952 L36.9518457,19.7194544 L27.0962275,11.7716515 L36.9518457,4.27055285 L5.27997432,1.11829539 L5.27997432,1.11829539 Z" id="flag-highlight" fill="#7DC5B1"></path>
                <path d="M13.2928405,10.2734274 C13.5689082,9.10984757 14.510606,8.44516413 15.6164106,8.44516413 C16.723749,8.44516413 17.63784,9.10984757 17.9422813,10.2734274 L13.2928405,10.2734274 L13.2928405,10.2734274 Z M15.5895707,5.28830143 C11.5229395,5.28830143 8.5889529,8.14122111 8.5889529,12.1285543 C8.5889529,16.1450538 11.3281584,18.7761565 15.7276046,18.7761565 C18.2467227,18.7761565 20.7367003,17.8343937 21.9552327,15.8127121 L18.7727851,13.6252434 C17.9698881,14.8156869 17.0289572,15.2861845 15.8664053,15.2861845 C14.5665863,15.2861845 13.3764277,14.5109763 13.2383938,13.0979483 L22.3141207,13.0703172 C22.3701011,12.6819455 22.3701011,12.3227401 22.3701011,11.9635348 C22.3701011,8.00306517 19.8793566,5.28830143 15.5895707,5.28830143 L15.5895707,5.28830143 L15.5895707,5.28830143 Z" id="flag-e" fill="#FFFFFF"></path>
            </g>
        </g>
        <g id="flag-link" sketch:type="MSLayerGroup" transform="translate(213.641885, 552.206568) rotate(-5.000000) translate(-213.641885, -552.206568) translate(203.141885, 545.706568)">
            <g id="flag" transform="translate(0.192199, 0.192369)" sketch:type="MSShapeGroup">
                <path d="M19.0074026,9.88505609 L0.94610389,11.6840878 C0.94610389,11.6840878 2.06931324,8.53924493 2.06931324,5.8445447 C2.06931324,3.14984448 0.94610389,0.342416219 0.94610389,0.342416219 L19.0074026,2.14067848 L14.0671265,5.90071635 L19.0074026,9.88505609 L19.0074026,9.88505609 Z" id="flag-background" fill="#4FB79B"></path>
                <path d="M3.1314034,0.560562282 L13.6239162,10.4209952 L19.0074026,9.88467135 L14.0671265,5.90071635 L19.0074026,2.14067848 L3.1314034,0.560562282 L3.1314034,0.560562282 Z" id="flag-highlight" fill="#7DC5B1"></path>
                <path d="M7.14797235,5.14970909 C7.2863554,4.56644731 7.75839553,4.23326479 8.31269664,4.23326479 C8.86776656,4.23326479 9.32596833,4.56644731 9.4785741,5.14970909 L7.14797235,5.14970909 L7.14797235,5.14970909 Z M8.29924273,2.65084017 C6.26078304,2.65084017 4.79007839,4.08090881 4.79007839,6.07961921 C4.79007839,8.09294963 6.16314609,9.41182918 8.36843425,9.41182918 C9.63117987,9.41182918 10.8793184,8.93975648 11.4901259,7.92635837 L9.89487651,6.82985699 C9.49241246,7.42658458 9.02075679,7.66242856 8.43801024,7.66242856 C7.78645652,7.66242856 7.18987171,7.27384387 7.12068018,6.56554245 L11.670024,6.55169191 C11.698085,6.35701482 11.698085,6.17695775 11.698085,5.99690068 C11.698085,4.01165609 10.4495621,2.65084017 8.29924273,2.65084017 L8.29924273,2.65084017 L8.29924273,2.65084017 Z" id="flag-e" fill="#FFFFFF"></path>
            </g>
        </g>
        <g id="flag-link" sketch:type="MSLayerGroup" transform="translate(794.797199, 646.815531) rotate(-5.000000) translate(-794.797199, -646.815531) translate(745.297199, 615.315531)">
            <g id="flag" transform="translate(0.030232, 0.030259)" sketch:type="MSShapeGroup">
                <path d="M97.1021356,51.9408661 L0.372204758,61.5758441 C0.372204758,61.5758441 6.38771699,44.7331772 6.38771699,30.3013154 C6.38771699,15.8694536 0.372204758,0.833860227 0.372204758,0.833860227 L97.1021356,10.4647172 L70.6437635,30.6021509 L97.1021356,51.9408661 L97.1021356,51.9408661 Z" id="flag-background" fill="#4FB79B"></path>
                <path d="M12.0758964,2.00217343 L68.270086,54.8111664 L97.1021356,51.9388056 L70.6437635,30.6021509 L97.1021356,10.4647172 L12.0758964,2.00217343 L12.0758964,2.00217343 Z" id="flag-highlight" fill="#7DC5B1"></path>
                <path d="M33.58722,26.5800215 C34.3283508,23.4562776 36.8564306,21.6718697 39.8250714,21.6718697 C42.7978297,21.6718697 45.2517964,23.4562776 46.069099,26.5800215 L33.58722,26.5800215 L33.58722,26.5800215 Z M39.753017,13.1969629 C28.8357476,13.1969629 20.9591734,20.855905 20.9591734,31.5602914 C20.9591734,42.3429774 28.3128386,49.40643 40.1235825,49.40643 C46.8864017,49.40643 53.5709905,46.8781755 56.8422597,41.4507735 L48.2986677,35.5782997 C46.1432121,38.7741618 43.617191,40.0372587 40.4962066,40.0372587 C37.0067155,40.0372587 33.811618,37.9561365 33.4410525,34.1627245 L57.8057299,34.0885458 C57.9560147,33.0459242 57.9560147,32.0816022 57.9560147,31.1172802 C57.9560147,20.4850119 51.2693673,13.1969629 39.753017,13.1969629 L39.753017,13.1969629 L39.753017,13.1969629 Z" id="flag-e" fill="#FFFFFF"></path>
            </g>
        </g>
        <g id="flag-link-copy-2" sketch:type="MSLayerGroup" transform="translate(943.781584, 665.728724) rotate(-5.000000) translate(-943.781584, -665.728724) translate(923.281584, 652.728724)">
            <g id="flag" transform="translate(0.012163, 0.012174)" sketch:type="MSShapeGroup">
                <path d="M39.0687569,20.8982538 L0.149755483,24.7748586 C0.149755483,24.7748586 2.57007902,17.9982615 2.57007902,12.1916446 C2.57007902,6.38502768 0.149755483,0.335501195 0.149755483,0.335501195 L39.0687569,4.21044799 L28.4233092,12.3126849 L39.0687569,20.8982538 L39.0687569,20.8982538 Z" id="flag-background" fill="#4FB79B"></path>
                <path d="M4.8587012,0.805568553 L27.4682671,22.0531106 L39.0687569,20.8974247 L28.4233092,12.3126849 L39.0687569,4.21044799 L4.8587012,0.805568553 L4.8587012,0.805568553 Z" id="flag-highlight" fill="#7DC5B1"></path>
                <path d="M13.5137185,10.694393 C13.8119104,9.43756386 14.8290757,8.71961266 16.0234996,8.71961266 C17.2195801,8.71961266 18.2069263,9.43756386 18.5357657,10.694393 L13.5137185,10.694393 L13.5137185,10.694393 Z M15.9945088,5.30975896 C11.6019777,5.30975896 8.43286139,8.39131165 8.43286139,12.6981898 C8.43286139,17.0365716 11.3915869,19.8785309 16.1436047,19.8785309 C18.864605,19.8785309 21.5541294,18.8612952 22.870315,16.677596 L19.432826,14.3148236 C18.5655848,15.6006692 17.5492477,16.1088726 16.2935289,16.1088726 C14.8895425,16.1088726 13.6040044,15.2715392 13.4549085,13.7452711 L23.2579643,13.7154255 C23.3184311,13.2959298 23.3184311,12.9079377 23.3184311,12.5199456 C23.3184311,8.24208391 20.6280782,5.30975896 15.9945088,5.30975896 L15.9945088,5.30975896 L15.9945088,5.30975896 Z" id="flag-e" fill="#FFFFFF"></path>
            </g>
        </g>
        <g id="flag-link" sketch:type="MSLayerGroup" transform="translate(188.246150, 113.959171) rotate(-5.000000) translate(-188.246150, -113.959171) translate(175.746150, 105.959171)">
            <g id="flag" transform="translate(0.242134, 0.242348)" sketch:type="MSShapeGroup">
                <path d="M23.7529552,12.4533111 L0.999116608,14.7197526 C0.999116608,14.7197526 2.41414909,10.7578422 2.41414909,7.36302685 C2.41414909,3.96821149 0.999116608,0.431380021 0.999116608,0.431380021 L23.7529552,2.69685218 L17.5291367,7.43379256 L23.7529552,12.4533111 L23.7529552,12.4533111 Z" id="flag-background" fill="#4FB79B"></path>
                <path d="M3.75218289,0.706203023 L16.9707752,13.1284935 L23.7529552,12.4528264 L17.5291367,7.43379256 L23.7529552,2.69685218 L3.75218289,0.706203023 L3.75218289,0.706203023 Z" id="flag-highlight" fill="#7DC5B1"></path>
                <path d="M8.81230419,6.4876647 C8.98664084,5.75286457 9.58132253,5.33311727 10.2796377,5.33311727 C10.9789214,5.33311727 11.5561693,5.75286457 11.748424,6.4876647 L8.81230419,6.4876647 L8.81230419,6.4876647 Z M10.2626883,3.33955994 C7.69461255,3.33955994 5.84180137,5.14117739 5.84180137,7.6591765 C5.84180137,10.1955941 7.57160836,11.8571342 10.3498566,11.8571342 C11.9406786,11.8571342 13.5130983,11.2624114 14.2826009,9.98572044 L12.2728867,8.60433498 C11.7658576,9.35609949 11.1716602,9.65321853 10.4375092,9.65321853 C9.61667412,9.65321853 8.86508945,9.16367491 8.77792113,8.27134838 L14.5092385,8.2538993 C14.5445902,8.00864279 14.5445902,7.78180476 14.5445902,7.55496672 C14.5445902,5.053932 12.9716861,3.33955994 10.2626883,3.33955994 L10.2626883,3.33955994 L10.2626883,3.33955994 Z" id="flag-e" fill="#FFFFFF"></path>
            </g>
        </g>
        <g id="flag-link" sketch:type="MSLayerGroup" transform="translate(406.854402, 44.204038) rotate(-5.000000) translate(-406.854402, -44.204038) translate(401.354402, 40.704038)">
            <g id="flag" transform="translate(0.086294, 0.086370)" sketch:type="MSShapeGroup">
                <path d="M9.10832696,4.43821902 L0.999116608,5.24595312 C0.999116608,5.24595312 1.50341816,3.83397311 1.50341816,2.62409937 C1.50341816,1.41422563 0.999116608,0.153738953 0.999116608,0.153738953 L9.10832696,0.961127569 L6.89022855,2.64931947 L9.10832696,4.43821902 L9.10832696,4.43821902 Z" id="flag-background" fill="#4FB79B"></path>
                <path d="M1.98027825,0.251682759 L6.69123483,4.67884639 L9.10832696,4.43804628 L6.89022855,2.64931947 L9.10832696,0.961127569 L1.98027825,0.251682759 L1.98027825,0.251682759 Z" id="flag-highlight" fill="#7DC5B1"></path>
                <path d="M3.78364817,2.31213021 C3.84577977,2.05025577 4.05771759,1.90066259 4.3065892,1.90066259 C4.55580598,1.90066259 4.76153064,2.05025577 4.83004799,2.31213021 L3.78364817,2.31213021 L3.78364817,2.31213021 Z M4.30054863,1.19018134 C3.38531552,1.19018134 2.7249946,1.83225739 2.7249946,2.72964375 C2.7249946,3.63359425 3.34147822,4.22574833 4.33161443,4.22574833 C4.89856535,4.22574833 5.45895794,4.01379587 5.73319995,3.55879766 L5.01696058,3.06648753 C4.83626116,3.33440788 4.62449592,3.44029775 4.36285282,3.44029775 C4.0703165,3.44029775 3.80246024,3.26582995 3.77139443,2.94781488 L5.81397104,2.94159622 C5.82656995,2.85418958 5.82656995,2.77334707 5.82656995,2.69250457 C5.82656995,1.80116412 5.26600478,1.19018134 4.30054863,1.19018134 L4.30054863,1.19018134 L4.30054863,1.19018134 Z" id="flag-e" fill="#FFFFFF"></path>
            </g>
        </g>
        <g id="flag-link" sketch:type="MSLayerGroup" transform="translate(48.046982, 521.047513) rotate(-5.000000) translate(-48.046982, -521.047513) translate(39.546982, 515.547513)">
            <g id="flag" transform="translate(0.160942, 0.161084)" sketch:type="MSShapeGroup">
                <path d="M15.123971,8.27743919 L0,9.78389253 C0,9.78389253 0.940540652,7.15049869 0.940540652,4.89404035 C0.940540652,2.63758201 0,0.286728715 0,0.286728715 L15.123971,1.79253772 L10.9871371,4.94107675 L15.123971,8.27743919 L15.123971,8.27743919 Z" id="flag-background" fill="#4FB79B"></path>
                <path d="M1.82990199,0.469397458 L10.6160066,8.72621795 L15.123971,8.27711702 L10.9871371,4.94107675 L15.123971,1.79253772 L1.82990199,0.469397458 L1.82990199,0.469397458 Z" id="flag-highlight" fill="#7DC5B1"></path>
                <path d="M5.19325219,4.31220658 C5.30912989,3.82380126 5.70440159,3.54480455 6.16855615,3.54480455 C6.63335448,3.54480455 7.01703841,3.82380126 7.14482576,4.31220658 L5.19325219,4.31220658 L5.19325219,4.31220658 Z M6.15729026,2.21973129 C4.45034738,2.21973129 3.21882496,3.41722638 3.21882496,5.09088445 C3.21882496,6.77678486 4.36858923,7.88117366 6.21522911,7.88117366 C7.27261311,7.88117366 8.31776557,7.48587463 8.82923685,6.6372865 L7.4934245,5.71911028 C7.15641353,6.21879145 6.7614637,6.41627988 6.27348984,6.41627988 C5.72789901,6.41627988 5.22833737,6.09089111 5.17039853,5.49778149 L8.97987786,5.48618347 C9.00337529,5.32316692 9.00337529,5.17239272 9.00337529,5.02161852 C9.00337529,3.35923631 7.95790095,2.21973129 6.15729026,2.21973129 L6.15729026,2.21973129 L6.15729026,2.21973129 Z" id="flag-e" fill="#FFFFFF"></path>
            </g>
        </g>
        <g id="flag-link" sketch:type="MSLayerGroup" transform="translate(265.687061, 614.870143) rotate(-5.000000) translate(-265.687061, -614.870143) translate(232.187061, 593.370143)">
            <g id="flag" transform="translate(0.695017, 0.695632)" sketch:type="MSShapeGroup">
                <path d="M65.3122113,34.7457614 L0,41.2513147 C0,41.2513147 4.06168394,29.8791178 4.06168394,20.1347006 C4.06168394,10.3902833 0,0.2382255 0,0.2382255 L65.3122113,6.74099625 L47.4474741,20.3378252 L65.3122113,34.7457614 L65.3122113,34.7457614 Z" id="flag-background" fill="#4FB79B"></path>
                <path d="M7.90235221,1.02707253 L45.8447631,36.683793 L65.3122113,34.7443702 L47.4474741,20.3378252 L65.3122113,6.74099625 L7.90235221,1.02707253 L7.90235221,1.02707253 Z" id="flag-highlight" fill="#7DC5B1"></path>
                <path d="M22.4268339,17.6220767 C22.9272466,15.5129196 24.6342104,14.3080844 26.6386416,14.3080844 C28.645853,14.3080844 30.3027754,15.5129196 30.8546196,17.6220767 L22.4268339,17.6220767 L22.4268339,17.6220767 Z M26.5899904,8.58581311 C19.2186318,8.58581311 13.9003557,13.7571436 13.9003557,20.9847632 C13.9003557,28.2652509 18.8655628,33.034506 26.8401968,33.034506 C31.4064636,33.034506 35.9199092,31.3274243 38.1286756,27.6628333 L32.360028,23.6977292 C30.9046608,25.8555806 29.1990871,26.7084258 27.0917933,26.7084258 C24.735683,26.7084258 22.5783477,25.3032486 22.3281414,22.7419304 L38.7792124,22.6918449 C38.8806849,21.987865 38.8806849,21.3367532 38.8806849,20.6856414 C38.8806849,13.506716 34.3658494,8.58581311 26.5899904,8.58581311 L26.5899904,8.58581311 L26.5899904,8.58581311 Z" id="flag-e" fill="#FFFFFF"></path>
            </g>
        </g>
        <g id="flag-link" sketch:type="MSLayerGroup" transform="translate(392.576910, 624.220604) rotate(-5.000000) translate(-392.576910, -624.220604) translate(378.076910, 614.720604)">
            <g id="flag" transform="translate(0.295885, 0.296147)" sketch:type="MSShapeGroup">
                <path d="M27.8049125,15.2177939 L0,17.9873577 C0,17.9873577 1.72915239,13.1459516 1.72915239,8.99752877 C1.72915239,4.84910592 0,0.52714111 0,0.52714111 L27.8049125,3.29552038 L20.1994825,9.0840036 L27.8049125,15.2177939 L27.8049125,15.2177939 Z" id="flag-background" fill="#4FB79B"></path>
                <path d="M3.36421333,0.862971458 L19.5171714,16.0428585 L27.8049125,15.2172016 L20.1994825,9.0840036 L27.8049125,3.29552038 L3.36421333,0.862971458 L3.36421333,0.862971458 Z" id="flag-highlight" fill="#7DC5B1"></path>
                <path d="M9.54761968,7.92784692 C9.76065693,7.02993015 10.4873507,6.51700408 11.3406833,6.51700408 C12.1951993,6.51700408 12.9005893,7.02993015 13.1355221,7.92784692 L9.54761968,7.92784692 L9.54761968,7.92784692 Z M11.3199713,4.0809014 C8.18181416,4.0809014 5.91770155,6.2824559 5.91770155,9.35942002 C5.91770155,12.4588913 8.03150454,14.489273 11.4264899,14.489273 C13.3704549,14.489273 15.2919326,13.762529 16.2322554,12.2024283 L13.7764092,10.5143921 C13.1568259,11.4330392 12.4307239,11.796115 11.5336003,11.796115 C10.5305499,11.796115 9.61212263,11.1978987 9.505604,10.1074866 L16.5092038,10.086164 C16.552403,9.78646355 16.552403,9.50927025 16.552403,9.23207695 C16.552403,6.1758431 14.6303335,4.0809014 11.3199713,4.0809014 L11.3199713,4.0809014 L11.3199713,4.0809014 Z" id="flag-e" fill="#FFFFFF"></path>
            </g>
        </g>
        <g id="flag-link" sketch:type="MSLayerGroup" transform="translate(339.547689, 118.790758) rotate(-5.000000) translate(-339.547689, -118.790758) translate(324.047689, 108.790758)">
            <g id="flag" transform="translate(0.304429, 0.304698)" sketch:type="MSShapeGroup">
                <path d="M29.6069493,15.6572369 L0.999116608,18.5067772 C0.999116608,18.5067772 2.7782016,13.5255662 2.7782016,9.25734968 C2.7782016,4.98913316 0.999116608,0.542363322 0.999116608,0.542363322 L29.6069493,3.39068486 L21.7818979,9.34632164 L29.6069493,15.6572369 L29.6069493,15.6572369 Z" id="flag-background" fill="#4FB79B"></path>
                <path d="M4.46047805,0.887891415 L21.0798838,16.5061269 L29.6069493,15.6566275 L21.7818979,9.34632164 L29.6069493,3.39068486 L4.46047805,0.887891415 L4.46047805,0.887891415 Z" id="flag-highlight" fill="#7DC5B1"></path>
                <path d="M10.8224421,8.15677872 C11.0416313,7.23293288 11.7893097,6.70519509 12.6672838,6.70519509 C13.5464758,6.70519509 14.2722353,7.23293288 14.5139522,8.15677872 L10.8224421,8.15677872 L10.8224421,8.15677872 Z M12.6459738,4.19874527 C9.41719636,4.19874527 7.08770315,6.46387388 7.08770315,9.62969125 C7.08770315,12.8186657 9.26254626,14.9076786 12.7555684,14.9076786 C14.755669,14.9076786 16.7326331,14.1599485 17.7001095,12.5547968 L15.173346,10.8180154 C14.5358711,11.7631901 13.7888015,12.1367505 12.8657717,12.1367505 C11.8337563,12.1367505 10.8888077,11.5212595 10.7792132,10.3993596 L17.9850553,10.3774214 C18.029502,10.0690665 18.029502,9.78386868 18.029502,9.49867089 C18.029502,6.35418242 16.0519291,4.19874527 12.6459738,4.19874527 L12.6459738,4.19874527 L12.6459738,4.19874527 Z" id="flag-e" fill="#FFFFFF"></path>
            </g>
        </g>
        <g id="flag-link" sketch:type="MSLayerGroup" transform="translate(89.377272, 305.143878) rotate(-5.000000) translate(-89.377272, -305.143878) translate(74.377272, 295.643878)">
            <g id="flag" transform="translate(0.292495, 0.292754)" sketch:type="MSShapeGroup">
                <path d="M28.4854821,15.0434512 L0.999116608,17.7812856 C0.999116608,17.7812856 2.70845896,12.995345 2.70845896,8.89444858 C2.70845896,4.79355214 0.999116608,0.521101918 0.999116608,0.521101918 L28.4854821,3.25776525 L20.9671837,8.97993271 L28.4854821,15.0434512 L28.4854821,15.0434512 Z" id="flag-background" fill="#4FB79B"></path>
                <path d="M4.32478783,0.853084825 L20.2926896,15.8590635 L28.4854821,15.0428657 L20.9671837,8.97993271 L28.4854821,3.25776525 L4.32478783,0.853084825 L4.32478783,0.853084825 Z" id="flag-highlight" fill="#7DC5B1"></path>
                <path d="M10.437354,7.83702154 C10.6479506,6.94939176 11.366319,6.44234203 12.2098754,6.44234203 C13.0546017,6.44234203 13.7519103,6.94939176 13.9841516,7.83702154 L10.437354,7.83702154 L10.437354,7.83702154 Z M12.1894007,4.03414856 C9.08719581,4.03414856 6.84902201,6.21048095 6.84902201,9.25219383 C6.84902201,12.316156 8.93860821,14.3232766 12.294699,14.3232766 C14.2163928,14.3232766 16.1158572,13.6048586 17.0454071,12.0626311 L14.6176964,10.393934 C14.0052113,11.3020565 13.2874279,11.6609728 12.4005822,11.6609728 C11.4090232,11.6609728 10.501118,11.06961 10.3958197,9.99169015 L17.3191826,9.97061187 C17.361887,9.67434493 17.361887,9.40032729 17.361887,9.12630966 C17.361887,6.10508955 15.4618378,4.03414856 12.1894007,4.03414856 L12.1894007,4.03414856 L12.1894007,4.03414856 Z" id="flag-e" fill="#FFFFFF"></path>
            </g>
        </g>
        <g id="flag-link" sketch:type="MSLayerGroup" transform="translate(98.309539, 516.047854) rotate(-5.000000) translate(-98.309539, -516.047854) translate(73.809539, 500.047854)">
            <g id="flag" transform="translate(0.507508, 0.507957)" sketch:type="MSShapeGroup">
                <path d="M47.69161,26.1019016 L0,30.8523197 C0,30.8523197 2.96588099,22.5482313 2.96588099,15.4327633 C2.96588099,8.3172953 0,0.904164263 0,0.904164263 L47.69161,5.65255052 L34.6466057,15.5810869 L47.69161,26.1019016 L47.69161,26.1019016 Z" id="flag-background" fill="#4FB79B"></path>
                <path d="M5.77037421,1.48018801 L33.4762906,27.517071 L47.69161,26.1008857 L34.6466057,15.5810869 L47.69161,5.65255052 L5.77037421,1.48018801 L5.77037421,1.48018801 Z" id="flag-highlight" fill="#7DC5B1"></path>
                <path d="M16.3762915,13.598021 C16.7416978,12.057894 17.9881393,11.1781117 19.4517944,11.1781117 C20.9174796,11.1781117 22.1273805,12.057894 22.5303424,13.598021 L16.3762915,13.598021 L16.3762915,13.598021 Z M19.4162689,6.99965368 C14.0336312,6.99965368 10.1501745,10.7758094 10.1501745,16.0534873 C10.1501745,21.36977 13.7758169,24.8523262 19.5989719,24.8523262 C22.9333043,24.8523262 26.229066,23.6057987 27.8419287,20.9298788 L23.6296062,18.0345213 C22.566883,19.6102054 21.3214565,20.2329612 19.7826901,20.2329612 C18.0622356,20.2329612 16.4869285,19.2068871 16.3042253,17.3365878 L28.3169568,17.3000149 C28.3910531,16.7859619 28.3910531,16.3105138 28.3910531,15.8350656 C28.3910531,10.5929447 25.0942764,6.99965368 19.4162689,6.99965368 L19.4162689,6.99965368 L19.4162689,6.99965368 Z" id="flag-e" fill="#FFFFFF"></path>
            </g>
        </g>
        <g id="flag-link" sketch:type="MSLayerGroup" transform="translate(300.573716, 678.288185) rotate(-5.000000) translate(-300.573716, -678.288185) translate(281.573716, 665.788185)">
            <g id="flag" transform="translate(0.392510, 0.392857)" sketch:type="MSShapeGroup">
                <path d="M36.8849075,20.1873291 L0,23.861324 C0,23.861324 2.29382582,17.4389044 2.29382582,11.9357691 C2.29382582,6.43263393 0,0.699284744 0,0.699284744 L36.8849075,4.37170822 L26.795842,12.0504833 L36.8849075,20.1873291 L36.8849075,20.1873291 Z" id="flag-background" fill="#4FB79B"></path>
                <path d="M4.46283359,1.14478413 L25.890715,21.2818276 L36.8849075,20.1865434 L26.795842,12.0504833 L36.8849075,4.37170822 L4.46283359,1.14478413 L4.46283359,1.14478413 Z" id="flag-highlight" fill="#7DC5B1"></path>
                <path d="M12.6654982,10.5167711 C12.948105,9.32562991 13.9121085,8.64520229 15.0441061,8.64520229 C16.1776736,8.64520229 17.1134165,9.32562991 17.425069,10.5167711 L12.6654982,10.5167711 L12.6654982,10.5167711 Z M15.0166304,5.41356391 C10.8536741,5.41356391 7.85019102,8.33405986 7.85019102,12.4158399 C7.85019102,16.5274771 10.6542793,19.2209019 15.1579339,19.2209019 C17.7367216,19.2209019 20.2856786,18.2568318 21.5330739,16.1872632 L18.2752447,13.9479806 C17.4533297,15.1666218 16.4901113,15.648264 15.3000223,15.648264 C13.9694149,15.648264 12.7510652,14.8546937 12.6097619,13.4081957 L21.9004629,13.37991 C21.9577693,12.9823391 21.9577693,12.6146253 21.9577693,12.2469116 C21.9577693,8.19263148 19.4080272,5.41356391 15.0166304,5.41356391 L15.0166304,5.41356391 L15.0166304,5.41356391 Z" id="flag-e" fill="#FFFFFF"></path>
            </g>
        </g>
        <g id="flag-link" sketch:type="MSLayerGroup" transform="translate(500.368681, 138.348709) rotate(-5.000000) translate(-500.368681, -138.348709) translate(462.868681, 114.848709)">
            <g id="flag" transform="translate(0.767902, 0.768581)" sketch:type="MSShapeGroup">
                <path d="M73.1603664,38.4942809 L0.999116608,45.6820463 C0.999116608,45.6820463 5.4867336,33.1172912 5.4867336,22.3510147 C5.4867336,11.5847382 0.999116608,0.368073404 0.999116608,0.368073404 L73.1603664,7.55276452 L53.4222235,22.5754402 L73.1603664,38.4942809 L73.1603664,38.4942809 Z" id="flag-background" fill="#4FB79B"></path>
                <path d="M9.73015787,1.23964376 L51.6514424,40.6355463 L73.1603664,38.4927437 L53.4222235,22.5754402 L73.1603664,7.55276452 L9.73015787,1.23964376 L9.73015787,1.23964376 Z" id="flag-highlight" fill="#7DC5B1"></path>
                <path d="M25.7777656,19.5749017 C26.3306548,17.2445654 28.2166211,15.9133839 30.4312494,15.9133839 C32.6489492,15.9133839 34.4796266,17.2445654 35.0893405,19.5749017 L25.7777656,19.5749017 L25.7777656,19.5749017 Z M30.3774962,9.59104018 C22.2331319,9.59104018 16.3571487,15.3046681 16.3571487,23.2902202 C16.3571487,31.3341843 21.8430378,36.6035727 30.6539408,36.6035727 C35.6990543,36.6035727 40.6858074,34.717476 43.1261988,30.6685936 L36.7526154,26.2876844 C35.1446295,28.6718213 33.2601989,29.614101 30.9319212,29.614101 C28.3287348,29.614101 25.9451682,28.0615683 25.6687236,25.2316547 L43.8449547,25.1763169 C43.9570682,24.3985133 43.9570682,23.6791219 43.9570682,22.9597305 C43.9570682,15.0279791 38.9687794,9.59104018 30.3774962,9.59104018 L30.3774962,9.59104018 L30.3774962,9.59104018 Z" id="flag-e" fill="#FFFFFF"></path>
            </g>
        </g>
        <g id="flag-link" sketch:type="MSLayerGroup" transform="translate(147.345765, 232.976772) rotate(-5.000000) translate(-147.345765, -232.976772) translate(109.345765, 208.976772)">
            <g id="flag" transform="translate(0.780063, 0.780753)" sketch:type="MSShapeGroup">
                <path d="M74.1197006,39.3033913 L0.815637146,46.604989 C0.815637146,46.604989 5.37432428,33.8412466 5.37432428,22.9044651 C5.37432428,11.9676836 0.815637146,0.573381196 0.815637146,0.573381196 L74.1197006,7.87185587 L54.0689659,23.1324449 L74.1197006,39.3033913 L74.1197006,39.3033913 Z" id="flag-background" fill="#4FB79B"></path>
                <path d="M9.68495142,1.45875457 L52.2701409,41.4785679 L74.1197006,39.3018298 L54.0689659,23.1324449 L74.1197006,7.87185587 L9.68495142,1.45875457 L9.68495142,1.45875457 Z" id="flag-highlight" fill="#7DC5B1"></path>
                <path d="M25.9867042,20.084387 C26.5483495,17.7171453 28.4641838,16.3648819 30.713885,16.3648819 C32.9667064,16.3648819 34.8263761,17.7171453 35.445746,20.084387 L25.9867042,20.084387 L25.9867042,20.084387 Z M30.6592806,9.94241158 C22.3859343,9.94241158 16.4168936,15.7465259 16.4168936,23.8585447 C16.4168936,32.0299007 21.9896623,37.3827401 30.9401032,37.3827401 C36.0651159,37.3827401 41.1308439,35.4667734 43.6098835,31.353769 L37.1353621,26.9034796 C35.5019106,29.3253739 33.5876364,30.2825765 31.2224859,30.2825765 C28.5780729,30.2825765 26.156758,28.7054564 25.8759354,25.8307256 L44.3400223,25.7745114 C44.4539115,24.9843899 44.4539115,24.2536055 44.4539115,23.5228211 C44.4539115,15.465455 39.3866234,9.94241158 30.6592806,9.94241158 L30.6592806,9.94241158 L30.6592806,9.94241158 Z" id="flag-e" fill="#FFFFFF"></path>
            </g>
        </g>
        <g id="flag-link" sketch:type="MSLayerGroup" transform="translate(205.029579, 496.847838) rotate(-5.000000) translate(-205.029579, -496.847838) translate(170.529579, 474.847838)">
            <g id="flag" transform="translate(0.720623, 0.721260)" sketch:type="MSShapeGroup">
                <path d="M67.7183903,36.0626775 L0,42.8079031 C0,42.8079031 4.21132117,31.016741 4.21132117,20.9133279 C4.21132117,10.8099148 0,0.283843187 0,0.283843187 L67.7183903,7.0261837 L49.1954952,21.1239359 L67.7183903,36.0626775 L67.7183903,36.0626775 Z" id="flag-background" fill="#F741CD"></path>
                <path d="M8.19348421,1.10175227 L47.5337384,38.0721085 L67.7183903,36.061235 L49.1954952,21.1239359 L67.7183903,7.0261837 L8.19348421,1.10175227 L8.19348421,1.10175227 Z" id="flag-highlight" fill="#FF67DC"></path>
            </g>
        </g>
        <g id="flag-link" sketch:type="MSLayerGroup" transform="translate(589.396381, 819.346391) rotate(-5.000000) translate(-589.396381, -819.346391) translate(551.896381, 795.346391)">
            <g id="flag" transform="translate(0.780828, 0.781518)" sketch:type="MSShapeGroup">
                <path d="M73.3759477,39.1590923 L0,46.4678502 C0,46.4678502 4.56315753,33.6915913 4.56315753,22.7440848 C4.56315753,11.7965784 0,0.39110233 0,0.39110233 L73.3759477,7.69673412 L53.3055507,22.9722881 L73.3759477,39.1590923 L73.3759477,39.1590923 Z" id="flag-background" fill="#4FB79B"></path>
                <path d="M8.87801182,1.27734393 L51.5049618,41.3364019 L73.3759477,39.1575293 L53.3055507,22.9722881 L73.3759477,7.69673412 L8.87801182,1.27734393 L8.87801182,1.27734393 Z" id="flag-highlight" fill="#7DC5B1"></path>
                <path d="M25.1957507,19.9212412 C25.7579467,17.5516782 27.6756597,16.1980887 29.927567,16.1980887 C32.1825976,16.1980887 34.044091,17.5516782 34.6640683,19.9212412 L25.1957507,19.9212412 L25.1957507,19.9212412 Z M29.8729091,9.7693203 C21.5914497,9.7693203 15.6165556,15.5791263 15.6165556,23.6991 C15.6165556,31.8784691 21.1947891,37.2365577 30.154007,37.2365577 C35.2840456,37.2365577 40.3547411,35.3187121 42.8362118,31.2016744 L36.3553413,26.7470209 C34.7202879,29.1712902 32.8041366,30.1294315 30.4366667,30.1294315 C27.7896605,30.1294315 25.3659712,28.5507648 25.0848731,25.6732149 L43.5670666,25.6169456 C43.6810675,24.8260492 43.6810675,24.0945482 43.6810675,23.3630472 C43.6810675,15.2977798 38.6088102,9.7693203 29.8729091,9.7693203 L29.8729091,9.7693203 L29.8729091,9.7693203 Z" id="flag-e" fill="#FFFFFF"></path>
            </g>
        </g>
        <g id="flag-link" sketch:type="MSLayerGroup" transform="translate(332.616220, 216.767707) rotate(-5.000000) translate(-332.616220, -216.767707) translate(269.616220, 176.767707)">
            <g id="flag" transform="translate(0.317245, 0.317526)" sketch:type="MSShapeGroup">
                <path d="M124.700315,65.7024012 L0.999116608,78.0239062 C0.999116608,78.0239062 8.69193792,56.4849879 8.69193792,38.0290809 C8.69193792,19.5731739 0.999116608,0.345196631 0.999116608,0.345196631 L124.700315,12.6614315 L90.8645384,38.4137986 L124.700315,65.7024012 L124.700315,65.7024012 Z" id="flag-background" fill="#4FB79B"></path>
                <path d="M15.9661561,1.83927134 L87.8290069,69.3730291 L124.700315,65.6997661 L90.8645384,38.4137986 L124.700315,12.6614315 L15.9661561,1.83927134 L15.9661561,1.83927134 Z" id="flag-highlight" fill="#7DC5B1"></path>
                <path d="M43.4754954,33.2701763 C44.4232763,29.2754369 47.6562621,26.9934815 51.452651,26.9934815 C55.2543053,26.9934815 58.3925131,29.2754369 59.4377048,33.2701763 L43.4754954,33.2701763 L43.4754954,33.2701763 Z M51.3605056,16.155511 C37.3991671,16.155511 27.3263627,25.9500007 27.3263627,39.6390979 C27.3263627,53.4283271 36.730455,62.4612867 51.8343961,62.4612867 C60.4828964,62.4612867 69.0313532,59.2280774 73.2147527,52.2873494 L62.2889455,44.7774501 C59.5324829,48.8644164 56.3021298,50.4797035 52.3109193,50.4797035 C47.848451,50.4797035 43.7624624,47.8183006 43.288572,42.9671691 L74.4468678,42.8723072 C74.6390566,41.5389707 74.6390566,40.3057662 74.6390566,39.0725617 C74.6390566,25.4756913 66.0879671,16.155511 51.3605056,16.155511 L51.3605056,16.155511 L51.3605056,16.155511 Z" id="flag-e" fill="#FFFFFF"></path>
            </g>
        </g>
        <g id="flag-link" sketch:type="MSLayerGroup" transform="translate(334.075472, 526.701675) rotate(-5.000000) translate(-334.075472, -526.701675) translate(276.075472, 489.701675)">
            <g id="flag" transform="translate(0.221460, 0.221656)" sketch:type="MSShapeGroup">
                <path d="M114.700071,60.776031 L0,72.2009608 C0,72.2009608 7.13305261,52.2293235 7.13305261,35.1163619 C7.13305261,18.0034004 0,0.174548227 0,0.174548227 L114.700071,11.5945914 L83.3263579,35.4730856 L114.700071,60.776031 L114.700071,60.776031 Z" id="flag-background" fill="#F741CD"></path>
                <path d="M13.8779617,1.55990648 L80.511707,64.1795655 L114.700071,60.7735877 L83.3263579,35.4730856 L114.700071,11.5945914 L13.8779617,1.55990648 L13.8779617,1.55990648 Z" id="flag-highlight" fill="#FF67DC"></path>
            </g>
        </g>
        <g id="flag-link" sketch:type="MSLayerGroup" transform="translate(131.070381, 411.833910) rotate(-5.000000) translate(-131.070381, -411.833910) translate(37.070381, 352.333910)">
            <g id="flag" sketch:type="MSShapeGroup">
                <path d="M187.777972,99.772 L0,118.476 C0,118.476 11.6776749,85.78 11.6776749,57.764 C11.6776749,29.748 0,0.56 0,0.56 L187.777972,19.256 L136.415385,58.348 L187.777972,99.772 L187.777972,99.772 Z" id="flag-background" fill="#4FB79B"></path>
                <path d="M22.7199117,2.828 L131.807459,105.344 L187.777972,99.768 L136.415385,58.348 L187.777972,19.256 L22.7199117,2.828 L22.7199117,2.828 Z" id="flag-highlight" fill="#7DC5B1"></path>
                <path d="M64.4789894,50.54 C65.9177173,44.476 70.8253781,41.012 76.5882827,41.012 C82.3591802,41.012 87.1229682,44.476 88.7095654,50.54 L64.4789894,50.54 L64.4789894,50.54 Z M76.4484064,24.56 C55.2551449,24.56 39.9646643,39.428 39.9646643,60.208 C39.9646643,81.14 54.2400424,94.852 77.1677703,94.852 C90.2961625,94.852 103.272689,89.944 109.623074,79.408 L93.0377385,68.008 C88.8534382,74.212 83.9497739,76.664 77.8911307,76.664 C71.1171201,76.664 64.9146042,72.624 64.1952403,65.26 L111.49342,65.116 C111.785163,63.092 111.785163,61.22 111.785163,59.348 C111.785163,38.708 98.8046396,24.56 76.4484064,24.56 L76.4484064,24.56 L76.4484064,24.56 Z" id="flag-e" fill="#FFFFFF"></path>
            </g>
        </g>
        <g id="flag-link" sketch:type="MSLayerGroup" transform="translate(314.422124, 357.090862) rotate(-5.000000) translate(-314.422124, -357.090862) translate(246.922124, 314.090862)">
            <g id="flag" transform="translate(0.424326, 0.424701)" sketch:type="MSShapeGroup">
                <path d="M133.763733,71.209686 L0,84.5334899 C0,84.5334899 8.31859761,61.2424778 8.31859761,41.285266 C8.31859761,21.3280543 0,0.5359678 0,0.5359678 L133.763733,13.8540728 L97.1755685,41.7012787 L133.763733,71.209686 L133.763733,71.209686 Z" id="flag-background" fill="#4FB79B"></path>
                <path d="M16.1845406,2.15157874 L93.8931101,75.178903 L133.763733,71.2068366 L97.1755685,41.7012787 L133.763733,13.8540728 L16.1845406,2.15157874 L16.1845406,2.15157874 Z" id="flag-highlight" fill="#7DC5B1"></path>
                <path d="M45.9316406,36.139246 C46.9565192,31.8195525 50.4524938,29.3519704 54.5577018,29.3519704 C58.6686036,29.3519704 62.0620904,31.8195525 63.1923037,36.139246 L45.9316406,36.139246 L45.9316406,36.139246 Z M54.4580608,17.6323799 C39.3610303,17.6323799 28.4688488,28.2236072 28.4688488,43.0262507 C28.4688488,57.9371714 38.6379216,67.7049215 54.9705001,67.7049215 C64.3225169,67.7049215 73.5663521,64.2087053 78.0900522,56.7033804 L66.27548,48.5825846 C63.2947914,53.0020071 59.8016638,54.7486906 55.4857862,54.7486906 C50.6603164,54.7486906 46.2419511,51.8707945 45.7295118,46.6250454 L79.4223943,46.5224669 C79.6302169,45.0806695 79.6302169,43.7471494 79.6302169,42.4136292 C79.6302169,27.7107148 70.3835349,17.6323799 54.4580608,17.6323799 L54.4580608,17.6323799 L54.4580608,17.6323799 Z" id="flag-e" fill="#FFFFFF"></path>
            </g>
        </g>
        <g id="flag-link-copy" sketch:type="MSLayerGroup" transform="translate(588.328507, 519.106162) rotate(-5.000000) translate(-588.328507, -519.106162) translate(422.828507, 414.606162)">
            <g id="flag" sketch:type="MSShapeGroup">
                <path d="M330.609088,175.229815 L3.97903932e-13,208.079697 C3.97903932e-13,208.079697 20.5601617,150.65563 20.5601617,101.451059 C20.5601617,52.2464874 3.97903932e-13,0.983529412 3.97903932e-13,0.983529412 L330.609088,33.8193613 L240.178152,102.476739 L330.609088,175.229815 L330.609088,175.229815 Z" id="flag-background" fill="#F741CD"></path>
                <path d="M40.0015466,4.96682353 L232.065261,185.015933 L330.609088,175.22279 L240.178152,102.476739 L330.609088,33.8193613 L40.0015466,4.96682353 L40.0015466,4.96682353 Z" id="flag-highlight" fill="#FF67DC"></path>
                <path d="M113.524178,88.7635294 C116.057257,78.1133109 124.697873,72.029479 134.844263,72.029479 C145.004727,72.029479 153.392035,78.1133109 156.185458,88.7635294 L113.524178,88.7635294 L113.524178,88.7635294 Z M134.597992,43.1347899 C97.2843242,43.1347899 70.3633185,69.2474958 70.3633185,105.743462 C70.3633185,142.506387 95.4970959,166.588807 135.864532,166.588807 C158.978882,166.588807 181.825851,157.968874 193.006583,139.464471 L163.805805,119.442622 C156.438766,130.338723 147.805187,134.645176 137.138108,134.645176 C125.211525,134.645176 114.291138,127.549714 113.024599,114.616303 L196.299586,114.363395 C196.813238,110.808639 196.813238,107.52084 196.813238,104.233042 C196.813238,67.982958 173.959233,43.1347899 134.597992,43.1347899 L134.597992,43.1347899 L134.597992,43.1347899 Z" id="flag-e" fill="#FFFFFF"></path>
            </g>
        </g>
        <g id="flag-link" sketch:type="MSLayerGroup" transform="translate(1010.298224, 774.984586) rotate(-5.000000) translate(-1010.298224, -774.984586) translate(941.298224, 731.484586)">
            <g id="flag" sketch:type="MSShapeGroup">
                <path d="M137.785143,73.209329 L0,86.9336935 C0,86.9336935 8.56868405,62.9424713 8.56868405,42.3852752 C8.56868405,21.8280792 0,0.410909115 0,0.410909115 L137.785143,14.1294034 L100.097009,42.8137947 L137.785143,73.209329 L137.785143,73.209329 Z" id="flag-background" fill="#4FB79B"></path>
                <path d="M16.671105,2.07509103 L96.7158688,77.2978747 L137.785143,73.206394 L100.097009,42.8137947 L137.785143,14.1294034 L16.671105,2.07509103 L16.671105,2.07509103 Z" id="flag-highlight" fill="#7DC5B1"></path>
                <path d="M47.312508,37.0845477 C48.368198,32.6349889 51.969274,30.0932226 56.1978991,30.0932226 C60.4323891,30.0932226 63.927896,32.6349889 65.0920875,37.0845477 L47.312508,37.0845477 L47.312508,37.0845477 Z M56.0952625,18.0212998 C40.544362,18.0212998 29.324723,28.9309368 29.324723,44.1786 C29.324723,59.5377957 39.799514,69.5991989 56.6231076,69.5991989 C66.256279,69.5991989 75.7780166,65.997874 80.4377151,58.2669125 L68.267955,49.901977 C65.1976565,54.454263 61.599513,56.2534579 57.153885,56.2534579 C52.1833445,56.2534579 47.6321475,53.2890421 47.1043025,47.8855873 L81.8101121,47.7799249 C82.0241826,46.294782 82.0241826,44.9211715 82.0241826,43.547561 C82.0241826,28.4026251 72.4995126,18.0212998 56.0952625,18.0212998 L56.0952625,18.0212998 L56.0952625,18.0212998 Z" id="flag-e" fill="#FFFFFF"></path>
            </g>
        </g>
        <g id="flag-link" sketch:type="MSLayerGroup" transform="translate(899.659087, 531.961864) rotate(-5.000000) translate(-899.659087, -531.961864) translate(841.159087, 494.961864)">
            <g id="flag" transform="translate(0.229885, 0.230088)" sketch:type="MSShapeGroup">
                <path d="M115.491741,61.2093164 L0,72.713102 C0,72.713102 7.18228552,52.6036188 7.18228552,35.3725422 C7.18228552,18.1414655 0,0.18955714 0,0.18955714 L115.491741,11.6884224 L83.9014833,35.7317279 L115.491741,61.2093164 L115.491741,61.2093164 Z" id="flag-background" fill="#F741CD"></path>
                <path d="M13.9737486,1.58447725 L81.0674056,64.6363424 L115.491741,61.2068562 L83.9014833,35.7317279 L115.491741,11.6884224 L13.9737486,1.58447725 L13.9737486,1.58447725 Z" id="flag-highlight" fill="#FF67DC"></path>
            </g>
        </g>
        <g id="flag-link" sketch:type="MSLayerGroup" transform="translate(465.881042, 907.437694) rotate(-5.000000) translate(-465.881042, -907.437694) translate(401.881042, 867.437694)">
            <g id="flag" transform="translate(0.148817, 0.586916)" sketch:type="MSShapeGroup">
                <path d="M126.008352,66.4182974 L0.999116608,78.870092 C0.999116608,78.870092 8.77328307,57.1034177 8.77328307,38.452355 C8.77328307,19.8012922 0.999116608,0.369995123 0.999116608,0.369995123 L126.008352,12.8164639 L91.81479,38.8411407 L126.008352,66.4182974 L126.008352,66.4182974 Z" id="flag-background" fill="#4FB79B"></path>
                <path d="M16.1244199,1.87986842 L88.7471604,70.1277392 L126.008352,66.4156345 L91.81479,38.8411407 L126.008352,12.8164639 L16.1244199,1.87986842 L16.1244199,1.87986842 Z" id="flag-highlight" fill="#7DC5B1"></path>
                <path d="M43.9246476,33.6431289 C44.8824504,29.6061484 48.1496224,27.3000633 51.9861549,27.3000633 C55.8280086,27.3000633 58.9994002,29.6061484 60.0556439,33.6431289 L43.9246476,33.6431289 L43.9246476,33.6431289 Z M51.8930352,16.3474903 C37.7840671,16.3474903 27.6047513,26.2455486 27.6047513,40.0793966 C27.6047513,54.0144353 37.108284,63.1429109 52.3719366,63.1429109 C61.1118876,63.1429109 69.7507373,59.8755131 73.9783726,52.8613927 L62.9370342,45.2720825 C60.1514242,49.402265 56.8869128,51.0346324 52.8534986,51.0346324 C48.3438436,51.0346324 44.214649,48.3450874 43.7357476,43.4426593 L75.2235163,43.3467943 C75.4177375,41.9993589 75.4177375,40.7531143 75.4177375,39.5068696 C75.4177375,25.7662238 66.7762272,16.3474903 51.8930352,16.3474903 L51.8930352,16.3474903 L51.8930352,16.3474903 Z" id="flag-e" fill="#FFFFFF"></path>
            </g>
        </g>
        <g id="flag-link" sketch:type="MSLayerGroup" transform="translate(641.313380, 329.358534) rotate(-5.000000) translate(-641.313380, -329.358534) translate(596.813380, 300.858534)">
            <g id="flag" transform="translate(0.926491, 0.927310)" sketch:type="MSShapeGroup">
                <path d="M87.0641927,46.6507501 L0,55.322953 C0,55.322953 5.41441219,40.1632896 5.41441219,27.1735315 C5.41441219,14.1837734 0,0.65061175 0,0.65061175 L87.0641927,9.3191053 L63.2496733,27.444306 L87.0641927,46.6507501 L87.0641927,46.6507501 Z" id="flag-background" fill="#4FB79B"></path>
                <path d="M10.5342003,1.70218125 L61.1131856,49.2342357 L87.0641927,46.6488955 L63.2496733,27.444306 L87.0641927,9.3191053 L10.5342003,1.70218125 L10.5342003,1.70218125 Z" id="flag-highlight" fill="#7DC5B1"></path>
                <path d="M29.8960049,23.8240879 C30.5630782,21.0124841 32.8385396,19.4063832 35.510539,19.4063832 C38.1862444,19.4063832 40.3949985,21.0124841 41.1306322,23.8240879 L29.8960049,23.8240879 L29.8960049,23.8240879 Z M35.4456847,11.7783314 C25.6193234,11.7783314 18.5298158,18.6719537 18.5298158,28.3067043 C18.5298158,38.0119304 25.148666,44.3695676 35.7792214,44.3695676 C41.8662659,44.3695676 47.8828971,42.0939489 50.8272849,37.20888 L43.1374113,31.9232132 C41.1973395,34.7997287 38.9237312,35.9366107 36.114611,35.9366107 C32.9738072,35.9366107 30.0979799,34.0634446 29.7644432,30.6490893 L51.6944802,30.582323 C51.8297478,29.6438853 51.8297478,28.7759231 51.8297478,27.907961 C51.8297478,18.3381221 45.8112637,11.7783314 35.4456847,11.7783314 L35.4456847,11.7783314 L35.4456847,11.7783314 Z" id="flag-e" fill="#FFFFFF"></path>
            </g>
        </g>
        <g id="flag-link" sketch:type="MSLayerGroup" transform="translate(839.875703, 451.315714) rotate(-5.000000) translate(-839.875703, -451.315714) translate(800.875703, 426.315714)">
            <g id="flag" transform="translate(0.815176, 0.815897)" sketch:type="MSShapeGroup">
                <path d="M76.6037355,40.9256798 L0,48.5559479 C0,48.5559479 4.76388957,35.2176648 4.76388957,23.7885806 C4.76388957,12.3594964 0,0.45229654 0,0.45229654 L76.6037355,8.07930106 L55.6504472,24.0268225 L76.6037355,40.9256798 L76.6037355,40.9256798 Z" id="flag-background" fill="#4FB79B"></path>
                <path d="M9.26855311,1.37752366 L53.7706508,43.1987686 L76.6037355,40.924048 L55.6504472,24.0268225 L76.6037355,8.07930106 L9.26855311,1.37752366 L9.26855311,1.37752366 Z" id="flag-highlight" fill="#7DC5B1"></path>
                <path d="M26.3041048,20.8415609 C26.8910317,18.3677614 28.8931044,16.9546279 31.2440724,16.9546279 C33.5983013,16.9546279 35.5416812,18.3677614 36.1889311,20.8415609 L26.3041048,20.8415609 L26.3041048,20.8415609 Z M31.1870101,10.2430597 C22.5412516,10.2430597 16.3035235,16.3084375 16.3035235,24.7856066 C16.3035235,33.3247839 22.1271421,38.9185733 31.4804735,38.9185733 C36.836181,38.9185733 42.129935,36.9163622 44.720565,32.6182172 L37.9546028,27.9676047 C36.2476238,30.498517 34.2471815,31.4988066 31.7755673,31.4988066 C29.0121201,31.4988066 26.4818132,29.8506948 26.1883498,26.8465623 L45.4835698,26.7878177 C45.6025856,25.96213 45.6025856,25.1984505 45.6025856,24.434771 C45.6025856,16.0147146 40.3072011,10.2430597 31.1870101,10.2430597 L31.1870101,10.2430597 L31.1870101,10.2430597 Z" id="flag-e" fill="#FFFFFF"></path>
            </g>
        </g>
        <g id="flag-link" sketch:type="MSLayerGroup" transform="translate(1030.046986, 473.287465) rotate(-5.000000) translate(-1030.046986, -473.287465) translate(997.546986, 452.287465)">
            <g id="flag" transform="translate(0.675629, 0.676226)" sketch:type="MSShapeGroup">
                <path d="M63.4901492,33.748536 L0,40.0725992 C0,40.0725992 3.94837219,29.0176607 3.94837219,19.5450905 C3.94837219,10.0725203 0,0.20368182 0,0.20368182 L63.4901492,6.52504006 L46.1237976,19.7425484 L63.4901492,33.748536 L63.4901492,33.748536 Z" id="flag-background" fill="#4FB79B"></path>
                <path d="M7.68189456,0.97052181 L44.5657985,35.6325009 L63.4901492,33.7471836 L46.1237976,19.7425484 L63.4901492,6.52504006 L7.68189456,0.97052181 L7.68189456,0.97052181 Z" id="flag-highlight" fill="#7DC5B1"></path>
                <path d="M21.8011763,17.1025631 C22.2876287,15.0522467 23.9469719,13.8810237 25.8954842,13.8810237 C27.8466989,13.8810237 29.457397,15.0522467 29.9938458,17.1025631 L21.8011763,17.1025631 L21.8011763,17.1025631 Z M25.8481902,8.31839073 C18.6824757,8.31839073 13.5125674,13.3454529 13.5125674,20.3714384 C13.5125674,27.448817 18.3392565,32.0850207 26.0914164,32.0850207 C30.5302948,32.0850207 34.9178254,30.4255627 37.0649723,26.8632055 L31.4572569,23.0087188 C30.0424911,25.106371 28.3844991,25.9354238 26.3359938,25.9354238 C24.0456137,25.9354238 21.9484633,24.5694478 21.705237,22.0795846 L37.6973605,22.0308963 C37.7960023,21.3465559 37.7960023,20.7136086 37.7960023,20.0806613 C37.7960023,13.1020116 33.4071204,8.31839073 25.8481902,8.31839073 L25.8481902,8.31839073 L25.8481902,8.31839073 Z" id="flag-e" fill="#FFFFFF"></path>
            </g>
        </g>
        <g id="flag-link" sketch:type="MSLayerGroup" transform="translate(904.889696, 1010.971262) rotate(-5.000000) translate(-904.889696, -1010.971262) translate(861.889696, 983.471262)">
            <g id="flag" transform="translate(0.901558, 0.902355)" sketch:type="MSShapeGroup">
                <path d="M84.7211996,45.3684161 L0,53.8072404 C0,53.8072404 5.2687044,39.0555402 5.2687044,26.4153508 C5.2687044,13.7751614 0,0.60619197 0,0.60619197 L84.7211996,9.0414069 L61.5475552,26.6788385 L84.7211996,45.3684161 L84.7211996,45.3684161 Z" id="flag-background" fill="#4FB79B"></path>
                <path d="M10.2507134,1.62946259 L59.4685627,47.8823772 L84.7211996,45.3666114 L61.5475552,26.6788385 L84.7211996,9.0414069 L10.2507134,1.62946259 L10.2507134,1.62946259 Z" id="flag-highlight" fill="#7DC5B1"></path>
                <path d="M29.0914705,23.1560444 C29.7405923,20.4201039 31.9548184,18.857225 34.5549115,18.857225 C37.1586106,18.857225 39.3079248,20.4201039 40.0237618,23.1560444 L29.0914705,23.1560444 L29.0914705,23.1560444 Z M34.4918024,11.4344525 C24.9298793,11.4344525 18.0311581,18.1425598 18.0311581,27.5180287 C18.0311581,36.9620765 24.4718878,43.1486227 34.8163632,43.1486227 C40.7395987,43.1486227 46.5943158,40.9342434 49.4594668,36.1806371 L41.9765362,31.0372133 C40.0886739,33.8363187 37.8762507,34.942606 35.1427272,34.942606 C32.0864459,34.942606 29.2880101,33.1198488 28.9634493,29.7973775 L50.3033249,29.732408 C50.4349525,28.8192247 50.4349525,27.9746203 50.4349525,27.130016 C50.4349525,17.817712 44.5784322,11.4344525 34.4918024,11.4344525 L34.4918024,11.4344525 L34.4918024,11.4344525 Z" id="flag-e" fill="#FFFFFF"></path>
            </g>
        </g>
        <g id="flag-link" sketch:type="MSLayerGroup" transform="translate(522.038996, 325.716347) rotate(-5.000000) translate(-522.038996, -325.716347) translate(504.038996, 313.716347)">
            <g id="flag" transform="translate(0.363926, 0.364248)" sketch:type="MSShapeGroup">
                <path d="M34.1988732,18.7172465 L1.13686838e-13,22.1236936 C1.13686838e-13,22.1236936 2.12678473,16.1689677 2.12678473,11.066582 C2.12678473,5.96419638 1.13686838e-13,0.648361399 1.13686838e-13,0.648361399 L34.1988732,4.05335149 L24.844514,11.1729424 L34.1988732,18.7172465 L34.1988732,18.7172465 Z" id="flag-background" fill="#4FB79B"></path>
                <path d="M4.13784093,1.0614186 L24.0053003,19.7320414 L34.1988732,18.716518 L24.844514,11.1729424 L34.1988732,4.05335149 L4.13784093,1.0614186 L4.13784093,1.0614186 Z" id="flag-highlight" fill="#7DC5B1"></path>
                <path d="M11.7431707,9.75091834 C12.0051976,8.64651848 12.8990003,8.01564098 13.9485636,8.01564098 C14.9995824,8.01564098 15.8671825,8.64651848 16.1561399,9.75091834 L11.7431707,9.75091834 L11.7431707,9.75091834 Z M13.9230887,5.01933712 C10.0632874,5.01933712 7.27852406,7.72715658 7.27852406,11.5116931 C7.27852406,15.3239124 9.87841286,17.8211965 14.0541021,17.8211965 C16.4450973,17.8211965 18.808434,16.927332 19.9649915,15.0084736 L16.944404,12.9322602 C16.1823425,14.0621574 15.2892676,14.5087254 14.1858434,14.5087254 C12.9521336,14.5087254 11.8225067,13.7729445 11.6914932,12.4317835 L20.3056264,12.4055576 C20.3587596,12.0369386 20.3587596,11.6960025 20.3587596,11.3550664 C20.3587596,7.59602731 17.9946951,5.01933712 13.9230887,5.01933712 L13.9230887,5.01933712 L13.9230887,5.01933712 Z" id="flag-e" fill="#FFFFFF"></path>
            </g>
        </g>
        <g id="flag-link" sketch:type="MSLayerGroup" transform="translate(928.132902, 383.674615) rotate(-5.000000) translate(-928.132902, -383.674615) translate(903.132902, 367.174615)">
            <g id="flag" transform="translate(0.516063, 0.516519)" sketch:type="MSShapeGroup">
                <path d="M48.4954318,26.5418381 L0,31.3723225 C0,31.3723225 3.01586966,22.9282722 3.01586966,15.692876 C3.01586966,8.4574798 0,0.91940357 0,0.91940357 L48.4954318,5.74782187 L35.2305596,15.8436995 L48.4954318,26.5418381 L48.4954318,26.5418381 Z" id="flag-background" fill="#4FB79B"></path>
                <path d="M5.86763143,1.50513596 L34.0405193,27.9808596 L48.4954318,26.5408051 L35.2305596,15.8436995 L48.4954318,5.74782187 L5.86763143,1.50513596 L5.86763143,1.50513596 Z" id="flag-highlight" fill="#7DC5B1"></path>
                <path d="M16.6523071,13.8272099 C17.023872,12.2611247 18.2913218,11.366514 19.7796462,11.366514 C21.2700349,11.366514 22.5003281,12.2611247 22.9100817,13.8272099 L16.6523071,13.8272099 L16.6523071,13.8272099 Z M19.7435218,7.11762988 C14.2701622,7.11762988 10.3212514,10.9574311 10.3212514,16.324062 C10.3212514,21.7299484 14.0080024,25.2712017 19.9293043,25.2712017 C23.3198354,25.2712017 26.6711458,24.0036644 28.3111926,21.2826431 L24.0278733,18.3384856 C22.9472383,19.9407271 21.6808207,20.5739792 20.116119,20.5739792 C18.3666669,20.5739792 16.7648087,19.5306111 16.5790262,17.6287887 L28.7942272,17.5915993 C28.8695723,17.0688822 28.8695723,16.5854206 28.8695723,16.1019589 C28.8695723,10.7714843 25.5172298,7.11762988 19.7435218,7.11762988 L19.7435218,7.11762988 L19.7435218,7.11762988 Z" id="flag-e" fill="#FFFFFF"></path>
            </g>
        </g>
        <g id="flag-link" sketch:type="MSLayerGroup" transform="translate(618.282749, 1036.046121) rotate(-5.000000) translate(-618.282749, -1036.046121) translate(602.282749, 1025.546121)">
            <g id="flag" transform="translate(0.321731, 0.322015)" sketch:type="MSShapeGroup">
                <path d="M30.2336536,16.5470583 L1.77635684e-15,19.5585418 C1.77635684e-15,19.5585418 1.88019273,14.294242 1.88019273,9.78345708 C1.88019273,5.27267218 1.77635684e-15,0.573186545 1.77635684e-15,0.573186545 L30.2336536,3.58338195 L21.9638942,9.87748543 L30.2336536,16.5470583 L30.2336536,16.5470583 Z" id="flag-background" fill="#4FB79B"></path>
                <path d="M3.65807519,0.938351456 L21.2219838,17.4441918 L30.2336536,16.5464143 L21.9638942,9.87748543 L30.2336536,3.58338195 L3.65807519,0.938351456 L3.65807519,0.938351456 Z" id="flag-highlight" fill="#7DC5B1"></path>
                <path d="M10.3815981,8.62033921 C10.613244,7.64399 11.403414,7.08626017 12.3312846,7.08626017 C13.2604421,7.08626017 14.0274475,7.64399 14.2829014,8.62033921 L10.3815981,8.62033921 L10.3815981,8.62033921 Z M12.3087634,4.4373655 C8.89649033,4.4373655 6.43460894,6.83122436 6.43460894,10.1769593 C6.43460894,13.5471674 8.73305126,15.7549016 12.4245864,15.7549016 C14.5383555,15.7549016 16.627673,14.964677 17.6501323,13.2683025 L14.9797696,11.4328175 C14.3060661,12.4317077 13.5165395,12.826498 12.5410528,12.826498 C11.4503866,12.826498 10.4517354,12.1760279 10.3359124,10.990369 L17.9512721,10.9671839 C17.9982446,10.6413048 17.9982446,10.3398988 17.9982446,10.0384929 C17.9982446,6.71529899 15.9082837,4.4373655 12.3087634,4.4373655 L12.3087634,4.4373655 L12.3087634,4.4373655 Z" id="flag-e" fill="#FFFFFF"></path>
            </g>
        </g>
        <g id="flag-link-copy-6" sketch:type="MSLayerGroup" transform="translate(786.237020, 885.433096) rotate(-5.000000) translate(-786.237020, -885.433096) translate(763.237020, 870.433096)">
            <g id="flag" transform="translate(0.472307, 0.472725)" sketch:type="MSShapeGroup">
                <path d="M44.8512846,24.2914496 L0.467608792,28.7123743 C0.467608792,28.7123743 3.22777354,20.9842651 3.22777354,14.3623326 C3.22777354,7.74040002 0.467608792,0.841450594 0.467608792,0.841450594 L44.8512846,5.26048439 L32.7110939,14.5003683 L44.8512846,24.2914496 L44.8512846,24.2914496 Z" id="flag-background" fill="#4FB79B"></path>
                <path d="M5.83774451,1.3775208 L31.6219529,25.6084616 L44.8512846,24.2905041 L32.7110939,14.5003683 L44.8512846,5.26048439 L5.83774451,1.3775208 L5.83774451,1.3775208 Z" id="flag-highlight" fill="#7DC5B1"></path>
                <path d="M15.7080256,12.6548497 C16.048087,11.2215473 17.2080741,10.4027875 18.5702088,10.4027875 C19.9342327,10.4027875 21.0602136,11.2215473 21.4352257,12.6548497 L15.7080256,12.6548497 L15.7080256,12.6548497 Z M18.5371472,6.51415123 C13.5278544,6.51415123 9.91375782,10.0283893 9.91375782,14.9400026 C9.91375782,19.887543 13.2879223,23.1285459 18.7071779,23.1285459 C21.8102379,23.1285459 24.8774025,21.9684787 26.3783955,19.4781631 L22.4582437,16.7836303 C21.4692319,18.2500234 20.3101895,18.8295843 18.8781532,18.8295843 C17.277031,18.8295843 15.8109886,17.8746797 15.640958,16.1341061 L26.8204754,16.1000699 C26.8894323,15.6216721 26.8894323,15.1792015 26.8894323,14.7367308 C26.8894323,9.85820825 23.821323,6.51415123 18.5371472,6.51415123 L18.5371472,6.51415123 L18.5371472,6.51415123 Z" id="flag-e" fill="#FFFFFF"></path>
            </g>
        </g>
        <g id="flag-link" sketch:type="MSLayerGroup" transform="translate(1039.579021, 941.993273) rotate(-5.000000) translate(-1039.579021, -941.993273) translate(1017.079021, 926.993273)">
            <g id="flag" transform="translate(0.465564, 0.465976)" sketch:type="MSShapeGroup">
                <path d="M43.7500382,23.9446559 L0,28.3024659 C0,28.3024659 2.72075963,20.6846861 2.72075963,14.1572906 C2.72075963,7.62989523 0,0.829437738 0,0.829437738 L43.7500382,5.18538379 L31.7831653,14.2933557 L43.7500382,23.9446559 L43.7500382,23.9446559 Z" id="flag-background" fill="#4FB79B"></path>
                <path d="M5.2934697,1.35785481 L30.7095733,25.2428658 L43.7500382,23.943724 L31.7831653,14.2933557 L43.7500382,5.18538379 L5.2934697,1.35785481 L5.2934697,1.35785481 Z" id="flag-highlight" fill="#7DC5B1"></path>
                <path d="M15.0228391,12.4741844 C15.3580456,11.0613444 16.5014723,10.2542735 17.8441607,10.2542735 C19.1887113,10.2542735 20.2986173,11.0613444 20.6682757,12.4741844 L15.0228391,12.4741844 L15.0228391,12.4741844 Z M17.8115711,6.42115282 C12.8737928,6.42115282 9.31129234,9.88522032 9.31129234,14.7267136 C9.31129234,19.6036211 12.6372859,22.7983544 17.9791744,22.7983544 C21.0379339,22.7983544 24.0613105,21.6548486 25.5408749,19.2000857 L21.6766886,16.544021 C20.7017962,17.9894794 19.5593007,18.5607663 18.1477088,18.5607663 C16.5694447,18.5607663 15.1243322,17.6194942 14.9567289,15.9037697 L25.9766433,15.8702194 C26.0446158,15.3986514 26.0446158,14.9624976 26.0446158,14.5263438 C26.0446158,9.71746886 23.0203081,6.42115282 17.8115711,6.42115282 L17.8115711,6.42115282 L17.8115711,6.42115282 Z" id="flag-e" fill="#FFFFFF"></path>
            </g>
        </g>
        <g id="flag-link" sketch:type="MSLayerGroup" transform="translate(759.195627, 498.133860) rotate(-5.000000) translate(-759.195627, -498.133860) translate(730.195627, 479.633860)">
            <g id="flag" transform="translate(0.604486, 0.605020)" sketch:type="MSShapeGroup">
                <path d="M56.8046728,30.089535 L0,35.747678 C0,35.747678 3.53261086,25.8568182 3.53261086,17.3817042 C3.53261086,8.90659026 0,0.0769348146 0,0.0769348146 L56.8046728,5.73265765 L41.266988,17.5583699 L56.8046728,30.089535 L56.8046728,30.089535 Z" id="flag-background" fill="#F741CD"></path>
                <path d="M6.87299546,0.763026994 L39.8730454,31.7751195 L56.8046728,30.088325 L41.266988,17.5583699 L56.8046728,5.73265765 L6.87299546,0.763026994 L6.87299546,0.763026994 Z" id="flag-highlight" fill="#FF67DC"></path>
            </g>
        </g>
        <g id="flag-link" sketch:type="MSLayerGroup" transform="translate(979.583095, 439.816117) rotate(-5.000000) translate(-979.583095, -439.816117) translate(973.083095, 435.316117)">
            <g id="flag" transform="translate(0.121400, 0.121507)" sketch:type="MSShapeGroup">
                <path d="M11.4082102,6.24378121 L0,7.38011877 C0,7.38011877 0.70946218,5.39371517 0.70946218,3.69163898 C0.70946218,1.98956279 0,0.21628324 0,0.21628324 L11.4082102,1.35213477 L8.28774198,3.72711915 L11.4082102,6.24378121 L11.4082102,6.24378121 Z" id="flag-background" fill="#4FB79B"></path>
                <path d="M1.38031913,0.354072674 L8.00779334,6.58230093 L11.4082102,6.24353819 L8.28774198,3.72711915 L11.4082102,1.35213477 L1.38031913,0.354072674 L1.38031913,0.354072674 Z" id="flag-highlight" fill="#7DC5B1"></path>
                <path d="M3.9173384,3.25275411 C4.00474647,2.88434356 4.30290512,2.67389268 4.653023,2.67389268 C5.00362649,2.67389268 5.29304433,2.88434356 5.389436,3.25275411 L3.9173384,3.25275411 L3.9173384,3.25275411 Z M4.644525,1.6743725 C3.35695554,1.6743725 2.42800199,2.57765879 2.42800199,3.84012107 C2.42800199,5.11181792 3.2952843,5.94487291 4.68822903,5.94487291 C5.48582769,5.94487291 6.27419993,5.64669366 6.66000945,5.00659247 L5.65238862,4.31400008 C5.39817682,4.69091615 5.10026097,4.83988427 4.73217587,4.83988427 C4.32062953,4.83988427 3.94380362,4.59443924 3.90009959,4.14704886 L6.77363994,4.13830032 C6.79136435,4.0153348 6.79136435,3.90160383 6.79136435,3.78787287 C6.79136435,2.53391611 6.00274931,1.6743725 4.644525,1.6743725 L4.644525,1.6743725 L4.644525,1.6743725 Z" id="flag-e" fill="#FFFFFF"></path>
            </g>
        </g>
        <g id="flag-link-copy-5" sketch:type="MSLayerGroup" transform="translate(789.185072, 359.432947) rotate(-5.000000) translate(-789.185072, -359.432947) translate(769.685072, 346.432947)">
            <g id="flag" transform="translate(0.395799, 0.396149)" sketch:type="MSShapeGroup">
                <path d="M37.194058,20.356529 L8.2067686e-13,24.0613174 C8.2067686e-13,24.0613174 2.31305149,17.5850683 2.31305149,12.0358087 C2.31305149,6.48654898 8.2067686e-13,0.705145791 8.2067686e-13,0.705145791 L37.194058,4.40834964 L27.0204311,12.1514843 L37.194058,20.356529 L37.194058,20.356529 Z" id="flag-background" fill="#4FB79B"></path>
                <path d="M4.50023879,1.15437912 L26.1077178,21.460201 L37.194058,20.3557367 L27.0204311,12.1514843 L37.194058,4.40834964 L4.50023879,1.15437912 L4.50023879,1.15437912 Z" id="flag-highlight" fill="#7DC5B1"></path>
                <path d="M12.7716539,10.6049173 C13.0566295,9.40379257 14.0287127,8.71766195 15.1701981,8.71766195 C16.3132666,8.71766195 17.2568524,9.40379257 17.571117,10.6049173 L12.7716539,10.6049173 L12.7716539,10.6049173 Z M15.1424921,5.45893764 C10.944644,5.45893764 7.91598731,8.40391169 7.91598731,12.5199031 C7.91598731,16.6660019 10.743578,19.3820017 15.2849799,19.3820017 C17.8853817,19.3820017 20.4557028,18.4098512 21.7135532,16.3229366 L18.4284185,14.0648855 C17.5996146,15.2937407 16.628323,15.7794197 15.4282592,15.7794197 C14.0864994,15.7794197 12.8579382,14.9791981 12.7154504,13.5205763 L22.0840214,13.4920536 C22.1418081,13.0911504 22.1418081,12.7203547 22.1418081,12.3495589 C22.1418081,8.26129793 19.5706954,5.45893764 15.1424921,5.45893764 L15.1424921,5.45893764 L15.1424921,5.45893764 Z" id="flag-e" fill="#FFFFFF"></path>
            </g>
        </g>
        <g id="flag-link" sketch:type="MSLayerGroup" transform="translate(850.821259, 811.030065) rotate(-5.000000) translate(-850.821259, -811.030065) translate(836.321259, 801.530065)">
            <g id="flag" transform="translate(0.292241, 0.292499)" sketch:type="MSShapeGroup">
                <path d="M27.4624695,15.0303728 L5.89750471e-13,17.7658269 C5.89750471e-13,17.7658269 1.70785629,12.9840472 1.70785629,8.88671594 C1.70785629,4.78938473 5.89750471e-13,0.520648883 5.89750471e-13,0.520648883 L27.4624695,3.25493302 L19.9507073,8.97212576 L27.4624695,15.0303728 L27.4624695,15.0303728 Z" id="flag-background" fill="#4FB79B"></path>
                <path d="M3.32277996,0.852343172 L19.2767996,15.845276 L27.4624695,15.0297878 L19.9507073,8.97212576 L27.4624695,3.25493302 L3.32277996,0.852343172 L3.32277996,0.852343172 Z" id="flag-highlight" fill="#7DC5B1"></path>
                <path d="M9.43003198,7.83020821 C9.64044549,6.94335011 10.3581894,6.4367412 11.2010124,6.4367412 C12.0450042,6.4367412 12.7417068,6.94335011 12.9737462,7.83020821 L9.43003198,7.83020821 L9.43003198,7.83020821 Z M11.1805555,4.03064136 C8.0810476,4.03064136 5.84481962,6.20508169 5.84481962,9.24415018 C5.84481962,12.3054486 7.93258919,14.3108243 11.2857622,14.3108243 C13.2057855,14.3108243 15.1035984,13.5930308 16.0323402,12.0521442 L13.6067401,10.3848977 C12.9947875,11.2922308 12.277628,11.650835 11.3915534,11.650835 C10.4008565,11.650835 9.49374051,11.0599863 9.38853376,9.98300359 L16.3058778,9.96194364 C16.348545,9.66593427 16.348545,9.39215486 16.348545,9.11837545 C16.348545,6.09978192 14.4501476,4.03064136 11.1805555,4.03064136 L11.1805555,4.03064136 L11.1805555,4.03064136 Z" id="flag-e" fill="#FFFFFF"></path>
            </g>
        </g>
        <g id="flag-link" sketch:type="MSLayerGroup" transform="translate(610.675479, 269.574392) rotate(-5.000000) translate(-610.675479, -269.574392) translate(595.175479, 259.574392)">
            <g id="flag" transform="translate(0.309809, 0.310083)" sketch:type="MSShapeGroup">
                <path d="M29.1133372,15.9339025 L0,18.8337946 C0,18.8337946 1.81052167,13.7645649 1.81052167,9.42092836 C1.81052167,5.07729185 0,0.551946958 0,0.551946958 L29.1133372,3.45059873 L21.150016,9.51147247 L29.1133372,15.9339025 L29.1133372,15.9339025 Z" id="flag-background" fill="#4FB79B"></path>
                <path d="M3.52252419,0.903580582 L20.4355973,16.7977925 L29.1133372,15.9332823 L21.150016,9.51147247 L29.1133372,3.45059873 L3.52252419,0.903580582 L3.52252419,0.903580582 Z" id="flag-highlight" fill="#7DC5B1"></path>
                <path d="M9.9969051,8.30091015 C10.2199673,7.36073982 10.9808573,6.82367683 11.8743454,6.82367683 C12.7690727,6.82367683 13.5076565,7.36073982 13.7536446,8.30091015 L9.9969051,8.30091015 L9.9969051,8.30091015 Z M11.8526588,4.27293769 C8.56682841,4.27293769 6.19617272,6.57809144 6.19617272,9.79984925 C6.19617272,13.0451733 8.40944562,15.1710994 11.9641899,15.1710994 C13.9996327,15.1710994 16.0115299,14.4101568 16.9961018,12.7766418 L14.4246901,11.0091712 C13.7759508,11.9710473 13.0156804,12.3512086 12.0763406,12.3512086 C11.0260893,12.3512086 10.0644434,11.7248418 9.95291224,10.5831178 L17.2860827,10.5607919 C17.3313147,10.2469883 17.3313147,9.95675102 17.3313147,9.66651375 C17.3313147,6.46646172 15.3187978,4.27293769 11.8526588,4.27293769 L11.8526588,4.27293769 L11.8526588,4.27293769 Z" id="flag-e" fill="#FFFFFF"></path>
            </g>
        </g>
        <g id="flag-link" sketch:type="MSLayerGroup" transform="translate(1040.886125, 597.458125) rotate(-5.000000) translate(-1040.886125, -597.458125) translate(1035.886125, 593.958125)">
            <g id="flag" transform="translate(0.881967, 0.812151)" sketch:type="MSShapeGroup">
                <path d="M8.35294501,4.57161645 L2.49933407e-12,5.40362822 C2.49933407e-12,5.40362822 0.519459101,3.94920901 0.519459101,2.70297067 C0.519459101,1.45673233 2.49933407e-12,0.158359812 2.49933407e-12,0.158359812 L8.35294501,0.990015721 L6.06817829,2.7289488 L8.35294501,4.57161645 L8.35294501,4.57161645 Z" id="flag-background" fill="#4FB79B"></path>
                <path d="M1.01065195,0.259247467 L5.86320349,4.81947624 L8.35294501,4.57143852 L6.06817829,2.7289488 L8.35294501,0.990015721 L1.01065195,0.259247467 L1.01065195,0.259247467 Z" id="flag-highlight" fill="#7DC5B1"></path>
                <path d="M2.86822489,2.4439753 C2.93222396,2.13454748 3.15053189,1.9577899 3.40688371,1.9577899 C3.66359109,1.9577899 3.87549911,2.13454748 3.94607587,2.4439753 L2.86822489,2.4439753 L2.86822489,2.4439753 Z M3.40066159,1.22595405 C2.45791975,1.22595405 1.77775189,1.88732868 1.77775189,2.81168735 C1.77775189,3.74280746 2.41276486,4.35275963 3.43266111,4.35275963 C4.01665261,4.35275963 4.59388865,4.13443661 4.87637342,3.66576274 L4.13860638,3.15865548 C3.95247577,3.43462859 3.73434561,3.54370113 3.46483842,3.54370113 C3.16350948,3.54370113 2.88760239,3.36398944 2.85560285,3.03641594 L4.95957221,3.03001037 C4.97254979,2.93997659 4.97254979,2.85670424 4.97254979,2.77343189 C4.97254979,1.85530085 4.39513599,1.22595405 3.40066159,1.22595405 L3.40066159,1.22595405 L3.40066159,1.22595405 Z" id="flag-e" fill="#FFFFFF"></path>
            </g>
        </g>
        <g id="flag-link" sketch:type="MSLayerGroup" transform="translate(728.386194, 969.219117) rotate(-5.000000) translate(-728.386194, -969.219117) translate(717.886194, 962.219117)">
            <g id="flag" transform="translate(0.789433, 0.843771)" sketch:type="MSShapeGroup">
                <path d="M19.028186,10.4142393 L3.40882877e-12,12.3095797 C3.40882877e-12,12.3095797 1.18333885,8.99638192 1.18333885,6.15742454 C1.18333885,3.31846717 3.40882877e-12,0.360747011 3.40882877e-12,0.360747011 L19.028186,2.25527682 L13.8234389,6.21660327 L19.028186,10.4142393 L19.028186,10.4142393 Z" id="flag-background" fill="#4FB79B"></path>
                <path d="M2.30228658,0.59057123 L13.3565019,10.9788691 L19.028186,10.4138339 L13.8234389,6.21660327 L19.028186,2.25527682 L2.30228658,0.59057123 L2.30228658,0.59057123 Z" id="flag-highlight" fill="#7DC5B1"></path>
                <path d="M6.53387716,5.42539184 C6.6796684,4.81090592 7.1769785,4.45988692 7.76095338,4.45988692 C8.34573822,4.45988692 8.8284692,4.81090592 8.98924454,5.42539184 L6.53387716,5.42539184 L6.53387716,5.42539184 Z M7.74677923,2.79274933 C5.59919335,2.79274933 4.04975651,4.29937477 4.04975651,6.40508345 C4.04975651,8.5261948 5.49632954,9.9156788 7.81967485,9.9156788 C9.15001987,9.9156788 10.4649758,9.41833432 11.1084821,8.3506853 L9.42783316,7.1954842 C9.00382366,7.8241568 8.50691853,8.07262637 7.89297545,8.07262637 C7.20654172,8.07262637 6.57801951,7.66323931 6.50512389,6.91701993 L11.2980107,6.90242792 C11.327574,6.69732906 11.327574,6.50763288 11.327574,6.3179367 C11.327574,4.2264147 10.0122131,2.79274933 7.74677923,2.79274933 L7.74677923,2.79274933 L7.74677923,2.79274933 Z" id="flag-e" fill="#FFFFFF"></path>
            </g>
        </g>
        <path d="M187.106571,510.49306 L187.106571,509.920547 L196.870148,500.997236 C198.619053,499.365236 199.825517,498.012934 200.489575,496.940289 C201.153633,495.867643 201.485658,494.831207 201.485658,493.830949 C201.485658,492.870175 201.216093,492.113412 200.676957,491.560638 C200.13782,491.007864 199.408025,490.731481 198.487548,490.731481 C197.475025,490.731481 196.712356,491.08354 196.199518,491.787669 C195.686682,492.491798 195.509164,493.455848 195.66696,494.679848 L187.856098,494.679848 C187.658854,491.692235 188.599041,489.247562 190.676688,487.345756 C192.754335,485.443949 195.522297,484.49306 198.980658,484.49306 C202.136578,484.49306 204.661276,485.295887 206.554827,486.901564 C208.448379,488.507242 209.395141,490.685403 209.395141,493.436112 C209.395141,495.14708 209.03353,496.683638 208.310298,498.045831 C207.587067,499.408025 206.278696,500.931422 204.385144,502.616067 L202.925538,503.859803 L210.046046,503.859803 L210.046046,510.49306 L187.106571,510.49306 L187.106571,510.49306 Z" id="2" fill="#FFFFFF" sketch:type="MSShapeGroup" transform="translate(198.576309, 497.493060) rotate(-5.000000) translate(-198.576309, -497.493060) "></path>
        <path d="M302.372192,527.471055 C302.372192,521.000384 304.269487,515.757921 308.064134,511.743508 C311.858781,507.729096 316.847965,505.721919 323.031834,505.721919 C329.431924,505.721919 334.431918,507.658763 338.031968,511.532509 C341.632018,515.406255 343.432015,520.71905 343.432015,527.471055 C343.432015,534.006648 341.561747,539.249111 337.821155,543.198601 C334.080562,547.14809 329.085973,549.122805 322.837238,549.122805 C316.393905,549.122805 311.37229,547.196782 307.77224,543.344677 C304.17219,539.492572 302.372192,534.201418 302.372192,527.471055 L302.372192,527.471055 L302.372192,527.471055 Z M315.604742,527.471055 C315.604742,530.782133 316.237174,533.41689 317.502056,535.375404 C318.766938,537.333918 320.566937,538.313161 322.902104,538.313161 C325.323759,538.313161 327.15619,537.355559 328.399449,535.440327 C329.64271,533.525095 330.264332,530.868698 330.264332,527.471055 C330.264332,524.224899 329.604873,521.595552 328.285935,519.582935 C326.966998,517.570319 325.172406,516.564026 322.902104,516.564026 C320.458826,516.564026 318.631802,517.516217 317.420974,519.420628 C316.210147,521.32504 315.604742,524.008488 315.604742,527.471055 L315.604742,527.471055 L315.604742,527.471055 Z" id="0" fill="#FFFFFF" sketch:type="MSShapeGroup" transform="translate(322.902104, 527.422362) rotate(-5.000000) translate(-322.902104, -527.422362) "></path>
        <path d="M748.360622,493.781804 L748.360622,488.362003 L758.40563,488.362003 L758.40563,509.143253 L752.045394,509.143253 L752.045394,493.781804 L748.360622,493.781804 L748.360622,493.781804 Z" id="1" fill="#FFFFFF" sketch:type="MSShapeGroup" transform="translate(753.383126, 498.752628) rotate(-5.000000) translate(-753.383126, -498.752628) "></path>
        <path d="M873.00246,550.566737 L875.378729,540.399213 C879.359,543.15417 883.131284,544.531628 886.695703,544.531628 C888.695734,544.531628 890.309607,543.971726 891.537352,542.851905 C892.765096,541.732084 893.378953,540.240664 893.378953,538.3776 C893.378953,536.296517 892.576973,534.691135 890.972981,533.561404 C889.368999,532.431674 887.032355,531.866817 883.962999,531.866817 C881.289682,531.866817 878.755024,532.273117 876.358942,533.08573 L875.735174,532.491138 L880.250082,510.877717 L902.527584,510.877717 L902.527584,520.837134 L887.616508,520.837134 L886.75511,525.058738 C888.656129,524.76144 890.161089,524.612794 891.270018,524.612794 C893.250247,524.612794 895.052234,524.870447 896.676028,525.385763 C898.299813,525.901079 899.75032,526.688905 901.027561,527.749267 C902.304811,528.809628 903.299872,530.226725 904.012751,532.0006 C904.725631,533.774475 905.082076,535.840662 905.082076,538.199222 C905.082076,539.804629 904.859303,541.375327 904.413747,542.911364 C903.968191,544.447402 903.265222,545.909092 902.304811,547.296481 C901.344401,548.683869 900.190931,549.902771 898.844371,550.953222 C897.497812,552.003673 895.844344,552.841049 893.883907,553.465373 C891.92348,554.089698 889.794763,554.401856 887.497694,554.401856 C882.111466,554.401856 877.279768,553.123496 873.00246,550.566737 L873.00246,550.566737 L873.00246,550.566737 Z" id="5" fill="#FFFFFF" sketch:type="MSShapeGroup" transform="translate(889.042268, 532.639786) rotate(-5.000000) translate(-889.042268, -532.639786) "></path>
        <path d="M385.421369,786.40772 C394.563167,786.40772 403.604507,782.957268 408.024717,775.548946 L396.471894,767.53172 C393.558574,771.895526 390.142957,773.620752 385.923665,773.620752 C381.202077,773.620752 376.882326,770.779204 376.380029,765.603526 L409.330688,765.502042 C409.531606,764.081268 409.531606,762.761978 409.531606,761.442688 C409.531606,746.930494 400.490267,736.985075 384.919072,736.985075 C370.151551,736.985075 359.502863,747.437913 359.502863,762.051591 C359.502863,776.766752 369.448336,786.40772 385.421369,786.40772 L385.421369,786.40772 L385.421369,786.40772 Z M385.019531,748.554236 C389.037904,748.554236 392.353062,750.989849 393.458115,755.252171 L376.580948,755.252171 C377.585541,750.989849 381.001158,748.554236 385.019531,748.554236 L385.019531,748.554236 L385.019531,748.554236 Z M465.66521,737.89843 L447.381613,737.89843 L447.381613,762.356042 C447.381613,768.749526 444.267374,772.199978 439.244408,772.199978 C434.824197,772.199978 432.111795,769.561397 432.111795,764.38572 L432.111795,737.89843 L413.727739,737.89843 L413.727739,768.242107 C413.727739,779.6083 421.06127,786.40772 431.40858,786.40772 C437.335681,786.40772 443.463699,784.073591 447.88391,779.303849 L448.386206,785.392881 L465.66521,785.392881 L465.66521,737.89843 L465.66521,737.89843 Z M474.78385,737.89843 L474.78385,785.392881 L493.167906,785.392881 L493.167906,764.081268 C493.167906,756.26701 497.588116,753.323978 504.720729,753.323978 C507.232212,753.323978 509.844155,753.729913 512.355637,754.237333 L512.456096,737.492494 C510.949206,737.086559 509.341858,736.883591 507.834968,736.883591 C502.410164,736.883591 497.286738,739.522171 492.766068,745.205268 L492.163312,737.89843 L474.78385,737.89843 L474.78385,737.89843 Z M567.585108,737.89843 L549.301511,737.89843 L549.301511,762.356042 C549.301511,768.749526 546.187272,772.199978 541.164306,772.199978 C536.744095,772.199978 534.031694,769.561397 534.031694,764.38572 L534.031694,737.89843 L515.647637,737.89843 L515.647637,768.242107 C515.647637,779.6083 522.981168,786.40772 533.328478,786.40772 C539.255579,786.40772 545.383597,784.073591 549.803808,779.303849 L550.306104,785.392881 L567.585108,785.392881 L567.585108,737.89843 L567.585108,737.89843 Z M620.905856,747.437913 C615.782426,740.232559 608.951191,736.883591 599.407555,736.883591 C584.338656,736.883591 573.288131,746.82901 573.288131,761.848623 C573.288131,776.259333 583.93682,786.40772 599.005718,786.40772 C608.951191,786.40772 615.983348,782.7543 621.910447,775.14301 L609.353028,766.21243 C607.243383,769.764365 603.928225,771.895526 599.909852,771.895526 C594.28413,771.895526 590.567134,767.836171 590.567134,761.645655 C590.567134,755.556623 594.183671,751.497268 599.508015,751.497268 C602.622254,751.497268 605.937411,753.019526 608.247975,756.77443 L620.905856,747.437913 L620.905856,747.437913 Z M655.440701,785.392881 L669.605467,785.392881 L669.605467,755.658107 C669.605467,743.277075 661.769635,736.883591 647.805792,736.883591 C641.577309,736.883591 633.641026,738.405849 627.613465,740.739978 L632.234599,751.2943 C636.052054,749.97501 640.572717,748.858688 644.591094,748.858688 C649.714514,748.858688 653.732891,750.685397 653.933813,756.165526 C650.417732,754.643268 646.399365,753.831397 642.380988,753.831397 C631.029085,753.831397 623.494637,760.833784 623.494637,770.271784 C623.494637,780.014236 629.72311,786.40772 642.380988,786.40772 C646.600277,786.40772 651.020489,785.291397 654.737483,782.348365 L655.440701,785.392881 L655.440701,785.392881 Z M646.198443,774.432623 C641.476857,774.432623 638.965368,773.011849 638.965368,770.068817 C638.965368,767.227268 641.376396,765.502042 645.796608,765.502042 C648.308087,765.502042 651.221412,766.313913 653.63243,767.53172 L653.63243,772.808881 C651.221412,773.925204 648.50901,774.432623 646.198443,774.432623 L646.198443,774.432623 L646.198443,774.432623 Z M677.217217,785.392881 L695.601272,785.392881 L695.601272,760.935268 C695.601272,754.541784 698.615047,751.091333 703.638016,751.091333 C708.058228,751.091333 710.77063,753.729913 710.77063,758.905591 L710.77063,785.392881 L729.154685,785.392881 L729.154685,760.935268 C729.154685,754.541784 732.16846,751.091333 737.29189,751.091333 C741.712102,751.091333 744.424504,753.729913 744.424504,758.905591 L744.424504,785.392881 L762.808559,785.392881 L762.808559,755.150688 C762.808559,743.581526 755.575484,736.883591 744.223581,736.883591 C737.29189,736.883591 730.661573,739.928107 726.542744,744.799333 C723.528959,739.725139 718.104156,736.883591 711.473848,736.883591 C705.6472,736.883591 699.418727,739.319204 695.098976,744.088946 L694.59668,737.89843 L677.217217,737.89843 L677.217217,785.392881 L677.217217,785.392881 Z M801.462243,736.883591 C796.338813,736.883591 791.315844,738.7103 787.197016,742.566688 L786.594258,737.89843 L770.420309,737.89843 L770.420309,807.414881 L788.302068,807.414881 L788.302068,797.266494 C788.302068,792.69972 788.201607,787.625526 788.101146,783.363204 C791.717688,785.494365 796.037439,786.40772 800.859486,786.40772 C813.919198,786.40772 824.869267,776.157849 824.869267,761.950107 C824.869267,747.234946 815.225164,736.883591 801.462243,736.883591 L801.462243,736.883591 L801.462243,736.883591 Z M797.343404,751.091333 C804.275106,751.091333 807.590254,756.26701 807.590254,761.645655 C807.590254,767.0243 804.275106,772.199978 797.343404,772.199978 C793.927794,772.199978 790.411713,770.67772 788.302068,768.140623 L788.302068,754.541784 C790.713097,752.309139 794.028246,751.091333 797.343404,751.091333 L797.343404,751.091333 L797.343404,751.091333 Z" id="eurucamp-copy" fill="#DEFDF5" sketch:type="MSShapeGroup"></path>
    </g>
</svg>