<?xml version="1.0" encoding="UTF-8" standalone="no"?>
<svg width="397px" height="44px" viewBox="0 0 397 44" version="1.1" xmlns="http://www.w3.org/2000/svg" xmlns:xlink="http://www.w3.org/1999/xlink" xmlns:sketch="http://www.bohemiancoding.com/sketch/ns">
    <!-- Generator: Sketch 3.0.4 (8053) - http://www.bohemiancoding.com/sketch -->
    <title>jrubyconf</title>
    <desc>Created with Sketch.</desc>
    <defs></defs>
    <g id="Page-1" stroke="none" stroke-width="1" fill="none" fill-rule="evenodd" sketch:type="MSPage">
        <g id="jrubyconf" sketch:type="MSLayerGroup" fill="#E01B1E">
            <path d="M13.898,0.92 L25.852,0.92 L25.852,28.304 C25.852,37.843 20.023,43.023 12.189,43.023 C7.303,43.023 3.061,41.202 0,37.492 L5.831,29.891 C7.773,32.601 9.658,33.72 11.011,33.72 C12.779,33.72 13.898,32.601 13.898,30.244 L13.898,0.92 L13.898,0.92 Z" id="Shape" sketch:type="MSShapeGroup"></path>
            <path d="M42.715,27.419 L39.654,27.419 L39.654,42.143 L28.7,42.143 L28.7,0.92 L44.717,0.92 C53.786,0.92 59.558,6.632 59.558,14.17 C59.558,18.942 57.086,23.003 52.963,25.298 C53.376,25.89 53.906,26.83 54.552,28.305 L60.207,42.143 L48.194,42.143 L42.715,27.419 L42.715,27.419 Z M39.654,9.46 L39.654,19.056 L43.541,19.056 C46.545,19.056 48.604,17.233 48.604,14.287 C48.604,11.345 46.545,9.46 43.484,9.46 L39.654,9.46 L39.654,9.46 Z" id="Shape" sketch:type="MSShapeGroup"></path>
            <path d="M98.013,25.89 C98.013,35.842 91.888,43.024 79.524,43.024 C67.217,43.024 61.565,35.723 61.565,25.771 L61.565,0.921 L73.282,0.921 L73.282,25.358 C73.282,30.657 75.52,32.955 79.758,32.955 C84.06,32.955 86.295,30.54 86.295,25.184 L86.295,0.921 L98.013,0.921 L98.013,25.89 L98.013,25.89 Z" id="Shape" sketch:type="MSShapeGroup"></path>
            <path d="M126.111,19.588 C130.291,21.59 132.706,25.771 132.706,30.011 C132.706,35.959 127.877,42.143 116.512,42.143 L100.788,42.143 L100.788,0.92 L117.042,0.92 C127.054,0.92 131.351,6.043 131.351,11.052 C131.351,14.406 129.468,17.761 126.111,19.588 L126.111,19.588 Z M111.74,8.931 L111.74,16.938 L114.863,16.938 C118.514,16.938 120.046,15.289 120.046,12.875 C120.046,10.457 118.631,8.931 114.981,8.931 L111.74,8.931 L111.74,8.931 Z M111.74,24.771 L111.74,33.072 L115.923,33.072 C119.22,33.072 121.046,31.6 121.046,28.892 C121.046,26.246 119.337,24.771 116.1,24.771 L111.74,24.771 L111.74,24.771 Z" id="Shape" sketch:type="MSShapeGroup"></path>
            <path d="M144.078,22.296 L129.709,1.627 L129.709,0.921 L142.842,0.921 L148.435,9.343 L149.964,11.932 L151.615,9.343 L157.208,0.921 L169.811,0.921 L169.811,1.627 L156.032,22.063 L156.032,42.143 L144.078,42.143 L144.078,22.296 Z" id="Shape" sketch:type="MSShapeGroup"></path>
            <path d="M196.828,14.11 C194.12,11.459 191.412,10.226 187.699,10.226 C181.164,10.226 176.807,14.819 176.807,21.531 C176.807,28.244 181.164,32.838 187.699,32.838 C191.705,32.838 194.826,31.483 197.654,28.185 L204.835,35.842 C200.535,40.787 194.648,43.024 186.876,43.024 C172.98,43.024 164.677,33.131 164.677,21.59 C164.677,9.756 173.097,0.038 187.699,0.038 C195.356,0.038 200.185,2.216 204.248,6.573 L196.828,14.11 L196.828,14.11 Z" id="Shape" sketch:type="MSShapeGroup"></path>
            <path d="M202.888,21.648 C202.888,9.813 211.308,0.038 226.443,0.038 C241.636,0.038 249.941,9.932 249.941,21.414 C249.941,33.25 241.517,43.024 226.443,43.024 C211.191,43.024 202.888,33.132 202.888,21.648 M237.864,21.531 C237.864,14.876 233.45,10.226 226.442,10.226 C219.377,10.226 215.017,14.876 215.017,21.531 C215.017,28.185 219.376,32.839 226.442,32.839 C233.45,32.838 237.864,28.185 237.864,21.531" id="Shape" sketch:type="MSShapeGroup"></path>
            <path d="M266.057,24.182 C265.287,23.594 264.584,22.946 263.878,22.296 C263.936,24.771 263.994,27.242 263.994,28.479 L263.994,42.144 L252.869,42.144 L252.869,0.038 L253.689,0.038 L277.01,18.117 L279.421,20.236 L279.421,17.234 L279.421,0.921 L290.493,0.921 L290.493,43.024 L289.786,43.024 L266.057,24.182 L266.057,24.182 Z" id="Shape" sketch:type="MSShapeGroup"></path>
            <path d="M293.855,0.863 L318.527,0.863 L318.527,10.227 L305.57,10.227 L305.57,16.467 L315.115,16.467 L315.115,25.831 L305.57,25.831 L305.57,42.143 L293.855,42.143 L293.855,0.863 Z" id="Shape" sketch:type="MSShapeGroup"></path>
            <path d="M322.354,21.59 C322.354,10.664 329.343,0 342.977,0 C352.505,0 361.948,6.381 361.948,18.969 C361.948,20.019 361.859,20.715 361.859,20.715 L326.635,20.715 L326.635,21.59 C326.635,33.912 334.675,39.243 342.892,39.243 C348.922,39.243 354.428,36.625 357.226,31.728 L360.721,33.65 C357.574,39.421 350.757,43.004 342.892,43.004 C329.083,43.004 322.354,32.776 322.354,21.59 M326.987,17.047 L357.574,17.047 C356.527,7.955 349.798,3.586 342.892,3.586 C335.641,3.586 328.559,8.216 326.987,17.047" id="Shape" sketch:type="MSShapeGroup"></path>
            <path d="M396.851,42.128 L393.181,42.128 L392.916,36.186 C389.944,40.467 384.874,43.003 379.278,43.003 C371.592,43.003 366.17,38.109 366.17,29.542 L366.17,1.05 L370.276,1.05 L370.276,28.842 C370.276,35.574 374.3,39.244 379.719,39.244 C386.621,39.244 392.828,33.826 392.828,26.137 L392.828,1.05 L396.849,1.05 L396.849,42.128 L396.851,42.128 Z" id="Shape" sketch:type="MSShapeGroup"></path>
            <path d="M317.912,43.024 C316.269,43.024 315.128,41.954 315.128,40.311 C315.128,38.744 316.27,37.601 317.912,37.601 C319.554,37.601 320.695,38.744 320.695,40.311 C320.695,41.954 319.554,43.024 317.912,43.024" id="Shape" sketch:type="MSShapeGroup"></path>
        </g>
    </g>
</svg>