<?xml version="1.0" encoding="UTF-8" standalone="no"?>
<svg width="288px" height="74px" viewBox="0 0 288 74" version="1.1" xmlns="http://www.w3.org/2000/svg" xmlns:xlink="http://www.w3.org/1999/xlink" xmlns:sketch="http://www.bohemiancoding.com/sketch/ns">
    <!-- Generator: Sketch 3.0.4 (8053) - http://www.bohemiancoding.com/sketch -->
    <title>lightning-io</title>
    <desc>Created with Sketch.</desc>
    <defs></defs>
    <g id="Page-1" stroke="none" stroke-width="1" fill="none" fill-rule="evenodd" sketch:type="MSPage">
        <g id="lightning-io" sketch:type="MSLayerGroup">
            <rect id="Rectangle-1" fill="#FFFF00" sketch:type="MSShapeGroup" x="0" y="0" width="288" height="74"></rect>
            <path d="M11.016,18.872 L11.016,56 L18.4,56 L18.4,18.872 L11.016,18.872 Z M31.816,24.956 L31.816,18.872 L24.432,18.872 L24.432,24.956 L31.816,24.956 Z M24.432,29.116 L24.432,56 L31.816,56 L31.816,29.116 L24.432,29.116 Z M63.484,54.284 L63.484,29.116 L56.464,29.116 L56.464,32.704 L56.36,32.704 C55.4586622,31.1439922 54.3406733,30.03467 53.006,29.376 C51.6713267,28.71733 50.1200088,28.388 48.352,28.388 C46.4799906,28.388 44.8246739,28.7519964 43.386,29.48 C41.9473261,30.2080036 40.7426715,31.1873272 39.772,32.418 C38.8013285,33.6486728 38.0646692,35.0699919 37.562,36.682 C37.0593308,38.2940081 36.808,39.966658 36.808,41.7 C36.808,43.5373425 37.0246645,45.2793251 37.458,46.926 C37.8913355,48.5726749 38.5759953,50.0113272 39.512,51.242 C40.4480047,52.4726728 41.6439927,53.4433298 43.1,54.154 C44.5560073,54.8646702 46.2893233,55.22 48.3,55.22 C49.9293415,55.22 51.4806593,54.8820034 52.954,54.206 C54.4273407,53.5299966 55.5626627,52.4813404 56.36,51.06 L56.464,51.06 L56.464,54.596 C56.4986668,56.5026762 56.0393381,58.0799938 55.086,59.328 C54.1326619,60.5760062 52.6160104,61.2 50.536,61.2 C49.2186601,61.2 48.0573384,60.931336 47.052,60.394 C46.0466616,59.856664 45.3706684,58.8946736 45.024,57.508 L37.692,57.508 C37.7960005,59.033341 38.2206629,60.3419945 38.966,61.434 C39.7113371,62.5260055 40.6473277,63.4186632 41.774,64.112 C42.9006723,64.8053368 44.1486598,65.316665 45.518,65.646 C46.8873402,65.975335 48.2306601,66.14 49.548,66.14 C52.6333488,66.14 55.0946575,65.7240042 56.932,64.892 C58.7693425,64.0599958 60.1733285,63.046006 61.144,61.85 C62.1146715,60.653994 62.7473319,59.3626736 63.042,57.976 C63.3366681,56.5893264 63.484,55.358672 63.484,54.284 Z M50.172,49.656 C49.0279943,49.656 48.0746705,49.4133358 47.312,48.928 C46.5493295,48.4426642 45.9340023,47.8186705 45.466,47.056 C44.9979977,46.2933295 44.6686676,45.4353381 44.478,44.482 C44.2873324,43.5286619 44.192,42.5666715 44.192,41.596 C44.192,40.5906616 44.3046655,39.6286713 44.53,38.71 C44.7553345,37.7913287 45.1193308,36.9766702 45.622,36.266 C46.1246692,35.5553298 46.7486629,34.9920021 47.494,34.576 C48.2393371,34.1599979 49.1319948,33.952 50.172,33.952 C51.3853394,33.952 52.3906627,34.1773311 53.188,34.628 C53.9853373,35.0786689 54.6266642,35.6853295 55.112,36.448 C55.5973358,37.2106705 55.943999,38.0859951 56.152,39.074 C56.360001,40.0620049 56.464,41.1106611 56.464,42.22 C56.464,43.1906715 56.3340013,44.1179956 56.074,45.002 C55.8139987,45.8860044 55.4240026,46.6746632 54.904,47.368 C54.3839974,48.0613368 53.7253373,48.6159979 52.928,49.032 C52.1306627,49.4480021 51.2120052,49.656 50.172,49.656 Z M69.412,18.872 L69.412,56 L76.796,56 L76.796,41.908 C76.796,39.1693196 77.2466622,37.202006 78.148,36.006 C79.0493378,34.809994 80.5053233,34.212 82.516,34.212 C84.2840088,34.212 85.5146632,34.7579945 86.208,35.85 C86.9013368,36.9420055 87.248,38.5973222 87.248,40.816 L87.248,56 L94.632,56 L94.632,39.464 C94.632,37.7999917 94.4846681,36.2833402 94.19,34.914 C93.8953319,33.5446598 93.3840036,32.3833381 92.656,31.43 C91.9279964,30.4766619 90.9313397,29.731336 89.666,29.194 C88.4006603,28.656664 86.7800099,28.388 84.804,28.388 C83.4173264,28.388 81.9960073,28.7433298 80.54,29.454 C79.0839927,30.1646702 77.8880047,31.2999922 76.952,32.86 L76.796,32.86 L76.796,18.872 L69.412,18.872 Z M109.608,29.116 L109.608,21.056 L102.224,21.056 L102.224,29.116 L97.752,29.116 L97.752,34.056 L102.224,34.056 L102.224,49.916 C102.224,51.2680068 102.449331,52.3599958 102.9,53.192 C103.350669,54.0240042 103.965996,54.6653311 104.746,55.116 C105.526004,55.5666689 106.427328,55.8699992 107.45,56.026 C108.472672,56.1820008 109.555994,56.26 110.7,56.26 C111.428004,56.26 112.17333,56.2426668 112.936,56.208 C113.69867,56.1733332 114.391997,56.1040005 115.016,56 L115.016,50.28 C114.669332,50.3493337 114.305335,50.4013332 113.924,50.436 C113.542665,50.4706668 113.144002,50.488 112.728,50.488 C111.479994,50.488 110.648002,50.2800021 110.232,49.864 C109.815998,49.4479979 109.608,48.6160062 109.608,47.368 L109.608,34.056 L115.016,34.056 L115.016,29.116 L109.608,29.116 Z M118.552,29.116 L118.552,56 L125.936,56 L125.936,41.908 C125.936,39.1693196 126.386662,37.202006 127.288,36.006 C128.189338,34.809994 129.645323,34.212 131.656,34.212 C133.424009,34.212 134.654663,34.7579945 135.348,35.85 C136.041337,36.9420055 136.388,38.5973222 136.388,40.816 L136.388,56 L143.772,56 L143.772,39.464 C143.772,37.7999917 143.624668,36.2833402 143.33,34.914 C143.035332,33.5446598 142.524004,32.3833381 141.796,31.43 C141.067996,30.4766619 140.07134,29.731336 138.806,29.194 C137.54066,28.656664 135.92001,28.388 133.944,28.388 C132.383992,28.388 130.858674,28.7433298 129.368,29.454 C127.877326,30.1646702 126.664005,31.2999922 125.728,32.86 L125.572,32.86 L125.572,29.116 L118.552,29.116 Z M156.98,24.956 L156.98,18.872 L149.596,18.872 L149.596,24.956 L156.98,24.956 Z M149.596,29.116 L149.596,56 L156.98,56 L156.98,29.116 L149.596,29.116 Z M162.804,29.116 L162.804,56 L170.188,56 L170.188,41.908 C170.188,39.1693196 170.638662,37.202006 171.54,36.006 C172.441338,34.809994 173.897323,34.212 175.908,34.212 C177.676009,34.212 178.906663,34.7579945 179.6,35.85 C180.293337,36.9420055 180.64,38.5973222 180.64,40.816 L180.64,56 L188.024,56 L188.024,39.464 C188.024,37.7999917 187.876668,36.2833402 187.582,34.914 C187.287332,33.5446598 186.776004,32.3833381 186.048,31.43 C185.319996,30.4766619 184.32334,29.731336 183.058,29.194 C181.79266,28.656664 180.17201,28.388 178.196,28.388 C176.635992,28.388 175.110674,28.7433298 173.62,29.454 C172.129326,30.1646702 170.916005,31.2999922 169.98,32.86 L169.824,32.86 L169.824,29.116 L162.804,29.116 Z M219.484,54.284 L219.484,29.116 L212.464,29.116 L212.464,32.704 L212.36,32.704 C211.458662,31.1439922 210.340673,30.03467 209.006,29.376 C207.671327,28.71733 206.120009,28.388 204.352,28.388 C202.479991,28.388 200.824674,28.7519964 199.386,29.48 C197.947326,30.2080036 196.742672,31.1873272 195.772,32.418 C194.801328,33.6486728 194.064669,35.0699919 193.562,36.682 C193.059331,38.2940081 192.808,39.966658 192.808,41.7 C192.808,43.5373425 193.024665,45.2793251 193.458,46.926 C193.891335,48.5726749 194.575995,50.0113272 195.512,51.242 C196.448005,52.4726728 197.643993,53.4433298 199.1,54.154 C200.556007,54.8646702 202.289323,55.22 204.3,55.22 C205.929341,55.22 207.480659,54.8820034 208.954,54.206 C210.427341,53.5299966 211.562663,52.4813404 212.36,51.06 L212.464,51.06 L212.464,54.596 C212.498667,56.5026762 212.039338,58.0799938 211.086,59.328 C210.132662,60.5760062 208.61601,61.2 206.536,61.2 C205.21866,61.2 204.057338,60.931336 203.052,60.394 C202.046662,59.856664 201.370668,58.8946736 201.024,57.508 L193.692,57.508 C193.796001,59.033341 194.220663,60.3419945 194.966,61.434 C195.711337,62.5260055 196.647328,63.4186632 197.774,64.112 C198.900672,64.8053368 200.14866,65.316665 201.518,65.646 C202.88734,65.975335 204.23066,66.14 205.548,66.14 C208.633349,66.14 211.094657,65.7240042 212.932,64.892 C214.769343,64.0599958 216.173328,63.046006 217.144,61.85 C218.114672,60.653994 218.747332,59.3626736 219.042,57.976 C219.336668,56.5893264 219.484,55.358672 219.484,54.284 Z M206.172,49.656 C205.027994,49.656 204.07467,49.4133358 203.312,48.928 C202.54933,48.4426642 201.934002,47.8186705 201.466,47.056 C200.997998,46.2933295 200.668668,45.4353381 200.478,44.482 C200.287332,43.5286619 200.192,42.5666715 200.192,41.596 C200.192,40.5906616 200.304666,39.6286713 200.53,38.71 C200.755334,37.7913287 201.119331,36.9766702 201.622,36.266 C202.124669,35.5553298 202.748663,34.9920021 203.494,34.576 C204.239337,34.1599979 205.131995,33.952 206.172,33.952 C207.385339,33.952 208.390663,34.1773311 209.188,34.628 C209.985337,35.0786689 210.626664,35.6853295 211.112,36.448 C211.597336,37.2106705 211.943999,38.0859951 212.152,39.074 C212.360001,40.0620049 212.464,41.1106611 212.464,42.22 C212.464,43.1906715 212.334001,44.1179956 212.074,45.002 C211.813999,45.8860044 211.424003,46.6746632 210.904,47.368 C210.383997,48.0613368 209.725337,48.6159979 208.928,49.032 C208.130663,49.4480021 207.212005,49.656 206.172,49.656 Z M225.724,47.992 L225.724,56 L233.888,56 L233.888,47.992 L225.724,47.992 Z M247.46,24.956 L247.46,18.872 L240.076,18.872 L240.076,24.956 L247.46,24.956 Z M240.076,29.116 L240.076,56 L247.46,56 L247.46,29.116 L240.076,29.116 Z M252.452,42.584 C252.452,44.7333441 252.78133,46.674658 253.44,48.408 C254.09867,50.141342 255.034661,51.6233272 256.248,52.854 C257.461339,54.0846728 258.917325,55.02933 260.616,55.688 C262.314675,56.34667 264.221323,56.676 266.336,56.676 C268.450677,56.676 270.365991,56.34667 272.082,55.688 C273.798009,55.02933 275.262661,54.0846728 276.476,52.854 C277.689339,51.6233272 278.62533,50.141342 279.284,48.408 C279.94267,46.674658 280.272,44.7333441 280.272,42.584 C280.272,40.4346559 279.94267,38.4846754 279.284,36.734 C278.62533,34.9833246 277.689339,33.4926728 276.476,32.262 C275.262661,31.0313272 273.798009,30.0780034 272.082,29.402 C270.365991,28.7259966 268.450677,28.388 266.336,28.388 C264.221323,28.388 262.314675,28.7259966 260.616,29.402 C258.917325,30.0780034 257.461339,31.0313272 256.248,32.262 C255.034661,33.4926728 254.09867,34.9833246 253.44,36.734 C252.78133,38.4846754 252.452,40.4346559 252.452,42.584 Z M259.836,42.584 C259.836,41.509328 259.939999,40.4520052 260.148,39.412 C260.356001,38.3719948 260.711331,37.4533373 261.214,36.656 C261.716669,35.8586627 262.383996,35.2086692 263.216,34.706 C264.048004,34.2033308 265.087994,33.952 266.336,33.952 C267.584006,33.952 268.632662,34.2033308 269.482,34.706 C270.331338,35.2086692 271.007331,35.8586627 271.51,36.656 C272.012669,37.4533373 272.367999,38.3719948 272.576,39.412 C272.784001,40.4520052 272.888,41.509328 272.888,42.584 C272.888,43.658672 272.784001,44.7073282 272.576,45.73 C272.367999,46.7526718 272.012669,47.6713293 271.51,48.486 C271.007331,49.3006707 270.331338,49.9506642 269.482,50.436 C268.632662,50.9213358 267.584006,51.164 266.336,51.164 C265.087994,51.164 264.048004,50.9213358 263.216,50.436 C262.383996,49.9506642 261.716669,49.3006707 261.214,48.486 C260.711331,47.6713293 260.356001,46.7526718 260.148,45.73 C259.939999,44.7073282 259.836,43.658672 259.836,42.584 Z" id="lightning.io" fill="#000000" sketch:type="MSShapeGroup"></path>
        </g>
    </g>
</svg>