<?xml version="1.0" encoding="UTF-8" standalone="no"?>
<svg width="200px" height="200px" viewBox="0 0 200 200" version="1.1" xmlns="http://www.w3.org/2000/svg" xmlns:xlink="http://www.w3.org/1999/xlink" xmlns:sketch="http://www.bohemiancoding.com/sketch/ns">
    <!-- Generator: Sketch 3.0.4 (8053) - http://www.bohemiancoding.com/sketch -->
    <title>rails-girls-berlin</title>
    <desc>Created with Sketch.</desc>
    <defs></defs>
    <g id="Page-1" stroke="none" stroke-width="1" fill="none" fill-rule="evenodd" sketch:type="MSPage">
        <g id="railsgirlsberlin_cmyk-Kopie" sketch:type="MSLayerGroup">
            <rect id="Rectangle-path" fill="#E6332A" sketch:type="MSShapeGroup" x="0" y="0" width="200" height="200"></rect>
            <g id="Group" transform="translate(23.000000, 120.000000)" fill="#FFFFFF" sketch:type="MSShapeGroup">
                <path d="M12.795,23.369 L8.745,15.203 L4.177,15.203 L4.177,23.369 L-0.327,23.369 L-0.327,0.688 L10.203,0.688 C11.262,0.688 12.265,0.834 13.216,1.126 C14.167,1.418 14.998,1.866 15.711,2.471 C16.424,3.076 16.985,3.826 17.397,4.723 C17.807,5.619 18.012,6.672 18.012,7.882 C18.012,9.588 17.65,10.987 16.926,12.077 C16.202,13.168 15.117,13.994 13.67,14.556 L18.012,23.368 L12.795,23.368 L12.795,23.369 Z M13.346,8.011 C13.346,6.974 13.06,6.234 12.488,5.791 C11.915,5.348 11.122,5.127 10.107,5.127 L4.177,5.127 L4.177,10.958 L10.107,10.958 C12.266,10.958 13.346,9.976 13.346,8.011 L13.346,8.011 Z" id="Shape"></path>
                <path d="M30.485,23.38 L30.485,22.246 C30.075,22.675 29.534,23.028 28.865,23.306 C28.195,23.585 27.461,23.725 26.662,23.725 C25.863,23.725 25.085,23.6 24.329,23.352 C23.573,23.104 22.898,22.731 22.305,22.234 C21.71,21.738 21.23,21.112 20.863,20.355 C20.496,19.599 20.312,18.703 20.312,17.666 C20.312,16.738 20.491,15.917 20.847,15.203 C21.202,14.491 21.694,13.902 22.321,13.437 C22.948,12.974 23.676,12.623 24.509,12.384 C25.34,12.148 26.241,12.028 27.214,12.028 C27.991,12.028 28.64,12.098 29.158,12.239 C29.676,12.38 30.118,12.536 30.486,12.709 L30.486,11.867 C30.486,11.263 30.286,10.749 29.886,10.328 C29.487,9.906 28.876,9.695 28.056,9.695 C27.537,9.695 27.078,9.717 26.678,9.76 C26.279,9.804 25.901,9.868 25.544,9.954 C25.189,10.04 24.837,10.154 24.491,10.294 C24.145,10.436 23.778,10.613 23.389,10.829 L21.672,7.719 C22.168,7.439 22.649,7.19 23.113,6.974 C23.577,6.758 24.063,6.579 24.571,6.439 C25.079,6.299 25.613,6.191 26.175,6.115 C26.737,6.04 27.363,6.002 28.055,6.002 C29.091,6.002 30.034,6.133 30.879,6.392 C31.726,6.652 32.453,7.035 33.064,7.543 C33.672,8.051 34.145,8.678 34.483,9.424 C34.82,10.169 34.988,11.018 34.988,11.969 L34.988,23.381 L30.485,23.381 L30.485,23.38 Z M30.485,16.273 C30.098,16.035 29.685,15.857 29.245,15.738 C28.805,15.619 28.186,15.56 27.392,15.56 C26.554,15.56 25.915,15.744 25.475,16.111 C25.035,16.478 24.815,17.007 24.815,17.699 C24.815,18.303 25.007,18.833 25.394,19.286 C25.781,19.739 26.447,19.967 27.392,19.967 C28.121,19.967 28.761,19.811 29.309,19.497 C29.857,19.185 30.248,18.822 30.485,18.412 L30.485,16.273 L30.485,16.273 Z" id="Shape"></path>
                <path d="M44.094,2.406 C44.094,3.097 43.84,3.696 43.332,4.204 C42.824,4.712 42.225,4.965 41.533,4.965 C40.841,4.965 40.243,4.712 39.735,4.204 C39.228,3.696 38.974,3.098 38.974,2.406 C38.974,1.714 39.228,1.115 39.735,0.607 C40.243,0.1 40.841,-0.155 41.533,-0.155 C42.225,-0.155 42.824,0.1 43.332,0.607 C43.84,1.115 44.094,1.714 44.094,2.406 L44.094,2.406 Z M39.299,23.369 L39.299,6.359 L43.802,6.359 L43.802,23.369 L39.299,23.369 L39.299,23.369 Z" id="Shape"></path>
                <path d="M48.436,23.369 L48.436,1.984 L52.94,-0.251 L52.94,23.369 L48.436,23.369 L48.436,23.369 Z" id="Shape"></path>
                <path d="M70.856,18.412 C70.856,19.384 70.671,20.21 70.305,20.891 C69.937,21.571 69.441,22.121 68.814,22.543 C68.188,22.964 67.454,23.266 66.611,23.45 C65.769,23.633 64.873,23.725 63.922,23.725 C62.563,23.725 61.26,23.546 60.019,23.19 C58.777,22.834 57.703,22.353 56.795,21.748 L58.285,18.347 C59.192,18.844 60.126,19.227 61.088,19.497 C62.049,19.768 63.08,19.902 64.182,19.902 C65.068,19.902 65.667,19.794 65.98,19.578 C66.293,19.362 66.451,19.038 66.451,18.605 C66.451,18.216 66.272,17.904 65.916,17.666 C65.56,17.429 64.906,17.17 63.956,16.889 C62.94,16.586 62.017,16.28 61.185,15.965 C60.354,15.653 59.646,15.285 59.063,14.863 C58.48,14.442 58.032,13.929 57.718,13.325 C57.405,12.72 57.248,11.964 57.248,11.056 C57.248,10.17 57.416,9.41 57.75,8.772 C58.085,8.135 58.555,7.611 59.16,7.201 C59.764,6.791 60.482,6.488 61.314,6.294 C62.145,6.1 63.058,6.002 64.051,6.002 C65.132,6.002 66.222,6.154 67.323,6.455 C68.425,6.759 69.429,7.158 70.337,7.654 L68.911,11.186 C68.069,10.732 67.21,10.392 66.335,10.165 C65.461,9.938 64.667,9.824 63.954,9.824 C63.047,9.824 62.436,9.917 62.123,10.099 C61.81,10.284 61.653,10.559 61.653,10.925 C61.653,11.098 61.697,11.255 61.783,11.396 C61.869,11.537 62.037,11.676 62.286,11.817 C62.533,11.958 62.89,12.114 63.354,12.287 C63.818,12.46 64.428,12.665 65.185,12.903 C65.941,13.161 66.664,13.432 67.356,13.712 C68.046,13.993 68.652,14.339 69.17,14.749 C69.689,15.16 70.098,15.662 70.4,16.256 C70.702,16.85 70.856,17.569 70.856,18.412 L70.856,18.412 Z" id="Shape"></path>
                <path d="M102.09,18.492 C101.638,19.627 101.005,20.582 100.195,21.359 C99.384,22.137 98.424,22.726 97.312,23.125 C96.199,23.525 94.984,23.726 93.667,23.726 C92.175,23.726 90.825,23.451 89.616,22.9 C88.406,22.349 87.363,21.566 86.489,20.55 C85.614,19.535 84.938,18.309 84.464,16.873 C83.988,15.436 83.751,13.821 83.751,12.028 C83.751,10.3 84,8.718 84.497,7.281 C84.993,5.845 85.685,4.614 86.571,3.588 C87.456,2.563 88.514,1.764 89.745,1.192 C90.977,0.62 92.338,0.333 93.827,0.333 C94.993,0.333 96.024,0.463 96.921,0.722 C97.817,0.982 98.612,1.36 99.304,1.857 C99.996,2.354 100.594,2.953 101.103,3.655 C101.609,4.357 102.047,5.14 102.414,6.004 L98.105,7.786 C97.888,7.376 97.658,6.987 97.408,6.62 C97.16,6.252 96.868,5.939 96.534,5.681 C96.199,5.421 95.805,5.216 95.351,5.065 C94.898,4.915 94.369,4.838 93.763,4.838 C92.921,4.838 92.163,5.016 91.495,5.372 C90.825,5.728 90.264,6.226 89.809,6.862 C89.356,7.5 89.01,8.256 88.774,9.131 C88.535,10.006 88.417,10.973 88.417,12.03 C88.417,13.067 88.535,14.028 88.774,14.914 C89.01,15.801 89.361,16.566 89.825,17.215 C90.29,17.863 90.856,18.37 91.528,18.737 C92.197,19.105 92.953,19.288 93.796,19.288 C94.573,19.288 95.232,19.202 95.772,19.029 C96.312,18.856 96.75,18.619 97.084,18.316 C97.418,18.013 97.677,17.652 97.862,17.23 C98.045,16.809 98.169,16.351 98.233,15.853 L94.637,15.853 L94.637,11.609 L102.77,11.609 L102.77,14.589 C102.771,16.057 102.545,17.358 102.09,18.492 L102.09,18.492 Z" id="Shape"></path>
                <path d="M111.779,2.406 C111.779,3.097 111.525,3.696 111.017,4.204 C110.509,4.712 109.91,4.965 109.219,4.965 C108.528,4.965 107.927,4.712 107.42,4.204 C106.911,3.696 106.658,3.098 106.658,2.406 C106.658,1.714 106.911,1.115 107.42,0.607 C107.927,0.1 108.527,-0.155 109.219,-0.155 C109.909,-0.155 110.509,0.1 111.017,0.607 C111.525,1.115 111.779,1.714 111.779,2.406 L111.779,2.406 Z M106.984,23.369 L106.984,6.359 L111.487,6.359 L111.487,23.369 L106.984,23.369 L106.984,23.369 Z" id="Shape"></path>
                <path d="M125.937,11.575 C125.569,11.251 125.17,10.987 124.739,10.781 C124.307,10.576 123.843,10.473 123.346,10.473 C122.913,10.473 122.52,10.527 122.163,10.635 C121.806,10.743 121.504,10.937 121.255,11.218 C121.008,11.499 120.813,11.877 120.672,12.352 C120.531,12.828 120.461,13.433 120.461,14.166 L120.461,23.368 L115.958,23.368 L115.958,6.358 L120.461,6.358 L120.461,7.491 C120.851,7.081 121.331,6.729 121.904,6.438 C122.474,6.147 123.16,6 123.961,6 C124.694,6 125.327,6.125 125.856,6.373 C126.385,6.621 126.801,6.896 127.104,7.199 L125.937,11.575 L125.937,11.575 Z" id="Shape"></path>
                <path d="M129.988,23.369 L129.988,1.984 L134.491,-0.251 L134.491,23.369 L129.988,23.369 L129.988,23.369 Z" id="Shape"></path>
                <path d="M152.408,18.412 C152.408,19.384 152.224,20.21 151.857,20.891 C151.489,21.571 150.992,22.121 150.367,22.543 C149.74,22.964 149.006,23.266 148.164,23.45 C147.32,23.633 146.424,23.725 145.475,23.725 C144.114,23.725 142.812,23.546 141.57,23.19 C140.328,22.834 139.255,22.353 138.347,21.748 L139.836,18.347 C140.743,18.844 141.678,19.227 142.639,19.497 C143.6,19.767 144.633,19.902 145.735,19.902 C146.62,19.902 147.218,19.794 147.532,19.578 C147.846,19.362 148.003,19.038 148.003,18.605 C148.003,18.216 147.823,17.904 147.468,17.666 C147.113,17.429 146.458,17.17 145.508,16.889 C144.493,16.586 143.569,16.28 142.737,15.965 C141.905,15.653 141.198,15.285 140.615,14.863 C140.032,14.442 139.584,13.929 139.27,13.325 C138.957,12.72 138.799,11.964 138.799,11.056 C138.799,10.17 138.967,9.41 139.302,8.772 C139.637,8.135 140.106,7.611 140.711,7.201 C141.316,6.791 142.033,6.488 142.865,6.294 C143.697,6.1 144.61,6.002 145.603,6.002 C146.683,6.002 147.774,6.154 148.875,6.455 C149.977,6.759 150.981,7.158 151.888,7.654 L150.463,11.186 C149.62,10.732 148.763,10.392 147.888,10.165 C147.012,9.938 146.218,9.824 145.506,9.824 C144.599,9.824 143.988,9.917 143.675,10.099 C143.362,10.284 143.204,10.559 143.204,10.925 C143.204,11.098 143.249,11.255 143.335,11.396 C143.421,11.537 143.589,11.676 143.837,11.817 C144.085,11.958 144.441,12.114 144.907,12.287 C145.371,12.46 145.98,12.665 146.736,12.903 C147.492,13.161 148.215,13.432 148.907,13.712 C149.598,13.993 150.204,14.339 150.721,14.749 C151.241,15.16 151.651,15.662 151.951,16.256 C152.257,16.85 152.408,17.569 152.408,18.412 L152.408,18.412 Z" id="Shape"></path>
                <path d="M51.172,52.045 C51.172,53.233 50.978,54.286 50.589,55.204 C50.199,56.122 49.654,56.89 48.952,57.505 C48.251,58.12 47.402,58.585 46.409,58.899 C45.416,59.211 44.314,59.369 43.104,59.369 L32.801,59.369 L32.801,36.688 L43.201,36.688 C45.404,36.688 47.154,37.202 48.451,38.227 C49.746,39.253 50.394,40.738 50.394,42.682 C50.394,43.654 50.183,44.518 49.762,45.274 C49.341,46.031 48.751,46.635 47.995,47.088 C48.903,47.499 49.659,48.114 50.264,48.935 C50.869,49.756 51.172,50.792 51.172,52.045 L51.172,52.045 Z M45.793,43.039 C45.793,42.326 45.577,41.787 45.147,41.419 C44.713,41.053 44.001,40.868 43.008,40.868 L37.24,40.868 L37.24,45.178 L43.234,45.178 C44.184,45.178 44.848,44.979 45.226,44.578 C45.604,44.178 45.793,43.666 45.793,43.039 L45.793,43.039 Z M46.506,52.111 C46.506,50.167 45.426,49.195 43.267,49.195 L37.24,49.195 L37.24,55.059 L43.266,55.059 C44.368,55.059 45.183,54.794 45.712,54.265 C46.241,53.736 46.506,53.018 46.506,52.111 L46.506,52.111 Z" id="Shape"></path>
                <path d="M68.604,50.879 C68.604,51.202 68.598,51.478 68.587,51.705 C68.576,51.932 68.561,52.132 68.539,52.304 L58.365,52.304 C58.408,52.882 58.537,53.374 58.754,53.781 C58.97,54.187 59.24,54.513 59.564,54.76 C59.889,55.006 60.25,55.188 60.65,55.305 C61.049,55.422 61.454,55.481 61.865,55.481 C62.491,55.481 63.053,55.374 63.55,55.157 C64.046,54.942 64.457,54.65 64.781,54.283 L67.956,56.95 C67.265,57.843 66.363,58.528 65.251,59.008 C64.138,59.487 63.01,59.727 61.865,59.727 C60.634,59.727 59.526,59.516 58.544,59.095 C57.561,58.673 56.725,58.079 56.033,57.313 C55.341,56.547 54.806,55.617 54.429,54.527 C54.05,53.436 53.862,52.221 53.862,50.881 C53.862,49.585 54.056,48.392 54.446,47.301 C54.835,46.21 55.368,45.271 56.049,44.482 C56.73,43.694 57.528,43.084 58.447,42.652 C59.364,42.22 60.364,42.004 61.444,42.004 C62.567,42.004 63.577,42.236 64.473,42.701 C65.369,43.166 66.119,43.803 66.724,44.612 C67.329,45.422 67.793,46.368 68.118,47.447 C68.441,48.525 68.604,49.67 68.604,50.879 L68.604,50.879 Z M64.262,48.935 C64.219,48.546 64.133,48.173 64.003,47.818 C63.873,47.462 63.684,47.137 63.436,46.845 C63.188,46.554 62.879,46.322 62.513,46.149 C62.145,45.976 61.713,45.889 61.216,45.889 C60.395,45.889 59.747,46.181 59.273,46.765 C58.797,47.347 58.516,48.072 58.43,48.935 L64.262,48.935 L64.262,48.935 Z" id="Shape"></path>
                <path d="M82.146,47.575 C81.777,47.251 81.378,46.987 80.948,46.781 C80.514,46.576 80.052,46.473 79.553,46.473 C79.122,46.473 78.727,46.527 78.372,46.635 C78.015,46.743 77.713,46.937 77.464,47.218 C77.215,47.499 77.022,47.877 76.881,48.352 C76.74,48.828 76.67,49.433 76.67,50.166 L76.67,59.368 L72.166,59.368 L72.166,42.358 L76.67,42.358 L76.67,43.491 C77.06,43.081 77.54,42.729 78.111,42.438 C78.682,42.147 79.368,42 80.168,42 C80.903,42 81.536,42.125 82.064,42.373 C82.594,42.621 83.01,42.896 83.312,43.199 L82.146,47.575 L82.146,47.575 Z" id="Shape"></path>
                <path d="M86.197,59.369 L86.197,37.984 L90.699,35.749 L90.699,59.369 L86.197,59.369 L86.197,59.369 Z" id="Shape"></path>
                <path d="M100.127,38.406 C100.127,39.097 99.874,39.696 99.365,40.204 C98.859,40.712 98.258,40.965 97.568,40.965 C96.877,40.965 96.276,40.712 95.769,40.204 C95.261,39.696 95.007,39.098 95.007,38.406 C95.007,37.714 95.261,37.115 95.769,36.607 C96.276,36.1 96.876,35.845 97.568,35.845 C98.257,35.845 98.859,36.1 99.365,36.607 C99.874,37.115 100.127,37.714 100.127,38.406 L100.127,38.406 Z M95.333,59.369 L95.333,42.359 L99.836,42.359 L99.836,59.369 L95.333,59.369 L95.333,59.369 Z" id="Shape"></path>
                <path d="M114.576,59.369 L114.576,50.189 C114.576,48.681 114.33,47.647 113.837,47.086 C113.342,46.526 112.633,46.245 111.71,46.245 C110.785,46.245 110.072,46.52 109.566,47.069 C109.061,47.62 108.809,48.627 108.809,50.091 L108.809,59.367 L104.306,59.367 L104.306,42.369 L108.809,42.369 L108.787,43.502 C109.178,43.089 109.713,42.734 110.394,42.441 C111.076,42.147 111.873,42 112.781,42 C114.945,42 116.537,42.697 117.554,44.09 C118.572,45.484 119.08,47.379 119.08,49.777 L119.08,59.368 L114.576,59.368 L114.576,59.369 Z" id="Shape"></path>
            </g>
            <g id="j9F29r_2_" transform="translate(48.000000, 19.000000)" sketch:type="MSShapeGroup">
                <path d="M14.966,44.287 L29.774,44.287 L29.774,59.098 L14.912,59.098 L14.912,44.445 C14.908,44.368 14.966,44.287 14.966,44.287 L14.966,44.287 Z" id="Shape" fill="#E8E561"></path>
                <rect id="Rectangle-path" fill="#6B9DD4" x="30" y="59" width="14.862" height="14.863"></rect>
                <rect id="Rectangle-path" fill="#DC72AB" x="0" y="15" width="14.808" height="29.723"></rect>
                <rect id="Rectangle-path" fill="#6BB648" x="15" y="0" width="29.725" height="14.812"></rect>
                <path d="M89.172,-0.248 L59.5,-0.248 L59.5,14.563 L89.122,14.563 L89.172,-0.248 Z" id="Shape" fill="#6B9DD4"></path>
                <path d="M44.636,29.371 L59.496,29.347 L59.5,14.563 L44.636,14.563 L44.636,29.371 Z" id="Shape" fill="#FFFFFF"></path>
                <path d="M44.708,74.081 L44.715,88.944 L59.52,88.944 L59.52,74.081 L44.708,74.081 Z" id="Shape" fill="#FFFFFF"></path>
                <path d="M59.52,74.081 L74.325,74.066 L74.31,59.098 L59.543,59.115 L59.52,74.081 Z" id="Shape" fill="#E8E561"></path>
                <path d="M74.31,59.098 L89.172,59.098 L89.172,44.287 L74.349,44.261 L74.31,59.098 Z" id="Shape" fill="#DC72AB"></path>
                <path d="M89.122,14.563 L89.172,44.287 L104.035,44.287 L104.035,14.563 L89.122,14.563 Z" id="Shape" fill="#6BB648"></path>
            </g>
        </g>
    </g>
</svg>