<?xml version="1.0" encoding="UTF-8" standalone="no"?>
<!-- Created with Inkscape (http://www.inkscape.org/) -->

<svg
   xmlns:dc="http://purl.org/dc/elements/1.1/"
   xmlns:cc="http://creativecommons.org/ns#"
   xmlns:rdf="http://www.w3.org/1999/02/22-rdf-syntax-ns#"
   xmlns:svg="http://www.w3.org/2000/svg"
   xmlns="http://www.w3.org/2000/svg"
   xmlns:sodipodi="http://sodipodi.sourceforge.net/DTD/sodipodi-0.dtd"
   xmlns:inkscape="http://www.inkscape.org/namespaces/inkscape"
   width="180mm"
   height="110mm"
   viewBox="0 0 637.79525 389.76377"
   id="svg5530"
   version="1.1"
   inkscape:version="0.92+devel unknown"
   sodipodi:docname="header.svg">
  <defs
     id="defs5532" />
  <sodipodi:namedview
     id="base"
     pagecolor="#ffffff"
     bordercolor="#666666"
     borderopacity="1.0"
     inkscape:pageopacity="0.0"
     inkscape:pageshadow="2"
     inkscape:zoom="0.86871528"
     inkscape:cx="114.27811"
     inkscape:cy="434.88029"
     inkscape:document-units="px"
     inkscape:current-layer="layer1"
     showgrid="false"
     fit-margin-top="0"
     fit-margin-left="0"
     fit-margin-right="0"
     fit-margin-bottom="0"
     inkscape:window-width="3440"
     inkscape:window-height="1375"
     inkscape:window-x="0"
     inkscape:window-y="0"
     inkscape:window-maximized="1"
     inkscape:document-rotation="0"
     showguides="false">
    <inkscape:grid
       type="xygrid"
       id="grid4926" />
  </sodipodi:namedview>
  <metadata
     id="metadata5535">
    <rdf:RDF>
      <cc:Work
         rdf:about="">
        <dc:format>image/svg+xml</dc:format>
        <dc:type
           rdf:resource="http://purl.org/dc/dcmitype/StillImage" />
        <dc:title></dc:title>
      </cc:Work>
    </rdf:RDF>
  </metadata>
  <g
     inkscape:label="Layer 1"
     inkscape:groupmode="layer"
     id="layer1"
     transform="translate(-32.040557,-241.53278)">
    <g
       id="g4924"
       transform="matrix(0.57478347,0,0,0.57478347,139.08943,264.64935)">
      <path
         d="m 212.07479,502.79179 0.58375,0.54125 c -0.195,0.13375 -0.38875,0.27 -0.58375,0.405 v -0.94625"
         style="fill:#b0e5e4;fill-opacity:1;fill-rule:nonzero;stroke:none"
         id="path20"
         inkscape:connector-curvature="0" />
      <path
         d="m 211.53604,501.09429 0.58375,0.54125 c -0.195,0.13375 -0.3875,0.27 -0.58375,0.405 v -0.94625"
         style="fill:#aee4e3;fill-opacity:1;fill-rule:nonzero;stroke:none"
         id="path50"
         inkscape:connector-curvature="0" />
      <path
         d="m 210.99854,499.39804 0.5825,0.54 c -0.195,0.135 -0.38875,0.27125 -0.5825,0.405 v -0.945"
         style="fill:#ade3e3;fill-opacity:1;fill-rule:nonzero;stroke:none"
         id="path80"
         inkscape:connector-curvature="0" />
      <path
         d="m 210.45854,497.70054 0.58375,0.54125 c -0.195,0.13375 -0.38875,0.27 -0.58375,0.405 v -0.94625"
         style="fill:#abe3e2;fill-opacity:1;fill-rule:nonzero;stroke:none"
         id="path110"
         inkscape:connector-curvature="0" />
      <path
         d="m 209.91979,496.00304 0.58375,0.54125 c -0.195,0.13375 -0.3875,0.27 -0.58375,0.405 v -0.94625"
         style="fill:#aae2e2;fill-opacity:1;fill-rule:nonzero;stroke:none"
         id="path140"
         inkscape:connector-curvature="0" />
      <path
         d="m 209.38229,494.30679 0.58375,0.54 c -0.19625,0.135 -0.38875,0.27125 -0.58375,0.405 v -0.945"
         style="fill:#a8e1e1;fill-opacity:1;fill-rule:nonzero;stroke:none"
         id="path170"
         inkscape:connector-curvature="0" />
      <path
         d="m 208.84229,492.60929 0.58375,0.54125 c -0.195,0.13375 -0.38875,0.27 -0.58375,0.405 v -0.94625"
         style="fill:#a6e1e1;fill-opacity:1;fill-rule:nonzero;stroke:none"
         id="path200"
         inkscape:connector-curvature="0" />
      <path
         d="m 208.30479,490.91179 0.58375,0.54 c -0.19625,0.135 -0.38875,0.27125 -0.58375,0.40625 v -0.94625"
         style="fill:#a4e0e0;fill-opacity:1;fill-rule:nonzero;stroke:none"
         id="path230"
         inkscape:connector-curvature="0" />
      <path
         d="m 207.76729,489.21429 0.5825,0.54125 c -0.195,0.13375 -0.38875,0.27 -0.5825,0.405 v -0.94625"
         style="fill:#a3dfe0;fill-opacity:1;fill-rule:nonzero;stroke:none"
         id="path260"
         inkscape:connector-curvature="0" />
      <path
         d="m 207.22729,487.51804 0.58375,0.54125 c -0.195,0.13375 -0.38875,0.26875 -0.58375,0.40375 v -0.945"
         style="fill:#a1dfdf;fill-opacity:1;fill-rule:nonzero;stroke:none"
         id="path290"
         inkscape:connector-curvature="0" />
      <path
         d="m 206.68854,485.82179 0.5825,0.54 c -0.195,0.135 -0.38625,0.27 -0.5825,0.405 v -0.945"
         style="fill:#9edede;fill-opacity:1;fill-rule:nonzero;stroke:none"
         id="path320"
         inkscape:connector-curvature="0" />
      <path
         d="m 206.15104,484.12304 0.5825,0.54125 c -0.19625,0.13375 -0.38875,0.27125 -0.5825,0.405 v -0.94625"
         style="fill:#9dddde;fill-opacity:1;fill-rule:nonzero;stroke:none"
         id="path350"
         inkscape:connector-curvature="0" />
      <path
         d="m 205.61229,482.42554 0.58375,0.54125 c -0.195,0.135 -0.38875,0.27 -0.58375,0.40625 v -0.9475"
         style="fill:#9bdddd;fill-opacity:1;fill-rule:nonzero;stroke:none"
         id="path380"
         inkscape:connector-curvature="0" />
      <path
         d="m 205.07229,480.72804 0.58375,0.54125 c -0.195,0.135 -0.3875,0.27125 -0.58375,0.40625 v -0.9475"
         style="fill:#9adcdd;fill-opacity:1;fill-rule:nonzero;stroke:none"
         id="path410"
         inkscape:connector-curvature="0" />
      <path
         d="m 204.53354,479.03179 0.58375,0.54125 c -0.19625,0.13375 -0.38875,0.27 -0.58375,0.405 v -0.94625"
         style="fill:#98dbdc;fill-opacity:1;fill-rule:nonzero;stroke:none"
         id="path440"
         inkscape:connector-curvature="0" />
      <path
         d="m 203.99604,477.33429 0.58375,0.54125 c -0.195,0.13375 -0.39,0.27 -0.58375,0.405 v -0.94625"
         style="fill:#96dadc;fill-opacity:1;fill-rule:nonzero;stroke:none"
         id="path470"
         inkscape:connector-curvature="0" />
      <path
         d="m 203.45604,475.63679 0.58375,0.54125 c -0.19375,0.135 -0.3875,0.27 -0.58375,0.405 v -0.94625"
         style="fill:#94dadb;fill-opacity:1;fill-rule:nonzero;stroke:none"
         id="path500"
         inkscape:connector-curvature="0" />
      <path
         d="m 202.91854,473.94054 0.58375,0.54125 c -0.195,0.13375 -0.38875,0.27 -0.58375,0.405 v -0.94625"
         style="fill:#92d9da;fill-opacity:1;fill-rule:nonzero;stroke:none"
         id="path530"
         inkscape:connector-curvature="0" />
      <path
         d="m 202.37979,472.24304 0.58375,0.54125 c -0.195,0.135 -0.38875,0.27125 -0.58375,0.40625 v -0.9475"
         style="fill:#91d8da;fill-opacity:1;fill-rule:nonzero;stroke:none"
         id="path560"
         inkscape:connector-curvature="0" />
      <path
         d="m 201.84104,470.54679 0.5825,0.54 c -0.195,0.135 -0.3875,0.27 -0.5825,0.40625 v -0.94625"
         style="fill:#8fd8d8;fill-opacity:1;fill-rule:nonzero;stroke:none"
         id="path590"
         inkscape:connector-curvature="0" />
      <path
         d="m 201.30354,468.84804 0.58375,0.54125 c -0.19625,0.13375 -0.39,0.27125 -0.58375,0.405 v -0.94625"
         style="fill:#8dd7d9;fill-opacity:1;fill-rule:nonzero;stroke:none"
         id="path620"
         inkscape:connector-curvature="0" />
      <path
         d="m 200.76354,467.15179 0.58375,0.54125 c -0.195,0.13375 -0.38875,0.27 -0.58375,0.405 v -0.94625"
         style="fill:#8bd6d8;fill-opacity:1;fill-rule:nonzero;stroke:none"
         id="path650"
         inkscape:connector-curvature="0" />
      <path
         d="m 200.22604,465.45554 0.58125,0.54 c -0.1925,0.135 -0.38625,0.27 -0.58125,0.405 v -0.945"
         style="fill:#8ad5d8;fill-opacity:1;fill-rule:nonzero;stroke:none"
         id="path680"
         inkscape:connector-curvature="0" />
      <path
         d="m 199.68729,463.75804 0.5825,0.54 c -0.195,0.13375 -0.38875,0.27125 -0.5825,0.40625 v -0.94625"
         style="fill:#88d5d7;fill-opacity:1;fill-rule:nonzero;stroke:none"
         id="path710"
         inkscape:connector-curvature="0" />
      <path
         d="m 199.14854,462.06054 0.5825,0.54 c -0.19375,0.135 -0.38875,0.27125 -0.5825,0.40625 v -0.94625"
         style="fill:#87d4d7;fill-opacity:1;fill-rule:nonzero;stroke:none"
         id="path740"
         inkscape:connector-curvature="0" />
      <path
         d="m 198.61104,460.36304 0.58125,0.54125 c -0.19375,0.13375 -0.3875,0.27 -0.58125,0.405 v -0.94625"
         style="fill:#85d3d6;fill-opacity:1;fill-rule:nonzero;stroke:none"
         id="path770"
         inkscape:connector-curvature="0" />
      <path
         d="m 198.07104,458.66554 0.58375,0.54125 c -0.19625,0.135 -0.38875,0.27 -0.58375,0.405 v -0.94625"
         style="fill:#83d3d5;fill-opacity:1;fill-rule:nonzero;stroke:none"
         id="path800"
         inkscape:connector-curvature="0" />
      <path
         d="m 197.53229,456.96804 0.5825,0.54125 c -0.19375,0.135 -0.3875,0.27125 -0.5825,0.40625 v -0.9475"
         style="fill:#82d3d5;fill-opacity:1;fill-rule:nonzero;stroke:none"
         id="path830"
         inkscape:connector-curvature="0" />
      <path
         d="m 196.99479,455.27179 0.58125,0.54125 c -0.19375,0.13375 -0.3875,0.27 -0.58125,0.405 v -0.94625"
         style="fill:#80d2d4;fill-opacity:1;fill-rule:nonzero;stroke:none"
         id="path860"
         inkscape:connector-curvature="0" />
      <path
         d="m 196.45604,453.57554 0.5825,0.54 c -0.19625,0.135 -0.38875,0.27 -0.5825,0.405 v -0.945"
         style="fill:#7fd1d4;fill-opacity:1;fill-rule:nonzero;stroke:none"
         id="path890"
         inkscape:connector-curvature="0" />
      <path
         d="m 195.91604,451.87679 0.5825,0.54125 c -0.1925,0.13375 -0.38625,0.27125 -0.5825,0.405 v -0.94625"
         style="fill:#7dd1d3;fill-opacity:1;fill-rule:nonzero;stroke:none"
         id="path920"
         inkscape:connector-curvature="0" />
      <path
         d="m 195.37854,450.18054 0.58125,0.54 c -0.19375,0.135 -0.3875,0.27125 -0.58125,0.40625 v -0.94625"
         style="fill:#7cd0d3;fill-opacity:1;fill-rule:nonzero;stroke:none"
         id="path950"
         inkscape:connector-curvature="0" />
      <path
         d="m 194.83979,448.48304 0.5825,0.54125 c -0.195,0.13375 -0.38875,0.27 -0.5825,0.405 v -0.94625"
         style="fill:#7acfd2;fill-opacity:1;fill-rule:nonzero;stroke:none"
         id="path980"
         inkscape:connector-curvature="0" />
      <path
         d="m 194.30104,446.78554 0.5825,0.54125 c -0.19375,0.135 -0.3875,0.27 -0.5825,0.405 v -0.94625"
         style="fill:#78cfd1;fill-opacity:1;fill-rule:nonzero;stroke:none"
         id="path1010"
         inkscape:connector-curvature="0" />
      <path
         d="m 193.76354,445.08929 0.58125,0.54 c -0.195,0.135 -0.3875,0.27 -0.58125,0.405 v -0.945"
         style="fill:#77ced1;fill-opacity:1;fill-rule:nonzero;stroke:none"
         id="path1040"
         inkscape:connector-curvature="0" />
      <path
         d="m 193.22354,443.39179 0.58375,0.54125 c -0.195,0.13375 -0.38875,0.27 -0.58375,0.405 v -0.94625"
         style="fill:#75cdd0;fill-opacity:1;fill-rule:nonzero;stroke:none"
         id="path1070"
         inkscape:connector-curvature="0" />
      <path
         d="m 192.68479,441.69429 0.5825,0.54125 c -0.19375,0.13375 -0.3875,0.27 -0.5825,0.405 v -0.94625"
         style="fill:#74cdd0;fill-opacity:1;fill-rule:nonzero;stroke:none"
         id="path1100"
         inkscape:connector-curvature="0" />
      <path
         d="m 192.14729,439.99679 0.58125,0.54125 c -0.19375,0.13375 -0.3875,0.27125 -0.58125,0.405 v -0.94625"
         style="fill:#72cbcf;fill-opacity:1;fill-rule:nonzero;stroke:none"
         id="path1130"
         inkscape:connector-curvature="0" />
      <path
         d="m 191.60854,438.30054 0.5825,0.54125 c -0.19375,0.13375 -0.38875,0.26875 -0.5825,0.405 v -0.94625"
         style="fill:#71cad0;fill-opacity:1;fill-rule:nonzero;stroke:none"
         id="path1160"
         inkscape:connector-curvature="0" />
      <path
         d="m 191.06979,436.60304 0.58125,0.54125 c -0.1925,0.13375 -0.3875,0.27 -0.58125,0.405 v -0.94625"
         style="fill:#70c9cf;fill-opacity:1;fill-rule:nonzero;stroke:none"
         id="path1190"
         inkscape:connector-curvature="0" />
      <path
         d="m 190.53104,434.90679 0.58125,0.54 c -0.19375,0.135 -0.3875,0.27 -0.58125,0.405 v -0.945"
         style="fill:#6ec9cf;fill-opacity:1;fill-rule:nonzero;stroke:none"
         id="path1220"
         inkscape:connector-curvature="0" />
      <path
         d="m 189.99229,433.20929 0.5825,0.54 c -0.19375,0.135 -0.38875,0.27125 -0.5825,0.405 v -0.945"
         style="fill:#6cc8ce;fill-opacity:1;fill-rule:nonzero;stroke:none"
         id="path1250"
         inkscape:connector-curvature="0" />
      <path
         d="m 142.36605,383.01804 63.75999,85.41875 H 79.955547 l 62.410503,-85.41875"
         style="fill:#c48c95;fill-opacity:1;fill-rule:nonzero;stroke:none"
         id="path1276"
         inkscape:connector-curvature="0" />
      <path
         d="m 157.2148,402.92054 49.88749,65.59 -58.97999,-0.0425 -5.0825,-65.4 14.175,-0.1475"
         style="fill:#a95b68;fill-opacity:1;fill-rule:nonzero;stroke:none"
         id="path1278"
         inkscape:connector-curvature="0" />
      <path
         d="m 133.32605,403.16679 4.29875,4.69375 5.415,-4.7925 6.2675,4.595 3.28125,-4.6275 6.21,2.01625 -16.465,-22.03375 -16.37875,22.33125 7.37125,-2.1825"
         style="fill:#fff4f6;fill-opacity:1;fill-rule:nonzero;stroke:none"
         id="path1280"
         inkscape:connector-curvature="0" />
      <path
         d="m 143.0398,403.06804 6.2675,4.595 3.28125,-4.6275 6.21,2.01625 -16.465,-22.03375 0.70625,20.05"
         style="fill:#e8bdc4;fill-opacity:1;fill-rule:nonzero;stroke:none"
         id="path1282"
         inkscape:connector-curvature="0" />
      <path
         d="M 151.32105,467.63929 H 54.154797 l -22.11424,22.11375 20.40187,20.40125 8.05412,-8.055 h 36.15975 l 26.989753,26.99125 19.27875,-19.27875 8.39625,-42.1725"
         style="fill:#b6e3ed;fill-opacity:1;fill-rule:nonzero;stroke:none"
         id="path1284"
         inkscape:connector-curvature="0" />
      <path
         d="m 161.1473,467.63929 h -52.69562 l -29.648503,25.9775 32.275373,0.17125 18.62375,18.6225 14.395,-14.28 17.05,-30.49125"
         style="fill:#ffffff;fill-opacity:1;fill-rule:nonzero;stroke:none"
         id="path1286"
         inkscape:connector-curvature="0" />
      <path
         d="M 478.89729,303.58679 617.94354,445.05804 H 342.79479 l 136.1025,-141.47125"
         style="fill:#c48c95;fill-opacity:1;fill-rule:nonzero;stroke:none"
         id="path1288"
         inkscape:connector-curvature="0" />
      <path
         d="m 503.06604,328.09554 114.8775,116.9625 -105.185,-1.33 -27.15375,-113.51 17.46125,-2.1225"
         style="fill:#a95b68;fill-opacity:1;fill-rule:nonzero;stroke:none"
         id="path1290"
         inkscape:connector-curvature="0" />
      <path
         d="m 609.68104,363.83679 80.84875,108.3125 H 530.54354 l 79.1375,-108.3125"
         style="fill:#c48c95;fill-opacity:1;fill-rule:nonzero;stroke:none"
         id="path1292"
         inkscape:connector-curvature="0" />
      <path
         d="m 628.50979,389.07304 59.0025,78.6225 -72.35875,0.0825 -4.6175,-78.5175 17.97375,-0.1875"
         style="fill:#a95b68;fill-opacity:1;fill-rule:nonzero;stroke:none"
         id="path1294"
         inkscape:connector-curvature="0" />
      <path
         d="m 370.21229,201.06304 117.08,244.32625 H 255.60854 L 370.21229,201.06304"
         style="fill:#c48c95;fill-opacity:1;fill-rule:nonzero;stroke:none"
         id="path1296"
         inkscape:connector-curvature="0" />
      <path
         d="m 391.42354,245.50179 100.86125,211.205 -81.22375,3.66375 -32.2175,-195.95125 12.58,-18.9175"
         style="fill:#a95b68;fill-opacity:1;fill-rule:nonzero;stroke:none"
         id="path1298"
         inkscape:connector-curvature="0" />
      <path
         d="m 260.88354,307.24929 67.79125,141.47 h -134.1475 l 66.35625,-141.47"
         style="fill:#c48c95;fill-opacity:1;fill-rule:nonzero;stroke:none"
         id="path1300"
         inkscape:connector-curvature="0" />
      <path
         d="m 280.25354,347.19429 45.3,94.53375 h -131.3975 l 86.0975,-94.53375"
         style="fill:#a95b68;fill-opacity:1;fill-rule:nonzero;stroke:none"
         id="path1302"
         inkscape:connector-curvature="0" />
      <path
         d="m 613.24729,467.91179 h 91.855 l -22.2775,22.2775 h -13.3675 l -20.65,20.65 h -42.92875 l -8.78125,8.78375 h -49.65625 l 65.80625,-51.71125"
         style="fill:#98d5e5;fill-opacity:1;fill-rule:nonzero;stroke:none"
         id="path1304"
         inkscape:connector-curvature="0" />
      <path
         d="m 591.31354,467.91179 h 91.8525 l -7.71125,7.71125 h -13.36625 l -23.64875,23.64875 h -42.92875 l -20.35,20.35125 h -49.65375 l 65.80625,-51.71125"
         style="fill:#f5f5f5;fill-opacity:1;fill-rule:nonzero;stroke:none"
         id="path1306"
         inkscape:connector-curvature="0" />
      <path
         d="m 484.28229,433.60179 h 4.6875 v -6.27246 h -4.6875 z"
         style="fill:#5279bc;fill-opacity:1;fill-rule:nonzero;stroke:none"
         id="path1308"
         inkscape:connector-curvature="0" />
      <path
         d="m 486.59979,433.60179 h 2.37011 v -6.27246 h -2.37011 z"
         style="fill:#693517;fill-opacity:1;fill-rule:nonzero;stroke:none"
         id="path1310"
         inkscape:connector-curvature="0" />
      <path
         d="m 486.47854,378.41304 13.80875,49.48625 h -27.32125 l 13.5125,-49.48625"
         style="fill:#b5e3d4;fill-opacity:1;fill-rule:nonzero;stroke:none"
         id="path1312"
         inkscape:connector-curvature="0" />
      <path
         d="m 486.47854,378.41304 13.80875,49.48625 h -13.88375 l 0.075,-49.48625"
         style="fill:#61b9a7;fill-opacity:1;fill-rule:nonzero;stroke:none"
         id="path1314"
         inkscape:connector-curvature="0" />
      <path
         d="m 483.13229,426.09804 -5.10875,-5.1075 -4.23125,4.23 -0.0737,-0.0738 1.17125,-4.2475 3.13375,-3.135 5.10875,5.10875 5.37125,-5.37125 5.17875,5.18 4.045,-4.04 0.68,2.54125 -4.725,4.72375 -5.17875,-5.17875 -5.37125,5.37"
         style="fill:#88cfbc;fill-opacity:1;fill-rule:nonzero;stroke:none"
         id="path1316"
         inkscape:connector-curvature="0" />
      <path
         d="m 483.13229,417.92429 -5.10875,-5.10875 -1.27875,1.2775 1.20875,-4.4325 0.07,-0.0713 5.10875,5.10875 5.37125,-5.37 5.17875,5.18 2.24625,-2.24625 0.71125,2.515 -2.9575,2.9575 -5.17875,-5.18125 -5.37125,5.37125"
         style="fill:#88cfbc;fill-opacity:1;fill-rule:nonzero;stroke:none"
         id="path1318"
         inkscape:connector-curvature="0" />
      <path
         d="m 483.13229,409.75054 -4.08875,-4.09 0.69375,-2.5325 3.395,3.39625 5.37125,-5.37 5.17875,5.18 0.47625,-0.475 0.69375,2.53125 -1.17,1.16875 -5.17875,-5.17875 -5.37125,5.37"
         style="fill:#88cfbc;fill-opacity:1;fill-rule:nonzero;stroke:none"
         id="path1320"
         inkscape:connector-curvature="0" />
      <path
         d="m 483.13229,401.57554 -2.32125,-2.32125 0.685,-2.5425 1.63625,1.63875 5.37125,-5.37 2.83875,2.84 1.25875,4.48125 -4.0975,-4.095 -5.37125,5.36875"
         style="fill:#88cfbc;fill-opacity:1;fill-rule:nonzero;stroke:none"
         id="path1322"
         inkscape:connector-curvature="0" />
      <path
         d="m 483.13229,393.40179 -0.57875,-0.57875 0.79125,-2.8575 4.9825,-4.9825 1.12125,3.99625 -0.945,-0.94625 -5.37125,5.36875"
         style="fill:#88cfbc;fill-opacity:1;fill-rule:nonzero;stroke:none"
         id="path1324"
         inkscape:connector-curvature="0" />
      <path
         d="m 505.39979,420.69304 h 3.31739 v -4.4375 h -3.31739 z"
         style="fill:#5279bc;fill-opacity:1;fill-rule:nonzero;stroke:none"
         id="path1326"
         inkscape:connector-curvature="0" />
      <path
         d="m 507.04229,420.69304 h 1.6748 v -4.4375 h -1.6748 z"
         style="fill:#693517;fill-opacity:1;fill-rule:nonzero;stroke:none"
         id="path1328"
         inkscape:connector-curvature="0" />
      <path
         d="m 506.95604,381.64679 9.7675,35.01125 h -19.32875 l 9.56125,-35.01125"
         style="fill:#b5e3d4;fill-opacity:1;fill-rule:nonzero;stroke:none"
         id="path1330"
         inkscape:connector-curvature="0" />
      <path
         d="m 506.95604,381.64679 9.7675,35.01125 h -9.82125 l 0.0537,-35.01125"
         style="fill:#61b9a7;fill-opacity:1;fill-rule:nonzero;stroke:none"
         id="path1332"
         inkscape:connector-curvature="0" />
      <path
         d="m 504.58979,415.38429 -3.61625,-3.615 -2.9925,2.99375 -0.0538,-0.0513 0.83,-3.00625 2.21625,-2.21875 3.61625,3.615 3.79875,-3.79875 3.6625,3.665 2.86125,-2.86 0.4825,1.7975 -3.34375,3.34375 -3.6625,-3.665 -3.79875,3.8"
         style="fill:#88cfbc;fill-opacity:1;fill-rule:nonzero;stroke:none"
         id="path1334"
         inkscape:connector-curvature="0" />
      <path
         d="m 504.58979,409.60054 -3.61625,-3.61375 -0.90375,0.90375 0.8525,-3.13625 0.0513,-0.05 3.61625,3.61375 3.79875,-3.7975 3.6625,3.6625 1.59125,-1.5875 0.5,1.77875 -2.09125,2.0925 -3.6625,-3.665 -3.79875,3.79875"
         style="fill:#88cfbc;fill-opacity:1;fill-rule:nonzero;stroke:none"
         id="path1336"
         inkscape:connector-curvature="0" />
      <path
         d="m 504.58979,403.81679 -2.89625,-2.8925 0.49125,-1.79125 2.405,2.40375 3.79875,-3.8 3.6625,3.66375 0.33875,-0.33625 0.4925,1.79125 -0.83125,0.82875 -3.6625,-3.665 -3.79875,3.7975"
         style="fill:#88cfbc;fill-opacity:1;fill-rule:nonzero;stroke:none"
         id="path1338"
         inkscape:connector-curvature="0" />
      <path
         d="m 504.58979,398.03429 -1.64625,-1.64125 0.48625,-1.79875 1.16,1.15875 3.79875,-3.8 2.00875,2.00875 0.88875,3.17125 -2.8975,-2.89625 -3.79875,3.7975"
         style="fill:#88cfbc;fill-opacity:1;fill-rule:nonzero;stroke:none"
         id="path1340"
         inkscape:connector-curvature="0" />
      <path
         d="m 504.58979,392.25179 -0.41,-0.40875 0.55625,-2.0225 3.5275,-3.525 0.79375,2.8275 -0.66875,-0.67 -3.79875,3.79875"
         style="fill:#88cfbc;fill-opacity:1;fill-rule:nonzero;stroke:none"
         id="path1342"
         inkscape:connector-curvature="0" />
      <path
         d="m 521.08104,421.19304 h 2.24854 v -3.00879 h -2.24854 z"
         style="fill:#5279bc;fill-opacity:1;fill-rule:nonzero;stroke:none"
         id="path1344"
         inkscape:connector-curvature="0" />
      <path
         d="m 522.19479,421.19304 h 1.13476 v -3.00879 h -1.13476 z"
         style="fill:#693517;fill-opacity:1;fill-rule:nonzero;stroke:none"
         id="path1346"
         inkscape:connector-curvature="0" />
      <path
         d="m 522.13604,394.73554 6.61875,23.7225 h -13.09875 l 6.48,-23.7225"
         style="fill:#b5e3d4;fill-opacity:1;fill-rule:nonzero;stroke:none"
         id="path1348"
         inkscape:connector-curvature="0" />
      <path
         d="m 522.13604,394.73554 6.61875,23.7225 h -6.6525 l 0.0337,-23.7225"
         style="fill:#61b9a7;fill-opacity:1;fill-rule:nonzero;stroke:none"
         id="path1350"
         inkscape:connector-curvature="0" />
      <path
         d="m 520.53229,417.59554 -2.45,-2.45 -2.0275,2.02875 -0.035,-0.035 0.56,-2.03625 1.5025,-1.5025 2.45,2.44875 2.575,-2.57375 2.48125,2.48125 1.93625,-1.93625 0.33,1.2175 -2.26625,2.26625 -2.48125,-2.4825 -2.575,2.57375"
         style="fill:#88cfbc;fill-opacity:1;fill-rule:nonzero;stroke:none"
         id="path1352"
         inkscape:connector-curvature="0" />
      <path
         d="m 520.53229,413.67679 -2.45,-2.44875 -0.615,0.61125 0.58125,-2.125 0.0337,-0.0337 2.45,2.45 2.575,-2.57375 2.48125,2.4825 1.0775,-1.07625 0.34,1.20625 -1.4175,1.41625 -2.48125,-2.4825 -2.575,2.57375"
         style="fill:#88cfbc;fill-opacity:1;fill-rule:nonzero;stroke:none"
         id="path1354"
         inkscape:connector-curvature="0" />
      <path
         d="m 520.53229,409.75679 -1.96125,-1.95875 0.3325,-1.21375 1.62875,1.6275 2.575,-2.57375 2.48125,2.4825 0.22875,-0.22625 0.3325,1.2125 -0.56125,0.56 -2.48125,-2.48375 -2.575,2.57375"
         style="fill:#88cfbc;fill-opacity:1;fill-rule:nonzero;stroke:none"
         id="path1356"
         inkscape:connector-curvature="0" />
      <path
         d="m 520.53229,405.83929 -1.11375,-1.1125 0.32875,-1.21875 0.785,0.78625 2.575,-2.575 1.36,1.36125 0.60375,2.1475 -1.96375,-1.9625 -2.575,2.57375"
         style="fill:#88cfbc;fill-opacity:1;fill-rule:nonzero;stroke:none"
         id="path1358"
         inkscape:connector-curvature="0" />
      <path
         d="m 520.53229,401.92054 -0.27875,-0.27625 0.38125,-1.36875 2.385,-2.38875 0.54,1.91375 -0.4525,-0.4525 -2.575,2.5725"
         style="fill:#88cfbc;fill-opacity:1;fill-rule:nonzero;stroke:none"
         id="path1360"
         inkscape:connector-curvature="0" />
      <path
         d="m 389.69729,437.34679 h 4.13623 v -5.53857 h -4.13623 z"
         style="fill:#5279bc;fill-opacity:1;fill-rule:nonzero;stroke:none"
         id="path1362"
         inkscape:connector-curvature="0" />
      <path
         d="m 391.74479,437.34679 h 2.08886 v -5.53857 h -2.08886 z"
         style="fill:#693517;fill-opacity:1;fill-rule:nonzero;stroke:none"
         id="path1364"
         inkscape:connector-curvature="0" />
      <path
         d="m 391.63604,388.63679 12.185,43.67625 h -24.11375 l 11.92875,-43.67625"
         style="fill:#b5e3d4;fill-opacity:1;fill-rule:nonzero;stroke:none"
         id="path1366"
         inkscape:connector-curvature="0" />
      <path
         d="m 391.63604,388.63679 12.185,43.67625 h -12.25 l 0.065,-43.67625"
         style="fill:#61b9a7;fill-opacity:1;fill-rule:nonzero;stroke:none"
         id="path1368"
         inkscape:connector-curvature="0" />
      <path
         d="m 388.68479,430.72429 -4.50875,-4.51 -3.73625,3.73375 -0.065,-0.0637 1.03125,-3.75 2.77,-2.76625 4.50875,4.50875 4.74,-4.74125 4.5675,4.5725 3.5675,-3.565 0.60625,2.24125 -4.17375,4.17125 -4.5675,-4.5725 -4.74,4.74125"
         style="fill:#88cfbc;fill-opacity:1;fill-rule:nonzero;stroke:none"
         id="path1370"
         inkscape:connector-curvature="0" />
      <path
         d="m 388.68479,423.50804 -4.50875,-4.50875 -1.13125,1.12875 1.0675,-3.91375 0.0638,-0.0612 4.50875,4.51 4.74,-4.73875 4.5675,4.56875 1.98375,-1.98 0.62625,2.21875 -2.61,2.60875 -4.5675,-4.57 -4.74,4.7375"
         style="fill:#88cfbc;fill-opacity:1;fill-rule:nonzero;stroke:none"
         id="path1372"
         inkscape:connector-curvature="0" />
      <path
         d="m 388.68479,416.29304 -3.6125,-3.6075 0.6125,-2.235 3,2.9975 4.74,-4.74 4.5675,4.57 0.42125,-0.4175 0.615,2.23375 -1.03625,1.0325 -4.5675,-4.57 -4.74,4.73625"
         style="fill:#88cfbc;fill-opacity:1;fill-rule:nonzero;stroke:none"
         id="path1374"
         inkscape:connector-curvature="0" />
      <path
         d="m 388.68479,409.07929 -2.0525,-2.0475 0.60625,-2.24375 1.44625,1.445 4.74,-4.73875 2.505,2.50625 1.1075,3.95625 -3.6125,-3.615 -4.74,4.7375"
         style="fill:#88cfbc;fill-opacity:1;fill-rule:nonzero;stroke:none"
         id="path1376"
         inkscape:connector-curvature="0" />
      <path
         d="m 388.68479,401.86554 -0.51375,-0.50875 0.69875,-2.52125 4.39625,-4.39875 0.99125,3.52625 -0.8325,-0.83625 -4.74,4.73875"
         style="fill:#88cfbc;fill-opacity:1;fill-rule:nonzero;stroke:none"
         id="path1378"
         inkscape:connector-curvature="0" />
      <path
         d="m 217.60479,418.03929 h 4.7959 v -6.41846 h -4.7959 z"
         style="fill:#5279bc;fill-opacity:1;fill-rule:nonzero;stroke:none"
         id="path1380"
         inkscape:connector-curvature="0" />
      <path
         d="m 219.97854,418.03929 h 2.42236 v -6.41846 h -2.42236 z"
         style="fill:#4f4077;fill-opacity:1;fill-rule:nonzero;stroke:none"
         id="path1382"
         inkscape:connector-curvature="0" />
      <path
         d="m 219.85479,361.58929 14.11875,50.6175 h -27.945 l 13.82625,-50.6175"
         style="fill:#b5e3d4;fill-opacity:1;fill-rule:nonzero;stroke:none"
         id="path1384"
         inkscape:connector-curvature="0" />
      <path
         d="m 219.85479,361.58929 14.11875,50.6175 h -14.1975 l 0.0788,-50.6175"
         style="fill:#61b9a7;fill-opacity:1;fill-rule:nonzero;stroke:none"
         id="path1386"
         inkscape:connector-curvature="0" />
      <path
         d="m 216.43104,410.36429 -5.225,-5.225 -4.32875,4.3275 -0.0775,-0.075 1.1975,-4.345 3.20875,-3.20625 5.225,5.225 5.4925,-5.49375 5.29625,5.2975 4.135,-4.13125 0.69875,2.5975 -4.83375,4.8325 -5.29625,-5.2975 -5.4925,5.49375"
         style="fill:#88cfbc;fill-opacity:1;fill-rule:nonzero;stroke:none"
         id="path1388"
         inkscape:connector-curvature="0" />
      <path
         d="m 216.43104,402.00304 -5.225,-5.225 -1.30875,1.30625 1.235,-4.535 0.0738,-0.0712 5.225,5.2275 5.4925,-5.49125 5.29625,5.2925 2.2975,-2.2925 0.7275,2.57 -3.025,3.02375 -5.29625,-5.29875 -5.4925,5.49375"
         style="fill:#88cfbc;fill-opacity:1;fill-rule:nonzero;stroke:none"
         id="path1390"
         inkscape:connector-curvature="0" />
      <path
         d="m 216.43104,393.64179 -4.18625,-4.1825 0.71,-2.59125 3.47625,3.47625 5.4925,-5.495 5.29625,5.2975 0.4875,-0.48375 0.71125,2.5875 -1.19875,1.1975 -5.29625,-5.2975 -5.4925,5.49125"
         style="fill:#88cfbc;fill-opacity:1;fill-rule:nonzero;stroke:none"
         id="path1392"
         inkscape:connector-curvature="0" />
      <path
         d="m 216.43104,385.28179 -2.3775,-2.375 0.7025,-2.6 1.675,1.675 5.4925,-5.49375 2.90375,2.905 1.28375,4.585 -4.1875,-4.18875 -5.4925,5.4925"
         style="fill:#88cfbc;fill-opacity:1;fill-rule:nonzero;stroke:none"
         id="path1394"
         inkscape:connector-curvature="0" />
      <path
         d="m 216.43104,376.91929 -0.59375,-0.58875 0.80625,-2.92375 5.095,-5.09625 1.15125,4.08625 -0.96625,-0.96875 -5.4925,5.49125"
         style="fill:#88cfbc;fill-opacity:1;fill-rule:nonzero;stroke:none"
         id="path1396"
         inkscape:connector-curvature="0" />
      <path
         d="m 332.77854,408.71929 h 4.79493 v -6.41747 h -4.79493 z"
         style="fill:#5279bc;fill-opacity:1;fill-rule:nonzero;stroke:none"
         id="path1398"
         inkscape:connector-curvature="0" />
      <path
         d="m 335.15229,408.71929 h 2.42139 v -6.41747 h -2.42139 z"
         style="fill:#693517;fill-opacity:1;fill-rule:nonzero;stroke:none"
         id="path1400"
         inkscape:connector-curvature="0" />
      <path
         d="m 335.02729,352.26929 14.12,50.6175 h -27.945 l 13.825,-50.6175"
         style="fill:#b5e3d4;fill-opacity:1;fill-rule:nonzero;stroke:none"
         id="path1402"
         inkscape:connector-curvature="0" />
      <path
         d="m 335.02729,352.26929 14.12,50.6175 h -14.1975 l 0.0775,-50.6175"
         style="fill:#61b9a7;fill-opacity:1;fill-rule:nonzero;stroke:none"
         id="path1404"
         inkscape:connector-curvature="0" />
      <path
         d="m 331.60479,401.04554 -5.225,-5.2275 -4.32875,4.32875 -0.0775,-0.0762 1.1975,-4.345 3.20875,-3.205 5.225,5.22375 5.4925,-5.49375 5.29625,5.29875 4.135,-4.1325 0.70125,2.59875 -4.83625,4.83375 -5.29625,-5.29875 -5.4925,5.495"
         style="fill:#88cfbc;fill-opacity:1;fill-rule:nonzero;stroke:none"
         id="path1406"
         inkscape:connector-curvature="0" />
      <path
         d="m 331.60479,392.68304 -5.225,-5.22625 -1.31,1.3075 1.23625,-4.535 0.0738,-0.0712 5.225,5.22625 5.4925,-5.49125 5.29625,5.29375 2.29875,-2.29375 0.72625,2.57125 -3.025,3.02375 -5.29625,-5.2975 -5.4925,5.4925"
         style="fill:#88cfbc;fill-opacity:1;fill-rule:nonzero;stroke:none"
         id="path1408"
         inkscape:connector-curvature="0" />
      <path
         d="m 331.60479,384.32054 -4.18625,-4.18125 0.71125,-2.5925 3.475,3.47625 5.4925,-5.4925 5.29625,5.29625 0.4875,-0.485 0.70875,2.58875 -1.19625,1.1975 -5.29625,-5.2975 -5.4925,5.49"
         style="fill:#88cfbc;fill-opacity:1;fill-rule:nonzero;stroke:none"
         id="path1410"
         inkscape:connector-curvature="0" />
      <path
         d="m 331.60479,375.96054 -2.3775,-2.375 0.70125,-2.59875 1.67625,1.67375 5.4925,-5.49125 2.905,2.90375 1.28125,4.58375 -4.18625,-4.18625 -5.4925,5.49"
         style="fill:#88cfbc;fill-opacity:1;fill-rule:nonzero;stroke:none"
         id="path1412"
         inkscape:connector-curvature="0" />
      <path
         d="m 331.60479,367.59929 -0.595,-0.58875 0.80875,-2.92375 5.09625,-5.0975 1.14875,4.08625 -0.96625,-0.96875 -5.4925,5.4925"
         style="fill:#88cfbc;fill-opacity:1;fill-rule:nonzero;stroke:none"
         id="path1414"
         inkscape:connector-curvature="0" />
      <path
         d="m 233.30604,414.66429 -5.2875,0.0737 0.10375,-63.28875 3.5925,-0.05 1.59125,63.265"
         style="fill:#8a829a;fill-opacity:1;fill-rule:nonzero;stroke:none"
         id="path1416"
         inkscape:connector-curvature="0" />
      <path
         d="m 233.30604,414.66429 -2.19,0.0312 -2.99375,-63.24625 3.5925,-0.05 1.59125,63.265"
         style="fill:#706474;fill-opacity:1;fill-rule:nonzero;stroke:none"
         id="path1418"
         inkscape:connector-curvature="0" />
      <path
         d="m 217.72354,363.91804 c -0.14375,-0.56375 -0.235,-1.1475 -0.2425,-1.75375 -0.0225,-1.71125 0.53,-3.2925 1.47625,-4.57 -1.51125,-1.3525 -2.47875,-3.30375 -2.51,-5.49125 -0.0588,-4.1525 3.26125,-7.57 7.41625,-7.6275 0.0838,-0.001 0.1675,0.007 0.2475,0.009 0.58125,-3.77625 3.8075,-6.6975 7.75625,-6.75375 4.40125,-0.0613 8.02125,3.455 8.08125,7.8575 0.015,0.975 -0.15875,1.91 -0.46625,2.7775 2.3725,0.9825 4.05875,3.3025 4.09625,6.03375 0.01,0.615 -0.0725,1.21375 -0.22125,1.78 0.43125,-0.0775 0.875,-0.1325 1.3325,-0.1375 4.46875,-0.0637 8.14125,3.51 8.20625,7.9825 0.05,3.46625 -2.09125,6.44375 -5.13625,7.64125 1.31125,1.66875 2.10875,3.76125 2.14,6.04625 0.0762,5.5275 -4.3375,10.0725 -9.8675,10.14875 -4.82375,0.07 -8.90125,-3.29125 -9.91,-7.82375 -1.89625,2.63375 -4.97125,4.36625 -8.4675,4.41625 -5.865,0.0825 -10.6825,-4.60125 -10.76625,-10.465 -0.0637,-4.5825 2.7875,-8.5275 6.835,-10.07"
         style="fill:#fffdf4;fill-opacity:1;fill-rule:nonzero;stroke:none"
         id="path1420"
         inkscape:connector-curvature="0" />
      <path
         d="m 213.94479,366.27179 c 0.9925,3.45 4.1875,5.9575 7.95125,5.90375 4.5075,-0.0637 8.1075,-3.7675 8.045,-8.275 -0.009,-0.6425 -0.1025,-1.265 -0.24875,-1.86625 0.32375,0.0462 0.65,0.075 0.98875,0.07 3.59125,-0.0488 6.46,-3.0025 6.40875,-6.5925 -0.0425,-3.06875 -2.20625,-5.605 -5.07125,-6.24875 1.18375,-1.58625 1.87125,-3.56 1.845,-5.69375 -0.0337,-2.22125 -0.83875,-4.25 -2.16375,-5.83375 0.015,0 0.0288,-0.004 0.0387,-0.002 4.4,-0.0625 8.02,3.45625 8.0825,7.855 0.0138,0.9775 -0.1575,1.91 -0.46625,2.78 2.3725,0.98125 4.0575,3.30125 4.0975,6.0325 0.009,0.61625 -0.0738,1.2125 -0.22375,1.78125 0.435,-0.08 0.87625,-0.1325 1.33125,-0.13875 4.47125,-0.0625 8.145,3.51125 8.21,7.9825 0.0475,3.46625 -3.37625,6.38 -6.54625,6.6875 1.7125,1.2775 2.75,3.785 2.6525,6.26375 -0.21125,5.5225 -3.935,10.0525 -9.4625,10.13 -4.82625,0.0687 -8.165,-2.6225 -9.41625,-7.06875 -1.89875,2.63375 -4.97625,4.3675 -8.46875,4.41625 -5.865,0.0825 -10.6825,-4.60125 -10.76625,-10.46625 -0.0425,-3.0175 1.185,-5.755 3.1825,-7.71625"
         style="fill:#cfeed3;fill-opacity:1;fill-rule:nonzero;stroke:none"
         id="path1422"
         inkscape:connector-curvature="0" />
      <path
         d="m 476.50604,433.96804 -6.56,0.0925 0.1275,-78.505 4.45625,-0.0637 1.97625,78.47625"
         style="fill:#773741;fill-opacity:1;fill-rule:nonzero;stroke:none"
         id="path1424"
         inkscape:connector-curvature="0" />
      <path
         d="m 476.50604,433.96804 -2.7175,0.0387 -3.715,-78.45125 4.45625,-0.0637 1.97625,78.47625"
         style="fill:#66252c;fill-opacity:1;fill-rule:nonzero;stroke:none"
         id="path1426"
         inkscape:connector-curvature="0" />
      <path
         d="m 457.17229,371.02054 c -0.175,-0.69875 -0.285,-1.42375 -0.29625,-2.175 -0.0288,-2.12375 0.6575,-4.08375 1.83,-5.66625 -1.87375,-1.68125 -3.0725,-4.09875 -3.11375,-6.815 -0.0713,-5.1525 4.04625,-9.38875 9.2,-9.46125 0.1025,-10e-4 0.205,0.0113 0.3075,0.0113 0.72,-4.68625 4.725,-8.30875 9.62,-8.3775 5.46,-0.0775 9.95,4.2875 10.025,9.7475 0.015,1.20875 -0.195,2.36875 -0.5775,3.445 2.94125,1.2175 5.0325,4.095 5.07875,7.4825 0.0138,0.765 -0.0913,1.50625 -0.2725,2.20875 0.5375,-0.0962 1.08375,-0.16375 1.64875,-0.17 5.545,-0.0788 10.10625,4.355 10.1825,9.9025 0.0613,4.29875 -2.59125,7.9925 -6.36875,9.47875 1.62375,2.06875 2.6125,4.665 2.65375,7.5 0.095,6.855 -5.38375,12.49375 -12.24,12.58875 -5.985,0.085 -11.0425,-4.08375 -12.29375,-9.70625 -2.35375,3.26875 -6.1725,5.4175 -10.50375,5.47875 -7.27625,0.10125 -13.25125,-5.7075 -13.35375,-12.98 -0.0813,-5.68625 3.455,-10.57875 8.47375,-12.4925"
         style="fill:#fffdf4;fill-opacity:1;fill-rule:nonzero;stroke:none"
         id="path1428"
         inkscape:connector-curvature="0" />
      <path
         d="m 452.48979,373.94054 c 1.22875,4.27875 5.1925,7.38875 9.86,7.3225 5.58875,-0.0788 10.05875,-4.6725 9.98125,-10.2625 -0.01,-0.8 -0.125,-1.57125 -0.3075,-2.31625 0.3975,0.0563 0.80625,0.0937 1.22375,0.0875 4.455,-0.0613 8.015,-3.72625 7.9525,-8.17875 -0.0525,-3.8075 -2.73625,-6.9525 -6.2925,-7.75 1.46625,-1.96875 2.32375,-4.4175 2.29,-7.06375 -0.0425,-2.755 -1.0425,-5.27 -2.68375,-7.23625 0.0163,0 0.035,-0.005 0.05,-0.004 5.4575,-0.0775 9.945,4.2875 10.02375,9.745 0.0188,1.21125 -0.195,2.36875 -0.57875,3.44625 2.9425,1.21875 5.03375,4.095 5.08125,7.48375 0.009,0.76625 -0.09,1.505 -0.27375,2.21 0.53625,-0.0987 1.08375,-0.165 1.65125,-0.1725 5.545,-0.0788 10.1025,4.3575 10.17875,9.9025 0.0638,4.30125 -4.18625,7.915 -8.1175,8.29375 2.12625,1.585 3.40875,4.69625 3.29125,7.77125 -0.26375,6.85125 -4.88125,12.47 -11.73875,12.56625 -5.9875,0.085 -10.12625,-3.25375 -11.67875,-8.77 -2.3575,3.26875 -6.1725,5.41875 -10.5075,5.47875 -7.27375,0.10375 -13.25,-5.7075 -13.355,-12.98125 -0.05,-3.745 1.47375,-7.14125 3.95,-9.5725"
         style="fill:#cfeed3;fill-opacity:1;fill-rule:nonzero;stroke:none"
         id="path1430"
         inkscape:connector-curvature="0" />
      <path
         d="m 254.90104,328.59429 2.60625,4.505 3.76125,-3.8175 3.125,3.49125 3.05625,-4.0225 4.705,1.84625 -11.2575,-23.50375 -10.86125,23.37375 4.865,-1.8725"
         style="fill:#e9e7e7;fill-opacity:1;fill-rule:nonzero;stroke:none"
         id="path1432"
         inkscape:connector-curvature="0" />
      <path
         d="m 261.26854,329.28179 3.125,3.49125 3.05625,-4.0225 4.705,1.84625 -11.2575,-23.50375 0.37125,22.18875"
         style="fill:#cdadb2;fill-opacity:1;fill-rule:nonzero;stroke:none"
         id="path1434"
         inkscape:connector-curvature="0" />
      <path
         d="m 237.31729,369.06554 20.08,-37.43375 h 5.48 l -20.08125,37.43375 h -5.47875"
         style="fill:#d19e78;fill-opacity:1;fill-rule:nonzero;stroke:none"
         id="path1436"
         inkscape:connector-curvature="0" />
      <path
         d="m 278.47229,407.34429 h 52.72125 v -40.90775 h -52.72125 z"
         style="fill:#cacdad;fill-opacity:1;fill-rule:nonzero;stroke:none"
         id="path1438"
         inkscape:connector-curvature="0" />
      <path
         d="m 331.19354,407.34429 h -52.72125 v -40.9075 l 52.72125,40.9075"
         style="fill:#bdc19c;fill-opacity:1;fill-rule:nonzero;stroke:none"
         id="path1440"
         inkscape:connector-curvature="0" />
      <path
         d="m 278.46979,366.43679 -17.8575,-33.28625 -17.86875,33.3125 h 0.0288 v 42.27125 h 35.8675 v -42.2975 h -0.17"
         style="fill:#f9f9f9;fill-opacity:1;fill-rule:nonzero;stroke:none"
         id="path1442"
         inkscape:connector-curvature="0" />
      <path
         d="m 242.79604,366.29304 18.59625,-34.66125 h 5.47875 l -20.0825,37.43375 h -3.9925 v -2.7725"
         style="fill:#cacdad;fill-opacity:1;fill-rule:nonzero;stroke:none"
         id="path1444"
         inkscape:connector-curvature="0" />
      <path
         d="m 284.86229,404.49054 h 10.23486 v -26.08987 h -10.23486 z"
         style="fill:#967e6d;fill-opacity:1;fill-rule:nonzero;stroke:none"
         id="path1446"
         inkscape:connector-curvature="0" />
      <path
         d="m 301.83854,390.50929 h 8.57275 V 378.4004 h -8.57275 z"
         style="fill:#967e6d;fill-opacity:1;fill-rule:nonzero;stroke:none"
         id="path1448"
         inkscape:connector-curvature="0" />
      <path
         d="m 256.21479,390.50929 h 7.25976 v -10.63281 h -7.25976 z"
         style="fill:#967e6d;fill-opacity:1;fill-rule:nonzero;stroke:none"
         id="path1450"
         inkscape:connector-curvature="0" />
      <path
         d="m 257.25979,356.05679 h 3.85889 v -5.4502 h -3.85889 z"
         style="fill:#f68714;fill-opacity:1;fill-rule:nonzero;stroke:none"
         id="path1452"
         inkscape:connector-curvature="0" />
      <path
         d="m 316.81854,390.50929 h 8.57129 V 378.4004 h -8.57129 z"
         style="fill:#967e6d;fill-opacity:1;fill-rule:nonzero;stroke:none"
         id="path1454"
         inkscape:connector-curvature="0" />
      <path
         d="m 289.71104,333.29679 h 4.8252 v -9.07129 h -4.8252 z"
         style="fill:#f68714;fill-opacity:1;fill-rule:nonzero;stroke:none"
         id="path1456"
         inkscape:connector-curvature="0" />
      <path
         d="m 294.53604,333.29679 h -4.825 l 4.825,-9.07125 v 9.07125"
         style="fill:#d3661c;fill-opacity:1;fill-rule:nonzero;stroke:none"
         id="path1458"
         inkscape:connector-curvature="0" />
      <path
         d="m 257.37354,331.63179 20.0825,37.43375 h 57.3775 l -20.08125,-37.43375 h -57.37875"
         style="fill:#ddb99e;fill-opacity:1;fill-rule:nonzero;stroke:none"
         id="path1460"
         inkscape:connector-curvature="0" />
      <path
         d="m 257.37354,331.63179 20.0825,37.43375 h 57.3775 l -77.46,-37.43375"
         style="fill:#d19e78;fill-opacity:1;fill-rule:nonzero;stroke:none"
         id="path1462"
         inkscape:connector-curvature="0" />
      <path
         d="m 289.37604,324.34929 h 5.49121 v -1.5586 h -5.49121 z"
         style="fill:#ffffff;fill-opacity:1;fill-rule:nonzero;stroke:none"
         id="path1464"
         inkscape:connector-curvature="0" />
      <path
         d="m 484.11104,409.12679 -16.99,-31.6725 h -4.63625 l 16.99,31.6725 h 4.63625"
         style="fill:#d19e78;fill-opacity:1;fill-rule:nonzero;stroke:none"
         id="path1466"
         inkscape:connector-curvature="0" />
      <path
         d="m 404.68729,441.51054 h 44.6035 v -34.60837 h -44.6035 z"
         style="fill:#f9f9f9;fill-opacity:1;fill-rule:nonzero;stroke:none"
         id="path1468"
         inkscape:connector-curvature="0" />
      <path
         d="m 449.29229,406.90179 15.1075,-28.1625 15.11875,28.18375 h -0.0212 v 35.76375 h -30.34875 v -35.785 h 0.14375"
         style="fill:#cacdad;fill-opacity:1;fill-rule:nonzero;stroke:none"
         id="path1470"
         inkscape:connector-curvature="0" />
      <path
         d="m 449.29229,406.90179 30.22625,17.06125 -0.0212,18.72375 h -30.34875 v -35.785 h 0.14375"
         style="fill:#bdc19c;fill-opacity:1;fill-rule:nonzero;stroke:none"
         id="path1472"
         inkscape:connector-curvature="0" />
      <path
         d="m 479.47479,406.78054 -15.7325,-29.32625 h -4.63625 l 16.9925,31.6725 h 3.37625 v -2.34625"
         style="fill:#cacdad;fill-opacity:1;fill-rule:nonzero;stroke:none"
         id="path1474"
         inkscape:connector-curvature="0" />
      <path
         d="m 435.22729,442.92429 h 8.65869 v -22.07275 h -8.65869 z"
         style="fill:#967e6d;fill-opacity:1;fill-rule:nonzero;stroke:none"
         id="path1476"
         inkscape:connector-curvature="0" />
      <path
         d="m 460.19104,429.93179 h 8.1875 v -11.99267 h -8.1875 z"
         style="fill:#967e6d;fill-opacity:1;fill-rule:nonzero;stroke:none"
         id="path1478"
         inkscape:connector-curvature="0" />
      <path
         d="m 417.14604,432.09554 h 8.18994 v -11.99365 h -8.18994 z"
         style="fill:#967e6d;fill-opacity:1;fill-rule:nonzero;stroke:none"
         id="path1480"
         inkscape:connector-curvature="0" />
      <path
         d="m 463.97479,398.12054 h 3.26416 v -4.61132 h -3.26416 z"
         style="fill:#f68714;fill-opacity:1;fill-rule:nonzero;stroke:none"
         id="path1482"
         inkscape:connector-curvature="0" />
      <path
         d="m 435.70229,378.86429 h 4.08399 v -7.67627 h -4.08399 z"
         style="fill:#f68714;fill-opacity:1;fill-rule:nonzero;stroke:none"
         id="path1484"
         inkscape:connector-curvature="0" />
      <path
         d="m 435.70229,378.86429 h 4.08375 l -4.08375,-7.67625 v 7.67625"
         style="fill:#d3661c;fill-opacity:1;fill-rule:nonzero;stroke:none"
         id="path1486"
         inkscape:connector-curvature="0" />
      <path
         d="m 467.14354,377.45429 -16.99,31.6725 h -48.5475 l 16.9925,-31.6725 h 48.545"
         style="fill:#ddb99e;fill-opacity:1;fill-rule:nonzero;stroke:none"
         id="path1488"
         inkscape:connector-curvature="0" />
      <path
         d="m 467.14354,377.45429 -16.99,31.6725 h -48.5475 l 65.5375,-31.6725"
         style="fill:#d19e78;fill-opacity:1;fill-rule:nonzero;stroke:none"
         id="path1490"
         inkscape:connector-curvature="0" />
      <path
         d="m 435.41979,371.29554 h 4.646 v -1.32129 h -4.646 z"
         style="fill:#ffffff;fill-opacity:1;fill-rule:nonzero;stroke:none"
         id="path1492"
         inkscape:connector-curvature="0" />
      <path
         d="m 151.1698,467.40429 -4.2425,4.6175 -24.96625,24.96625 81.38749,81.385 49.43125,-49.43 102.35875,102.3535 49.43125,-49.4285 h 30.95875 l 43.44,-43.44 h 64.90875 l 71.0275,-71.02375 H 151.1698"
         style="fill:#ffffff;fill-opacity:1;fill-rule:nonzero;stroke:none"
         id="path1494"
         inkscape:connector-curvature="0" />
      <path
         d="m 564.09979,467.40429 -22.4675,23.34125 h -75.31125 l -99.94875,24.21625 -42.43875,22.21625 -31.45875,31.45875 62.66375,62.65975 49.43125,-49.4285 h 19.22375 l 43.44125,-43.44 h 76.6425 l 71.0275,-71.02375 h -50.805"
         style="fill:#b6e3ed;fill-opacity:1;fill-rule:nonzero;stroke:none"
         id="path1496"
         inkscape:connector-curvature="0" />
      <path
         d="m 614.90479,468.06679 c 0,0 -80.5125,-75.52625 -151.91375,-37.3375 -54.32375,29.055 -95.36875,-7.50125 -123.83,-21.14 -28.46125,-13.63875 -107.97125,-25.28125 -188.60999,58.4775 h 464.35374"
         style="fill:#ffffff;fill-opacity:1;fill-rule:nonzero;stroke:none"
         id="path1498"
         inkscape:connector-curvature="0" />
      <path
         d="m 338.20479,413.56054 h 3.82618 v -16.9775 h -3.82618 z"
         style="fill:#8f6783;fill-opacity:1;fill-rule:nonzero;stroke:none"
         id="path1500"
         inkscape:connector-curvature="0" />
      <path
         d="m 200.85229,511.80054 c 0,0 7.74125,-24.71625 25.46625,-24.71625 17.725,0 15.4775,14.32 30.9575,14.32 9.31875,0 15.4775,-10.2 30.79125,-10.2 10.23375,0 18.64,10.5925 27.12875,20.59625 -13.73,0 -114.34375,0 -114.34375,0"
         style="fill:#b6e3ed;fill-opacity:1;fill-rule:nonzero;stroke:none"
         id="path1502"
         inkscape:connector-curvature="0" />
      <path
         d="m 507.42979,491.49429 c 0,0 -4.8275,-14.98 -36.785,-14.98 -21.44,0 -24.6325,7.99 -59.41625,7.99 -23.30125,0 -32.54625,-13.2725 -51.06875,-13.2725 -12.38,0 -40.80625,2.7875 -68.10125,36.4075 11.65625,0 114.83875,-11.49875 174.2625,-16.145 h 41.10875"
         style="fill:#b6e3ed;fill-opacity:1;fill-rule:nonzero;stroke:none"
         id="path1504"
         inkscape:connector-curvature="0" />
      <path
         d="m 267.42729,512.30054 73.895,73.895 38.2825,-38.28125 h 30.2925 l 56.42375,-56.42 H 329.34229 l -13.0675,13.06625 h -77.475 l -7.1975,7.19875 35.825,0.54125"
         style="fill:#6eb5cf;fill-opacity:1;fill-rule:nonzero;stroke:none"
         id="path1506"
         inkscape:connector-curvature="0" />
      <path
         d="m 267.42729,512.30054 40.94125,40.94 38.28125,-38.27875 96.53375,-0.3325 23.1375,-23.135 H 329.34229 l -13.0675,13.06625 h -77.475 l -7.1975,7.19875 35.825,0.54125"
         style="fill:#53a4c4;fill-opacity:1;fill-rule:nonzero;stroke:none"
         id="path1508"
         inkscape:connector-curvature="0" />
      <path
         d="m 397.33104,440.31554 h 3.82861 v -16.97612 h -3.82861 z"
         style="fill:#8f6783;fill-opacity:1;fill-rule:nonzero;stroke:none"
         id="path1510"
         inkscape:connector-curvature="0" />
      <path
         d="m 367.37354,428.83054 h 3.82764 v -16.97662 h -3.82764 z"
         style="fill:#8f6783;fill-opacity:1;fill-rule:nonzero;stroke:none"
         id="path1512"
         inkscape:connector-curvature="0" />
      <path
         d="m 615.57229,468.06679 c 0,0 -51.6475,-48.44625 -108.89125,-48.115 50.68,23.77625 56.50375,48.115 56.50375,48.115 h 52.3875"
         style="fill:#d2f0f5;fill-opacity:1;fill-rule:nonzero;stroke:none"
         id="path1514"
         inkscape:connector-curvature="0" />
      <path
         d="m 463.69104,430.41054 c -54.32375,29.05375 -95.235,-6.975 -123.69625,-20.61625 -7.22125,-3.45875 -17.68875,-6.79 -30.61125,-8.46875 33.94,15.81125 47.51375,51.5275 92.35875,59.00125 38.94625,6.49 61.94875,-29.91625 61.94875,-29.91625"
         style="fill:#d2f0f5;fill-opacity:1;fill-rule:nonzero;stroke:none"
         id="path1516"
         inkscape:connector-curvature="0" />
      <path
         d="m 268.80104,411.06304 h 3.82618 v -16.97662 h -3.82618 z"
         style="fill:#8f6783;fill-opacity:1;fill-rule:nonzero;stroke:none"
         id="path1518"
         inkscape:connector-curvature="0" />
      <path
         d="m 250.19979,436.32054 h 3.82861 v -16.97512 h -3.82861 z"
         style="fill:#8f6783;fill-opacity:1;fill-rule:nonzero;stroke:none"
         id="path1520"
         inkscape:connector-curvature="0" />
      <path
         d="m 339.24479,402.51429 1.19875,-1.9575 29.3425,18.00875 -1.2,1.9575 -29.34125,-18.00875"
         style="fill:#8f6783;fill-opacity:1;fill-rule:nonzero;stroke:none"
         id="path1522"
         inkscape:connector-curvature="0" />
      <path
         d="m 368.08479,419.84054 0.7875,-2.155 32.325,11.8475 -0.79,2.1575 -32.3225,-11.85"
         style="fill:#8f6783;fill-opacity:1;fill-rule:nonzero;stroke:none"
         id="path1524"
         inkscape:connector-curvature="0" />
      <path
         d="m 236.73604,443.41429 -1.53375,-1.7075 16.4925,-14.81625 1.5375,1.70875 -16.49625,14.815"
         style="fill:#8f6783;fill-opacity:1;fill-rule:nonzero;stroke:none"
         id="path1526"
         inkscape:connector-curvature="0" />
      <path
         d="m 252.53104,429.95304 0.0213,-4.01125 18.14375,-26.09125 1.8875,1.31125 -20.0525,28.79125"
         style="fill:#8f6783;fill-opacity:1;fill-rule:nonzero;stroke:none"
         id="path1528"
         inkscape:connector-curvature="0" />
      <path
         d="m 219.15729,453.50179 -1.18375,-1.97375 17.1125,-10.24375 1.1825,1.97125 -17.11125,10.24625"
         style="fill:#8f6783;fill-opacity:1;fill-rule:nonzero;stroke:none"
         id="path1530"
         inkscape:connector-curvature="0" />
      <path
         d="m 200.53104,442.53054 1.06625,-2.03625 17.6625,9.26625 -1.06875,2.035 -17.66,-9.265"
         style="fill:#8f6783;fill-opacity:1;fill-rule:nonzero;stroke:none"
         id="path1532"
         inkscape:connector-curvature="0" />
      <path
         d="m 186.82479,430.21554 1.565,-1.685 14.61625,13.57125 -1.56375,1.68375 -14.6175,-13.57"
         style="fill:#8f6783;fill-opacity:1;fill-rule:nonzero;stroke:none"
         id="path1534"
         inkscape:connector-curvature="0" />
      <path
         d="m 232.97354,451.46679 h 3.82861 v -16.97662 h -3.82861 z"
         style="fill:#8f6783;fill-opacity:1;fill-rule:nonzero;stroke:none"
         id="path1536"
         inkscape:connector-curvature="0" />
      <path
         d="m 216.74729,460.82929 h 3.82666 v -16.9775 h -3.82666 z"
         style="fill:#8f6783;fill-opacity:1;fill-rule:nonzero;stroke:none"
         id="path1538"
         inkscape:connector-curvature="0" />
      <path
         d="m 200.89479,451.21679 h 3.82715 v -16.9775 h -3.82715 z"
         style="fill:#8f6783;fill-opacity:1;fill-rule:nonzero;stroke:none"
         id="path1540"
         inkscape:connector-curvature="0" />
      <path
         d="m 186.16479,439.35929 h 3.82715 v -16.9775 h -3.82715 z"
         style="fill:#8f6783;fill-opacity:1;fill-rule:nonzero;stroke:none"
         id="path1544"
         inkscape:connector-curvature="0" />
      <path
         d="m 352.56854,419.21554 -6.925,-2.69125 0.04,-84.6075 4.6875,-0.0675 2.1975,87.36625"
         style="fill:#99676f;fill-opacity:1;fill-rule:nonzero;stroke:none"
         id="path1546"
         inkscape:connector-curvature="0" />
      <path
         d="m 352.56854,419.21554 -2.8625,-1.05 -4.0225,-86.24875 4.6875,-0.0675 2.1975,87.36625"
         style="fill:#745252;fill-opacity:1;fill-rule:nonzero;stroke:none"
         id="path1548"
         inkscape:connector-curvature="0" />
      <path
         d="m 374.15479,339.49179 c -0.1075,-7.32625 -5.075,-13.37625 -11.5975,-14.75875 0.95375,-1.73625 1.49625,-3.75375 1.465,-5.91125 -0.0925,-6.325 -5.005,-11.37875 -10.9775,-11.29125 -5.2575,0.075 -9.575,4.1175 -10.4675,9.40125 -1.31125,-0.5725 -2.75,-0.87875 -4.2575,-0.85625 -5.97,0.0863 -10.735,5.2825 -10.6425,11.60625 0.0312,2.0875 0.5975,4.03 1.545,5.70375 -5.38625,2 -9.21375,7.45875 -9.12,13.83625 0.1,6.83125 4.66,12.4775 10.69625,13.89875 0.35125,9.96625 8.15375,17.86875 17.61375,17.73 9.58875,-0.14 17.24,-8.4875 17.0925,-18.64125 -0.0325,-2.13125 -0.41,-4.17 -1.06625,-6.0675 5.73625,-2.07875 9.81375,-7.87875 9.71625,-14.65"
         style="fill:#fffdf4;fill-opacity:1;fill-rule:nonzero;stroke:none"
         id="path1550"
         inkscape:connector-curvature="0" />
      <path
         d="m 372.67104,338.39804 c -0.11,-7.32875 -3.59125,-12.2825 -10.11375,-13.665 0.95375,-1.73625 1.49625,-3.75375 1.465,-5.91125 -0.0312,-2.14125 -0.62375,-4.13 -1.61375,-5.8275 0.05,4.46 -1.96875,8.42375 -5.10375,10.89875 3.21875,2.39 5.35625,6.315 5.4225,10.7925 0.10625,7.41 -5.4725,13.49875 -12.4675,13.60125 -0.92375,0.0125 -1.82,-0.0838 -2.68875,-0.27125 0.0462,0.485 0.0775,0.97125 0.0838,1.465 0.1375,9.40875 -6.9175,17.1475 -15.785,17.3475 2.48625,7.1075 9.03375,10.97 16.59375,10.8575 9.58875,-0.13875 14.9525,-8.97375 14.8025,-19.13 -0.03,-2.13125 -0.405,-4.17 -1.06375,-6.06625 5.735,-2.08 10.56875,-7.32 10.46875,-14.09125"
         style="fill:#cfeed3;fill-opacity:1;fill-rule:nonzero;stroke:none"
         id="path1552"
         inkscape:connector-curvature="0" />
      <path
         d="m 355.15229,251.33179 6.69125,13.8925 8.19125,-10.6775 8.80875,9.8725 8.59125,-13.27125 10.57,7.8975 -27.7925,-58.02375 -27.5725,58.7875 12.5125,-8.4775"
         style="fill:#fff4f6;fill-opacity:1;fill-rule:nonzero;stroke:none"
         id="path1554"
         inkscape:connector-curvature="0" />
      <path
         d="m 462.86604,327.59679 3.1075,6.94875 7.85,-3.03875 5.9725,5.57625 5.80875,-6.865 7.525,4.24375 4.37625,-5.40875 8.7975,2.34875 -27.315,-27.93875 -27.175,28.315 11.0525,-4.18125"
         style="fill:#fff4f6;fill-opacity:1;fill-rule:nonzero;stroke:none"
         id="path1556"
         inkscape:connector-curvature="0" />
      <path
         d="m 598.21729,389.38554 5.4525,5.95125 6.86625,-6.07625 7.9475,5.82625 4.16,-5.8675 7.8725,2.55625 -20.875,-27.93875 -20.77,28.315 9.34625,-2.76625"
         style="fill:#fff4f6;fill-opacity:1;fill-rule:nonzero;stroke:none"
         id="path1558"
         inkscape:connector-curvature="0" />
      <path
         d="m 610.53604,389.26054 7.9475,5.82625 4.16,-5.8675 7.8725,2.55625 -20.875,-27.93875 0.895,25.42375"
         style="fill:#e8bdc4;fill-opacity:1;fill-rule:nonzero;stroke:none"
         id="path1560"
         inkscape:connector-curvature="0" />
      <path
         d="m 485.60479,330.21804 7.525,4.24375 4.37625,-5.40875 8.7975,2.34875 -27.315,-27.93875 6.61625,26.755"
         style="fill:#e8bdc4;fill-opacity:1;fill-rule:nonzero;stroke:none"
         id="path1562"
         inkscape:connector-curvature="0" />
      <path
         d="m 378.84354,264.41929 8.59125,-13.27125 10.57,7.8975 -27.7925,-58.02375 8.63125,63.3975"
         style="fill:#e8bdc4;fill-opacity:1;fill-rule:nonzero;stroke:none"
         id="path1564"
         inkscape:connector-curvature="0" />
      <path
         d="m 213.50854,470.12304 c 16.46625,0 38.83625,-3.41375 57.46,-18.4525 20.99375,-16.95125 24.37,-40.11 23.03125,-51.62625 l -6.93375,0.005 c 1.25125,9.18375 -1.355,30.90625 -20.4025,46.2875 -24.65875,19.91125 -56.855,17.63875 -69.5525,15.735 -15.39875,-2.30625 -26.3725,-7.41375 -28.81125,-11.01875 l -5.06375,4.59375 c 4.59875,5.74375 17.3025,10.87375 32.86125,13.20375 4.135,0.62 10.20875,1.2725 17.41125,1.2725"
         style="fill:#95d3e4;fill-opacity:1;fill-rule:nonzero;stroke:none"
         id="path1622"
         inkscape:connector-curvature="0" />
      <path
         d="m 507.51229,465.30304 c 11.48875,0 24.38875,-1.0175 38.7775,-3.3175 2.87875,-0.46125 28.98875,-5.38125 37.775,-17.1875 l -6.08375,-3.64125 c -5.835,7.84125 -23.9975,12.65625 -32.77375,14.05875 -57.8975,9.26125 -90.35125,-3.10625 -101.0575,-16.8875 l -7.2775,1.73625 c 1.91625,2.73625 5.4075,6.6325 8.60625,9.14 11.665,9.1425 31.99625,16.09875 62.03375,16.09875"
         style="fill:#95d3e4;fill-opacity:1;fill-rule:nonzero;stroke:none"
         id="path1624"
         inkscape:connector-curvature="0" />
      <path
         d="m 444.14979,438.32804 c 1.70625,2.2 3.97,4.44875 6.8025,6.49375 -1.74125,1.44 -3.82625,3.23875 -5.47375,4.4675 -3.19875,-2.50625 -6.7475,-6.46875 -8.66375,-9.20375 l 7.335,-1.7575"
         style="fill:#51a8d1;fill-opacity:1;fill-rule:nonzero;stroke:none"
         id="path1626"
         inkscape:connector-curvature="0" />
      <path
         d="m 554.24479,453.25929 c 8.89125,-2.36125 19.5575,-6.39125 23.7675,-12.04875 l 6.08375,3.64125 c -5.19125,6.975 -16.43,11.54625 -25.35,14.21625 -1.39375,-2.1675 -3.685,-4.845 -4.50125,-5.80875"
         style="fill:#51a8d1;fill-opacity:1;fill-rule:nonzero;stroke:none"
         id="path1628"
         inkscape:connector-curvature="0" />
      <g
         transform="matrix(1.2396932,-0.16018952,-0.16018952,-1.2396932,27.416277,1021.7904)"
         id="g4671">
        <g
           transform="rotate(-3.2056384,356.89833,614.07533)"
           id="g4677">
          <path
             d="m 328.92939,628.89069 h 26.56642 v 20.67589 h -26.56642 z"
             style="fill:#e4e4e4;fill-opacity:1;fill-rule:nonzero;stroke:none"
             id="path1634"
             inkscape:connector-curvature="0" />
          <path
             d="m 355.41303,614.94996 h 1.01947 v 34.62196 h -1.01947 z"
             style="fill:#b1b1b0;fill-opacity:1;fill-rule:nonzero;stroke:none"
             id="path1542"
             inkscape:connector-curvature="0" />
          <path
             sodipodi:nodetypes="cccccc"
             inkscape:connector-curvature="0"
             id="path4363"
             d="m 342.46315,631.12419 -9.66641,10.37709 3.9077,4.20272 11.57649,0.0126 4.00287,-4.26716 z"
             style="fill:#ce3227;fill-opacity:1;fill-rule:evenodd;stroke:none;stroke-width:0.80000001px;stroke-linecap:butt;stroke-linejoin:miter;stroke-opacity:1" />
          <path
             sodipodi:nodetypes="ccccc"
             inkscape:connector-curvature="0"
             id="path4365"
             d="m 332.72197,641.4491 3.98209,4.27455 8.35415,-0.0121 -8.1681,-8.79312 z"
             style="fill:#e97972;fill-opacity:1;fill-rule:evenodd;stroke:none;stroke-width:0.80000001px;stroke-linecap:butt;stroke-linejoin:miter;stroke-opacity:1" />
        </g>
      </g>
    </g>
    <g
       transform="matrix(1.3994719,0,0,1.3994719,706.8039,415.86074)"
       id="layer1-6"
       inkscape:label="Layer 1">
      <g
         id="flowRoot7384"
         style="font-style:normal;font-variant:normal;font-weight:normal;font-stretch:condensed;font-size:40px;line-height:125%;font-family:Impact;-inkscape-font-specification:'Impact Condensed';letter-spacing:0px;word-spacing:0px;fill:#53a4c4;fill-opacity:1;stroke:none;stroke-width:1px;stroke-linecap:butt;stroke-linejoin:miter;stroke-opacity:1"
         transform="translate(-568.33946,-70.834665)">
        <path
           id="path7338"
           style="fill:#d44254;fill-opacity:1"
           d="m 121.82813,-39.240885 v 8 h 4.6875 q 1.62499,0 2.18749,-0.8125 0.5625,-0.875 0.5625,-2.125 v -2.125 q 0,-1.25 -0.5625,-2.0625 -0.5625,-0.875 -2.18749,-0.875 z m -2.25,33.7499996 h -9.625 q -1.1875,0 -1.75,-0.5 -0.5,-0.5625 -0.5,-1.75 V -48.240885 q 0,-1.1875 0.5,-1.6875 0.5625,-0.5625 1.75,-0.5625 h 20.81249 q 7,0 9.625,2.9375 2.6875,2.875 2.6875,7.5 v 2.875 q 0,2.625 -0.8125,4.5 -0.75,1.8125 -2.6875,2.625 3.375,0.375 5.4375,2.75 2.125,2.375 2.125,6.3125 v 13.2499996 q 0,1.1875 -0.5625,1.75 -0.5,0.5 -1.6875,0.5 h -9.6875 q -1.1875,0 -1.75,-0.5 -0.5,-0.5625 -0.5,-1.75 v -9.5624996 q 0,-1.375 -0.5625,-2 -0.5,-0.6875 -1.8125,-0.6875 h -8.74999 v 12.2499996 q 0,1.1875 -0.5625,1.75 -0.5,0.5 -1.6875,0.5 z"
           inkscape:connector-curvature="0" />
        <path
           id="path7340"
           style="fill:#d44254;fill-opacity:1"
           d="m 192.40234,-17.303385 q 0,2.875 -0.875,5.25 -0.8125,2.3124996 -3,3.9999996 -2.125,1.625 -5.875,2.5625 -3.75,0.9375 -9.5625,0.9375 -5.8125,0 -9.5625,-0.9375 -3.75,-0.9375 -5.9375,-2.5625 -2.125,-1.6875 -3,-3.9999996 -0.8125,-2.375 -0.8125,-5.25 v -30.9375 q 0,-1.1875 0.5,-1.6875 0.5625,-0.5625 1.75,-0.5625 h 9.8125 q 1.1875,0 1.6875,0.5625 0.5625,0.5 0.5625,1.6875 v 28.5 q 0,1.25 0.9375,2.125 0.9375,0.8125 4.1875,0.8125 3.3125,0 4.25,-0.8125 0.9375,-0.875 0.9375,-2.125 v -28.5 q 0,-1.1875 0.5,-1.6875 0.5625,-0.5625 1.75,-0.5625 h 9.5 q 1.1875,0 1.6875,0.5625 0.5625,0.5 0.5625,1.6875 z"
           inkscape:connector-curvature="0" />
        <path
           id="path7342"
           style="fill:#d44254;fill-opacity:1"
           d="m 226.9707,-5.4908854 h -24 q -1.1875,0 -1.75,-0.5 -0.5,-0.5625 -0.5,-1.75 V -48.240885 q 0,-1.1875 0.5,-1.6875 0.5625,-0.5625 1.75,-0.5625 h 19.9375 q 6.125,0 9.0625,2.375 2.9375,2.3125 2.9375,7.1875 v 3 q 0,2.625 -0.9375,4.3125 -0.875,1.625 -2.75,2.4375 4,0.375 5.9375,2.75 1.9375,2.375 1.9375,6.9375 v 5.75 q 0,5.25 -3,7.7499996 -2.9375,2.5 -9.125,2.5 z M 214.7832,-39.865885 v 6.75 h 5.3125 q 1.1875,0 1.75,-0.625 0.625,-0.625 0.625,-1.875 v -1.75 q 0,-1.25 -0.625,-1.875 -0.5625,-0.625 -1.75,-0.625 z m 0,16.375 v 7.375 h 8.125 q 1.1875,0 1.75,-0.625 0.625,-0.625 0.625,-1.875 v -2.4375 q 0,-1.25 -0.625,-1.8125 -0.5625,-0.625 -1.75,-0.625 z"
           inkscape:connector-curvature="0" />
        <path
           id="path7344"
           style="fill:#d44254;fill-opacity:1"
           d="m 267.60059,-5.4908854 h -10.125 q -1.1875,0 -1.75,-0.5 -0.5,-0.5625 -0.5,-1.75 v -7.9999996 l -9.5625,-12.8125 q -1.4375,-1.9375 -1.9375,-3.375 -0.4375,-1.4375 -0.4375,-4.3125 v -12 q 0,-1.1875 0.5,-1.6875 0.5625,-0.5625 1.75,-0.5625 h 9.625 q 1.1875,0 1.6875,0.5625 0.5625,0.5 0.5625,1.6875 v 10.25 q 0,0.625 0.0625,1.3125 0.0625,0.6875 0.5,1.3125 l 2.875,4.5 q 0.3125,0.5625 0.625,0.8125 0.375,0.25 0.875,0.25 h 0.625 q 0.5,0 0.8125,-0.25 0.375,-0.25 0.6875,-0.8125 l 2.875,-4.5 q 0.4375,-0.625 0.5,-1.3125 0.0625,-0.6875 0.0625,-1.3125 v -10.25 q 0,-1.1875 0.5,-1.6875 0.5625,-0.5625 1.75,-0.5625 h 9.3125 q 1.1875,0 1.6875,0.5625 0.5625,0.5 0.5625,1.6875 v 12 q 0,2.875 -0.5,4.3125 -0.5,1.4375 -1.875,3.375 l -9.5,12.875 v 7.9374996 q 0,1.1875 -0.5625,1.75 -0.5,0.5 -1.6875,0.5 z"
           inkscape:connector-curvature="0" />
        <path
           id="path7346"
           style="font-style:normal;font-variant:normal;font-weight:normal;font-stretch:normal;font-size:62.5px;font-family:Bungee;-inkscape-font-specification:Bungee;fill:#53a4c4;fill-opacity:1"
           d="m 341.01855,-17.303385 q 0,2.875 -0.875,5.25 -0.8125,2.3124996 -3,3.9999996 -2.125,1.625 -5.9375,2.5625 -3.75,0.9375 -9.5625,0.9375 -5.8125,0 -9.625,-0.9375 -3.8125,-0.9375 -6,-2.5625 -2.125,-1.6875 -3,-3.9999996 -0.8125,-2.375 -0.8125,-5.25 v -21.3125 q 0,-2.875 0.8125,-5.1875 0.875,-2.375 3,-4.0625 2.1875,-1.6875 6,-2.625 3.8125,-0.9375 9.625,-0.9375 5.8125,0 9.5625,0.9375 3.8125,0.9375 5.9375,2.625 2.1875,1.6875 3,4.0625 0.875,2.3125 0.875,5.1875 z m -24.625,-2.25 q 0,1.25 0.9375,2.125 0.9375,0.8125 4.3125,0.8125 3.375,0 4.3125,-0.8125 0.9375,-0.875 0.9375,-2.125 v -16.8125 q 0,-1.1875 -0.9375,-2 -0.9375,-0.875 -4.3125,-0.875 -3.375,0 -4.3125,0.875 -0.9375,0.8125 -0.9375,2 z"
           inkscape:connector-curvature="0" />
        <path
           id="path7348"
           style="font-style:normal;font-variant:normal;font-weight:normal;font-stretch:normal;font-size:62.5px;font-family:Bungee;-inkscape-font-specification:Bungee;fill:#53a4c4;fill-opacity:1"
           d="m 360.53906,-5.4908854 h -9.375 q -1.1875,0 -1.75,-0.5 -0.5,-0.5625 -0.5,-1.75 V -48.240885 q 0,-1.1875 0.5,-1.6875 0.5625,-0.5625 1.75,-0.5625 h 6.5 q 1.1875,0 2,0.375 0.875,0.375 1.6875,1.3125 l 12.125,13.875 v -13.3125 q 0,-1.1875 0.5,-1.6875 0.5625,-0.5625 1.75,-0.5625 h 9.375 q 1.1875,0 1.6875,0.5625 0.5625,0.5 0.5625,1.6875 v 40.4999996 q 0,1.1875 -0.5625,1.75 -0.5,0.5 -1.6875,0.5 h -9.375 q -1.1875,0 -1.75,-0.5 -0.5,-0.5625 -0.5,-1.75 v -7.6874996 l -10.6875,-12.9375 v 20.6249996 q 0,1.1875 -0.5625,1.75 -0.5,0.5 -1.6875,0.5 z"
           inkscape:connector-curvature="0" />
        <path
           id="path7350"
           style="font-style:normal;font-variant:normal;font-weight:normal;font-stretch:normal;font-size:62.5px;font-family:Bungee;-inkscape-font-specification:Bungee;fill:#53a4c4;fill-opacity:1"
           d="m 411.32129,-5.4908854 q -1.1875,0 -1.75,-0.5 -0.5,-0.5625 -0.5,-1.75 v -7.4374996 q 0,-1.1875 0.5,-1.6875 0.5625,-0.5625 1.75,-0.5625 h 6.1875 v -21 h -6.1875 q -1.1875,0 -1.75,-0.5 -0.5,-0.5625 -0.5,-1.75 v -7.5625 q 0,-1.1875 0.5,-1.6875 0.5625,-0.5625 1.75,-0.5625 h 26.625 q 1.1875,0 1.6875,0.5625 0.5625,0.5 0.5625,1.6875 v 7.5625 q 0,1.1875 -0.5625,1.75 -0.5,0.5 -1.6875,0.5 h -6.0625 v 21 h 6.0625 q 1.1875,0 1.6875,0.5625 0.5625,0.5 0.5625,1.6875 v 7.4374996 q 0,1.1875 -0.5625,1.75 -0.5,0.5 -1.6875,0.5 z"
           inkscape:connector-curvature="0" />
        <path
           id="path7352"
           style="font-style:normal;font-variant:normal;font-weight:normal;font-stretch:normal;font-size:62.5px;font-family:Bungee;-inkscape-font-specification:Bungee;fill:#53a4c4;fill-opacity:1"
           d="m 477.85059,-5.4908854 h -15.25 q -7.8125,0 -11.625,-3.125 -3.75,-3.1249996 -3.75,-9.6249996 v -19.4375 q 0,-6.5 3.75,-9.625 3.8125,-3.1875 11.625,-3.1875 h 15.25 q 1.1875,0 1.6875,0.5625 0.5625,0.5 0.5625,1.6875 v 7.5625 q 0,1.1875 -0.5625,1.75 -0.5,0.5 -1.6875,0.5 h -12.5625 q -1.9375,0 -2.875,0.8125 -0.9375,0.75 -0.9375,2.3125 v 14.875 q 0,1.5625 0.9375,2.3125 0.9375,0.6875 2.875,0.6875 h 12.5625 q 1.1875,0 1.6875,0.5625 0.5625,0.5 0.5625,1.6875 v 7.4374996 q 0,1.1875 -0.5625,1.75 -0.5,0.5 -1.6875,0.5 z"
           inkscape:connector-curvature="0" />
        <path
           id="path7354"
           style="font-style:normal;font-variant:normal;font-weight:normal;font-stretch:normal;font-size:62.5px;font-family:Bungee;-inkscape-font-specification:Bungee;fill:#53a4c4;fill-opacity:1"
           d="m 518.46973,-5.4908854 h -29 q -1.1875,0 -1.75,-0.5 -0.5,-0.5625 -0.5,-1.75 V -48.240885 q 0,-1.1875 0.5,-1.6875 0.5625,-0.5625 1.75,-0.5625 h 29 q 1.1875,0 1.6875,0.5625 0.5625,0.5 0.5625,1.6875 v 7.3125 q 0,1.1875 -0.5625,1.75 -0.5,0.5 -1.6875,0.5 h -17.25 v 4.8125 h 12.1875 q 1.1875,0 1.6875,0.5625 0.5625,0.5 0.5625,1.6875 v 6.6875 q 0,1.1875 -0.5625,1.75 -0.5,0.5 -1.6875,0.5 h -12.1875 v 5.375 h 17.25 q 1.1875,0 1.6875,0.5625 0.5625,0.5 0.5625,1.6875 v 7.3124996 q 0,1.1875 -0.5625,1.75 -0.5,0.5 -1.6875,0.5 z"
           inkscape:connector-curvature="0" />
      </g>
      <path
         sodipodi:nodetypes="cccc"
         inkscape:connector-curvature="0"
         id="path4382"
         d="m -367.70177,-121.22553 -0.0415,32.435873 31.46475,-32.482673 z"
         style="fill:#ffffff;fill-opacity:0.23999999;fill-rule:evenodd;stroke:none;stroke-width:0.80000001px;stroke-linecap:butt;stroke-linejoin:miter;stroke-opacity:1" />
      <path
         sodipodi:nodetypes="cccc"
         inkscape:connector-curvature="0"
         id="path4382-5"
         d="m -460.91019,-121.63506 -0.0415,32.435878 31.46475,-32.482678 z"
         style="fill:#ffffff;fill-opacity:0.23999999;fill-rule:evenodd;stroke:none;stroke-width:0.80000001px;stroke-linecap:butt;stroke-linejoin:miter;stroke-opacity:1" />
      <path
         sodipodi:nodetypes="cccc"
         inkscape:connector-curvature="0"
         id="path4382-6"
         d="m -325.36903,-121.46043 -0.0415,32.435873 31.46475,-32.482673 z"
         style="fill:#ffffff;fill-opacity:0.23999999;fill-rule:evenodd;stroke:none;stroke-width:0.80000001px;stroke-linecap:butt;stroke-linejoin:miter;stroke-opacity:1" />
      <path
         sodipodi:nodetypes="cccc"
         inkscape:connector-curvature="0"
         id="path4382-6-2"
         d="m -414.63175,-121.86208 -0.0415,32.435873 31.46475,-32.482673 z"
         style="fill:#ffffff;fill-opacity:0.23999999;fill-rule:evenodd;stroke:none;stroke-width:0.80000001px;stroke-linecap:butt;stroke-linejoin:miter;stroke-opacity:1" />
      <path
         sodipodi:nodetypes="cccc"
         inkscape:connector-curvature="0"
         id="path4382-6-9"
         d="m -219.65657,-121.63721 -0.0415,32.435878 31.46476,-32.482678 z"
         style="fill:#ffffff;fill-opacity:0.23999999;fill-rule:evenodd;stroke:none;stroke-width:0.80000001px;stroke-linecap:butt;stroke-linejoin:miter;stroke-opacity:1" />
      <path
         sodipodi:nodetypes="cccc"
         inkscape:connector-curvature="0"
         id="path4382-6-9-1"
         d="m -266.67918,-122.69788 -0.0415,32.435873 31.46475,-32.482673 z"
         style="fill:#ffffff;fill-opacity:0.23999999;fill-rule:evenodd;stroke:none;stroke-width:0.80000001px;stroke-linecap:butt;stroke-linejoin:miter;stroke-opacity:1" />
      <path
         sodipodi:nodetypes="cccc"
         inkscape:connector-curvature="0"
         id="path4382-6-9-2"
         d="m -159.60619,-121.98203 -0.0415,32.435873 31.46475,-32.482673 z"
         style="fill:#ffffff;fill-opacity:0.23999999;fill-rule:evenodd;stroke:none;stroke-width:0.80000001px;stroke-linecap:butt;stroke-linejoin:miter;stroke-opacity:1" />
      <path
         sodipodi:nodetypes="cccc"
         inkscape:connector-curvature="0"
         id="path4382-6-9-2-7"
         d="m -81.606193,-121.98203 -0.0415,32.435873 31.46475,-32.482673 z"
         style="fill:#ffffff;fill-opacity:0.23999999;fill-rule:evenodd;stroke:none;stroke-width:0.80000001px;stroke-linecap:butt;stroke-linejoin:miter;stroke-opacity:1" />
      <path
         sodipodi:nodetypes="cccc"
         inkscape:connector-curvature="0"
         id="path4382-6-9-2-7-0"
         d="m -121.61355,-122.07518 -0.0415,32.435873 31.464747,-32.482673 z"
         style="fill:#ffffff;fill-opacity:0.23999999;fill-rule:evenodd;stroke:none;stroke-width:0.80000001px;stroke-linecap:butt;stroke-linejoin:miter;stroke-opacity:1" />
    </g>
    <rect
       style="fill:#1a1a1a;fill-opacity:0;stroke-width:0.9375"
       id="rect4928"
       width="711.21051"
       height="483.92618"
       x="44.351791"
       y="-384.85379" />
  </g>
</svg>
