<?xml version="1.0" encoding="utf-8"?>
<!-- Generator: Adobe Illustrator 16.0.0, SVG Export Plug-In . SVG Version: 6.00 Build 0)  -->
<!DOCTYPE svg PUBLIC "-//W3C//DTD SVG 1.1//EN" "http://www.w3.org/Graphics/SVG/1.1/DTD/svg11.dtd">
<svg version="1.1" xmlns="http://www.w3.org/2000/svg" xmlns:xlink="http://www.w3.org/1999/xlink" x="0px" y="0px" width="1500px"
	 height="1500px" viewBox="0 0 1500 1500" enable-background="new 0 0 1500 1500" xml:space="preserve">
<g id="Background">
	<rect fill="#D3360B" width="1500" height="1500"/>
</g>
<g id="Heart">
	<g>
		<rect x="366.012" y="549.325" fill="#FFFFFF" width="109.711" height="219.425"/>
		<rect x="1024.271" y="549.325" fill="#FFFFFF" width="109.717" height="219.425"/>
		<rect x="695.136" y="549.331" fill="#FFFFFF" width="109.72" height="109.711"/>
		<rect x="914.563" y="768.75" fill="#FFFFFF" width="109.708" height="109.711"/>
		<rect x="804.853" y="878.461" fill="#FFFFFF" width="109.711" height="109.705"/>
		<rect x="695.136" y="988.172" fill="#FFFFFF" width="109.72" height="109.705"/>
		<rect x="585.434" y="878.461" fill="#FFFFFF" width="109.708" height="109.705"/>
		<rect x="475.717" y="768.75" fill="#FFFFFF" width="109.717" height="109.711"/>
		<rect x="475.723" y="439.623" fill="#FFFFFF" width="219.419" height="109.708"/>
		<rect x="804.853" y="439.623" fill="#FFFFFF" width="219.419" height="109.708"/>
	</g>
</g>
<g id="Rails_Girls">
	<g>
		<rect y="126" fill="none" width="1500" height="183"/>
		<path fill="#FFFFFF" d="M390.346,305.707h-39.743L319.747,243.5h-34.806v62.207h-34.559V132.911h80.474
			c17.279,0,31.265,4.528,41.964,13.577c11.683,9.874,17.526,23.617,17.526,41.224c0,25.179-11.027,42.13-33.078,50.851
			L390.346,305.707z M354.8,188.453c0-14.646-8.231-21.97-24.685-21.97h-45.174v44.433h45.174
			C346.569,210.916,354.8,203.429,354.8,188.453z"/>
		<path fill="#FFFFFF" d="M510.313,305.707h-34.065v-8.64c-7.243,7.571-16.952,11.355-29.128,11.355
			c-13.168,0-24.276-3.784-33.325-11.355c-10.04-8.393-15.058-19.995-15.058-34.806c0-13.824,5.099-24.6,15.305-32.337
			c9.38-7.074,21.804-10.614,37.274-10.614c9.708,0,18.02,1.728,24.932,5.184v-6.418c0-4.771-1.604-8.721-4.813-11.849
			c-3.209-3.124-7.776-4.69-13.7-4.69c-13.002,0-24.851,2.881-35.546,8.64l-13.083-23.698c15.139-8.721,31.35-13.083,48.629-13.083
			c15.96,0,28.716,3.992,38.262,11.972c9.542,7.984,14.317,19.131,14.317,33.448V305.707z M476.248,267.691v-16.292
			c-5.762-3.618-13.662-5.431-23.697-5.431c-13.168,0-19.748,5.431-19.748,16.292c0,11.521,6.58,17.28,19.748,17.28
			C463.573,279.541,471.473,275.591,476.248,267.691z"/>
		<path fill="#FFFFFF" d="M563.386,145.994c0,5.269-1.936,9.835-5.801,13.7c-3.869,3.869-8.436,5.801-13.7,5.801
			c-5.269,0-9.835-1.933-13.7-5.801c-3.869-3.865-5.801-8.431-5.801-13.7c0-5.265,1.933-9.832,5.801-13.7
			c3.865-3.865,8.431-5.801,13.7-5.801c5.265,0,9.832,1.936,13.7,5.801C561.45,136.163,563.386,140.729,563.386,145.994z
			 M560.917,305.707h-34.065V176.11h34.065V305.707z"/>
		<path fill="#FFFFFF" d="M614.236,305.707h-34.065V143.009L614.236,126V305.707z"/>
		<path fill="#FFFFFF" d="M734.946,267.938c0,26.992-17.611,40.483-52.826,40.483c-21.067,0-39.168-5.018-54.307-15.058
			l11.355-25.919c14.317,7.899,29.291,11.849,44.927,11.849c11.517,0,17.28-3.29,17.28-9.874c0-2.962-1.358-5.346-4.073-7.159
			c-2.715-1.809-7.695-3.784-14.935-5.924c-18.267-5.431-30.694-10.615-37.274-15.552c-9.218-6.746-13.823-16.373-13.823-28.881
			c0-12.998,4.852-22.791,14.564-29.375c8.887-6.086,21.31-9.134,37.274-9.134c16.786,0,32.746,4.197,47.889,12.589l-10.861,26.907
			c-12.836-6.912-25.426-10.368-37.769-10.368c-11.687,0-17.526,2.8-17.526,8.393c0,2.634,1.605,4.856,4.814,6.665
			c3.209,1.812,10.572,4.609,22.093,8.393c14.317,4.609,24.438,9.299,30.363,14.071
			C730.665,246.956,734.946,256.255,734.946,267.938z"/>
		<path fill="#FFFFFF" d="M945.505,238.81c0,21.723-6.584,38.84-19.748,51.345c-12.509,12.181-29.048,18.267-49.617,18.267
			c-22.71,0-40.978-8.061-54.801-24.191c-13.823-16.126-20.735-37.768-20.735-64.921c0-26.329,7.158-47.766,21.476-64.305
			s32.746-24.809,55.295-24.809c31.265,0,53.072,14.402,65.415,43.199l-32.831,13.577c-3.622-7.405-7.571-12.751-11.849-16.045
			c-5.431-4.277-12.509-6.418-21.229-6.418c-12.674,0-22.629,5.022-29.868,15.058c-7.244,10.04-10.862,23.289-10.862,39.743
			c0,16.292,3.618,29.46,10.862,39.496c7.405,10.533,17.441,15.798,30.115,15.798c20.242,0,31.512-8.721,33.818-26.167h-27.4V216.1
			h61.96V238.81z"/>
		<path fill="#FFFFFF" d="M997.589,145.994c0,5.269-1.936,9.835-5.801,13.7c-3.868,3.869-8.436,5.801-13.7,5.801
			c-5.269,0-9.835-1.933-13.7-5.801c-3.868-3.865-5.801-8.431-5.801-13.7c0-5.265,1.933-9.832,5.801-13.7
			c3.865-3.865,8.432-5.801,13.7-5.801c5.265,0,9.832,1.936,13.7,5.801C995.653,136.163,997.589,140.729,997.589,145.994z
			 M995.121,305.707h-34.065V176.11h34.065V305.707z"/>
		<path fill="#FFFFFF" d="M1097.811,182.528l-8.887,33.325c-6.091-5.593-12.675-8.393-19.748-8.393
			c-7.244,0-12.59,1.894-16.046,5.678c-3.949,4.443-5.924,11.934-5.924,22.463v70.105h-34.065V176.11h34.065v8.64
			c7.239-7.568,16.126-11.355,26.66-11.355C1084.067,173.395,1092.048,176.442,1097.811,182.528z"/>
		<path fill="#FFFFFF" d="M1137.799,305.707h-34.065V143.009L1137.799,126V305.707z"/>
		<path fill="#FFFFFF" d="M1258.508,267.938c0,26.992-17.611,40.483-52.826,40.483c-21.066,0-39.168-5.018-54.307-15.058
			l11.355-25.919c14.317,7.899,29.29,11.849,44.927,11.849c11.517,0,17.279-3.29,17.279-9.874c0-2.962-1.357-5.346-4.073-7.159
			c-2.715-1.809-7.694-3.784-14.935-5.924c-18.267-5.431-30.694-10.615-37.274-15.552c-9.218-6.746-13.823-16.373-13.823-28.881
			c0-12.998,4.852-22.791,14.564-29.375c8.886-6.086,21.31-9.134,37.274-9.134c16.785,0,32.746,4.197,47.889,12.589l-10.861,26.907
			c-12.836-6.912-25.426-10.368-37.769-10.368c-11.687,0-17.526,2.8-17.526,8.393c0,2.634,1.604,4.856,4.813,6.665
			c3.209,1.812,10.572,4.609,22.094,8.393c14.317,4.609,24.438,9.299,30.362,14.071
			C1254.227,246.956,1258.508,256.255,1258.508,267.938z"/>
	</g>
</g>
<g id="Hamburg_1_">
	<g>
		<rect y="1209" fill="none" width="1500" height="228"/>
		<path fill="#FFFFFF" d="M427.863,1388.706h-34.559v-72.574h-70.846v72.574h-34.559v-172.795h34.559v66.155h70.846v-66.155h34.559
			V1388.706z"/>
		<path fill="#FFFFFF" d="M555.977,1388.706h-34.065v-8.64c-7.243,7.571-16.952,11.355-29.128,11.355
			c-13.168,0-24.276-3.784-33.325-11.355c-10.04-8.393-15.058-19.995-15.058-34.806c0-13.824,5.099-24.601,15.305-32.338
			c9.38-7.074,21.804-10.614,37.274-10.614c9.708,0,18.02,1.728,24.932,5.184v-6.418c0-4.771-1.604-8.721-4.813-11.849
			c-3.209-3.124-7.776-4.69-13.7-4.69c-13.002,0-24.851,2.881-35.546,8.64l-13.083-23.697c15.139-8.721,31.35-13.083,48.629-13.083
			c15.96,0,28.716,3.991,38.262,11.972c9.542,7.984,14.317,19.131,14.317,33.448V1388.706z M521.912,1350.691v-16.292
			c-5.762-3.618-13.662-5.432-23.697-5.432c-13.168,0-19.748,5.432-19.748,16.293c0,11.521,6.58,17.279,19.748,17.279
			C509.237,1362.54,517.137,1358.59,521.912,1350.691z"/>
		<path fill="#FFFFFF" d="M756.914,1388.706h-34.066v-70.105c0-11.189-1.647-19.008-4.938-23.451
			c-3.293-4.443-8.559-6.665-15.798-6.665c-7.243,0-12.508,2.06-15.798,6.172c-3.456,4.609-5.184,12.342-5.184,23.204v70.846
			h-34.065v-70.105c0-11.189-1.647-19.008-4.937-23.451c-3.294-4.443-8.559-6.665-15.799-6.665c-7.243,0-12.508,2.06-15.798,6.172
			c-3.456,4.609-5.184,12.342-5.184,23.204v70.846h-34.065v-129.597h34.065v8.64c7.24-7.567,16.701-11.354,28.388-11.354
			c14.973,0,26.907,5.516,35.793,16.539c10.695-11.023,24.438-16.539,41.224-16.539c30.771,0,46.162,19.748,46.162,59.244V1388.706z
			"/>
		<path fill="#FFFFFF" d="M884.288,1325.513c0,19.748-4.362,35.546-13.083,47.395c-9.053,12.343-21.477,18.515-37.274,18.515
			c-10.861,0-19.995-3.371-27.4-10.121v7.405h-34.065v-162.697l34.065-17.01v58.257c8.227-7.24,17.36-10.861,27.4-10.861
			c14.811,0,26.66,5.431,35.546,16.292C879.351,1284.867,884.288,1302.475,884.288,1325.513z M849.729,1326.253
			c0-25.179-7.405-37.769-22.216-37.769c-8.394,0-15.39,3.622-20.982,10.861v48.877c5.431,7.405,13.083,11.108,22.957,11.108
			C842.979,1359.331,849.729,1348.308,849.729,1326.253z"/>
		<path fill="#FFFFFF" d="M1006.23,1388.706h-34.065v-8.64c-7.243,7.571-17.364,11.355-30.362,11.355
			c-31.929,0-47.889-19.748-47.889-59.244v-73.068h34.065v70.105c0,11.193,1.809,19.008,5.431,23.451
			c3.618,4.443,9.133,6.665,16.539,6.665c14.811,0,22.216-9.789,22.216-29.375v-70.847h34.065V1388.706z"/>
		<path fill="#FFFFFF" d="M1107.439,1265.527l-8.887,33.325c-6.091-5.593-12.675-8.393-19.748-8.393
			c-7.244,0-12.59,1.894-16.046,5.677c-3.949,4.443-5.924,11.934-5.924,22.464v70.105h-34.065v-129.597h34.065v8.64
			c7.239-7.567,16.126-11.354,26.66-11.354C1093.696,1256.395,1101.677,1259.441,1107.439,1265.527z"/>
		<path fill="#FFFFFF" d="M1217.533,1366.736c0,22.544-3.622,38.837-10.861,48.876c-8.231,11.518-23.204,18.43-44.927,20.736
			l-12.096-25.673c13.33-1.812,22.297-4.775,26.906-8.887c4.605-4.115,6.912-11.193,6.912-21.229
			c-8.231,7.244-17.364,10.862-27.4,10.862c-14.812,0-26.66-5.512-35.547-16.539c-9.874-12.011-14.811-29.538-14.811-52.579
			c0-19.748,4.443-35.67,13.33-47.766s21.229-18.144,37.027-18.144c10.861,0,19.995,3.375,27.4,10.12v-7.405h34.065V1366.736z
			 M1183.468,1348.47v-48.877c-5.431-7.405-13.083-11.108-22.957-11.108c-13.496,0-20.242,11.027-20.242,33.078
			c0,25.179,7.406,37.769,22.217,37.769C1170.878,1359.331,1177.871,1355.713,1183.468,1348.47z"/>
	</g>
	<g>
	</g>
	<g>
	</g>
	<g>
	</g>
	<g>
	</g>
	<g>
	</g>
	<g>
	</g>
	<g>
	</g>
	<g>
	</g>
	<g>
	</g>
	<g>
	</g>
	<g>
	</g>
	<g>
	</g>
	<g>
	</g>
	<g>
	</g>
	<g>
	</g>
</g>
</svg>
