<?xml version="1.0" encoding="UTF-8" standalone="no"?>
<!-- Created with Inkscape (http://www.inkscape.org/) -->

<svg
   xmlns:dc="http://purl.org/dc/elements/1.1/"
   xmlns:cc="http://creativecommons.org/ns#"
   xmlns:rdf="http://www.w3.org/1999/02/22-rdf-syntax-ns#"
   xmlns:svg="http://www.w3.org/2000/svg"
   xmlns="http://www.w3.org/2000/svg"
   xmlns:sodipodi="http://sodipodi.sourceforge.net/DTD/sodipodi-0.dtd"
   xmlns:inkscape="http://www.inkscape.org/namespaces/inkscape"
   version="1.1"
   id="svg834"
   xml:space="preserve"
   width="793.70135"
   height="1122.52"
   viewBox="0 0 793.70135 1122.52"
   sodipodi:docname="antrag_thumbnail.svg"
   inkscape:version="0.92.2 5c3e80d, 2017-08-06"><metadata
     id="metadata840"><rdf:RDF><cc:Work
         rdf:about=""><dc:format>image/svg+xml</dc:format><dc:type
           rdf:resource="http://purl.org/dc/dcmitype/StillImage" /><dc:title></dc:title></cc:Work></rdf:RDF></metadata><defs
     id="defs838" /><sodipodi:namedview
     pagecolor="#ffffff"
     bordercolor="#666666"
     borderopacity="1"
     objecttolerance="10"
     gridtolerance="10"
     guidetolerance="10"
     inkscape:pageopacity="0"
     inkscape:pageshadow="2"
     inkscape:window-width="2560"
     inkscape:window-height="1406"
     id="namedview836"
     showgrid="false"
     inkscape:zoom="1.0262623"
     inkscape:cx="396.85068"
     inkscape:cy="561.26001"
     inkscape:window-x="0"
     inkscape:window-y="34"
     inkscape:window-maximized="0"
     inkscape:current-layer="g842" /><g
     id="g842"
     inkscape:groupmode="layer"
     inkscape:label="RUBY EV_Mitgliedsantrag_A4_E2"
     transform="matrix(1.3333333,0,0,-1.3333333,0,1122.52)"><text
       transform="matrix(1,0,0,-1,212.5984,669.8976)"
       style="font-variant:normal;font-weight:bold;font-stretch:normal;font-size:12px;font-family:'Source Sans Pro';-inkscape-font-specification:SourceSansPro-Bold;writing-mode:lr-tb;fill:#231f20;fill-opacity:1;fill-rule:nonzero;stroke:none"
       id="text846"><tspan
         x="0 6.8759999 13.692 17.784 24.648001 30.972 37.824001 48.108002 54.192001 60.515999 67.379997 71.975998 76.414803 82.7388 89.146797 91.546799 95.638802 102.4548 107.2308 109.6308 116.5068 119.8188 126.0348 128.4348 137.5788 140.89079 145.3656 151.77361 155.2056 158.51759 164.7336 171.6096 176.9256 182.5296 189.38161 195.7056 203.96159"
         y="0"
         sodipodi:role="line"
         id="tspan844">Aufnahmeantrag für die Mitgliedschaf </tspan></text>
<text
       transform="matrix(1,0,0,-1,212.5984,630.8976)"
       style="font-variant:normal;font-weight:normal;font-stretch:normal;font-size:10px;font-family:'Source Sans Pro';-inkscape-font-specification:SourceSansPro-Regular;writing-mode:lr-tb;fill:#231f20;fill-opacity:1;fill-rule:nonzero;stroke:none"
       id="text850"><tspan
         x="0 6.52 8.9799995 13.94 17.41 25.700001 28.16 31.540001 33.540001 39.07 43.889 48.929001 54.398998 57.778999 61.008999 66.049004 70.948997 75.908997 77.908997 80.369003 84.929001 90.369003"
         y="0"
         sodipodi:role="line"
         id="tspan848">Hiermit beantrage ich:</tspan></text>
<g
       id="g852"
       transform="translate(215.1027,593.3977)"><path
         d="M 0,0 H 293.631"
         style="fill:none;stroke:#231f20;stroke-width:1;stroke-linecap:round;stroke-linejoin:round;stroke-miterlimit:4;stroke-dasharray:0, 2.004;stroke-dashoffset:0;stroke-opacity:1"
         id="path854"
         inkscape:connector-curvature="0" /></g><g
       id="g856"
       transform="translate(213.0984,593.3977)"><path
         d="M 0,0 V 0 M 296.638,0 V 0"
         style="fill:none;stroke:#231f20;stroke-width:1;stroke-linecap:round;stroke-linejoin:round;stroke-miterlimit:4;stroke-dasharray:none;stroke-opacity:1"
         id="path858"
         inkscape:connector-curvature="0" /></g><text
       transform="matrix(1,0,0,-1,212.5984,578.8976)"
       style="font-variant:normal;font-weight:normal;font-stretch:normal;font-size:10px;font-family:'Source Sans Pro';-inkscape-font-specification:SourceSansPro-Regular;writing-mode:lr-tb;fill:#231f20;fill-opacity:1;fill-rule:nonzero;stroke:none"
       id="text862"><tspan
         x="0 6.4699998 11.51 19.799999 24.76 27.25 29.25 34.25 39.669998 43.139999 48.610001 53.650002 61.939999 66.900002 69.389999 71.389999 77.559998 82.519997 88.050003 93.489998 96.959999 100.238 104.428 109.978 114.878 118.258 123.698 131.98801"
         y="0"
         sodipodi:role="line"
         id="tspan860">Name, Vorname, Geburtsdatum </tspan></text>
<g
       id="g864"
       transform="translate(215.1027,541.3977)"><path
         d="M 0,0 H 293.631"
         style="fill:none;stroke:#231f20;stroke-width:1;stroke-linecap:round;stroke-linejoin:round;stroke-miterlimit:4;stroke-dasharray:0, 2.004;stroke-dashoffset:0;stroke-opacity:1"
         id="path866"
         inkscape:connector-curvature="0" /></g><g
       id="g868"
       transform="translate(213.0984,541.3977)"><path
         d="M 0,0 V 0 M 296.638,0 V 0"
         style="fill:none;stroke:#231f20;stroke-width:1;stroke-linecap:round;stroke-linejoin:round;stroke-miterlimit:4;stroke-dasharray:none;stroke-opacity:1"
         id="path870"
         inkscape:connector-curvature="0" /></g><text
       transform="matrix(1,0,0,-1,212.5984,526.8976)"
       style="font-variant:normal;font-weight:normal;font-stretch:normal;font-size:10px;font-family:'Source Sans Pro';-inkscape-font-specification:SourceSansPro-Regular;writing-mode:lr-tb;fill:#231f20;fill-opacity:1;fill-rule:nonzero;stroke:none"
       id="text874"><tspan
         x="0 5.6599998 10.52 15.91 18.4 20.4 28.26 33.68 39.119999 44.59 50.009998 53.48 56.929001 59.418999 61.418999 66.518997 69.899002 73.128998 78.168999 83.929001 88.889 91.378998 93.378998 99.899002 104.939 110.379 114.569 120.039 125.479 133.769 142.05901 147.019"
         y="0"
         sodipodi:role="line"
         id="tspan872">PLZ, Wohnort, Straße, Hausnummer</tspan></text>
<g
       id="g876"
       transform="translate(215.1027,489.3977)"><path
         d="M 0,0 H 293.631"
         style="fill:none;stroke:#231f20;stroke-width:1;stroke-linecap:round;stroke-linejoin:round;stroke-miterlimit:4;stroke-dasharray:0, 2.004;stroke-dashoffset:0;stroke-opacity:1"
         id="path878"
         inkscape:connector-curvature="0" /></g><g
       id="g880"
       transform="translate(213.0984,489.3977)"><path
         d="M 0,0 V 0 M 296.638,0 V 0"
         style="fill:none;stroke:#231f20;stroke-width:1;stroke-linecap:round;stroke-linejoin:round;stroke-miterlimit:4;stroke-dasharray:none;stroke-opacity:1"
         id="path882"
         inkscape:connector-curvature="0" /></g><text
       transform="matrix(1,0,0,-1,212.5984,474.8976)"
       style="font-variant:normal;font-weight:normal;font-stretch:normal;font-size:10px;font-family:'Source Sans Pro';-inkscape-font-specification:SourceSansPro-Regular;writing-mode:lr-tb;fill:#231f20;fill-opacity:1;fill-rule:nonzero;stroke:none"
       id="text886"><tspan
         x="0 5.27 13.56 18.6 21.059999"
         y="0"
         sodipodi:role="line"
         id="tspan884">Email</tspan></text>
<g
       id="g888"
       transform="translate(215.1027,437.3977)"><path
         d="M 0,0 H 293.631"
         style="fill:none;stroke:#231f20;stroke-width:1;stroke-linecap:round;stroke-linejoin:round;stroke-miterlimit:4;stroke-dasharray:0, 2.004;stroke-dashoffset:0;stroke-opacity:1"
         id="path890"
         inkscape:connector-curvature="0" /></g><g
       id="g892"
       transform="translate(213.0984,437.3977)"><path
         d="M 0,0 V 0 M 296.638,0 V 0"
         style="fill:none;stroke:#231f20;stroke-width:1;stroke-linecap:round;stroke-linejoin:round;stroke-miterlimit:4;stroke-dasharray:none;stroke-opacity:1"
         id="path894"
         inkscape:connector-curvature="0" /></g><text
       transform="matrix(1,0,0,-1,212.5984,422.8976)"
       style="font-variant:normal;font-weight:normal;font-stretch:normal;font-size:10px;font-family:'Source Sans Pro';-inkscape-font-specification:SourceSansPro-Regular;writing-mode:lr-tb;fill:#231f20;fill-opacity:1;fill-rule:nonzero;stroke:none"
       id="text898"><tspan
         x="0 5.04 10.57 12.57 18.120001 23.08 31.370001"
         y="0"
         sodipodi:role="line"
         id="tspan896">ab dem </tspan></text>
<path
       d="m 212.848,383.148 h 8.254 v 8.254 h -8.254 z"
       style="fill:none;stroke:#231f20;stroke-width:0.5;stroke-linecap:butt;stroke-linejoin:miter;stroke-miterlimit:4;stroke-dasharray:none;stroke-opacity:1"
       id="path900"
       inkscape:connector-curvature="0" /><text
       transform="matrix(1,0,0,-1,223.3524,383.8976)"
       style="font-variant:normal;font-weight:normal;font-stretch:normal;font-size:10px;font-family:'Source Sans Pro';-inkscape-font-specification:SourceSansPro-Regular;writing-mode:lr-tb;fill:#231f20;fill-opacity:1;fill-rule:nonzero;stroke:none"
       id="text904"><tspan
         x="0 6.2540002 11.804 14.264 19.224001 21.224001 24.594 29.452999 34.493 39.932999 42.483002 47.522999 50.893002 55.853001 57.853001 65.123001 67.583 70.862999 75.903 78.453003 80.913002 85.873001 91.422997 95.612999 100.173 105.613 110.653 116.593 118.593 121.053 129.343 131.343 136.342 141.302 144.67101 149.631 152.091 157.561 159.561 165.25101 170.69099 176.181 180.851 182.851 188.731 193.69099 197.161 199.711 202.17101 207.64101 209.64101 214.601 217.091 218.34 222.84 225.33"
         y="0"
         sodipodi:role="line"
         id="tspan902">	die	reguläre	Mitgliedschaf	im	Verein	Ruby	Berlin	e.	V.	</tspan></text>
<text
       transform="matrix(1,0,0,-1,229.6124,370.8976)"
       style="font-variant:normal;font-weight:normal;font-stretch:normal;font-size:10px;font-family:'Source Sans Pro';-inkscape-font-specification:SourceSansPro-Regular;writing-mode:lr-tb;fill:#231f20;fill-opacity:1;fill-rule:nonzero;stroke:none"
       id="text908"><tspan
         x="0 6.1500001 11.11 14.58 16.58 23.85 26.309999 29.589001 34.629002 37.179001 39.639 44.598999 50.148998 54.339001 59.868999 64.829002 67.289001 70.668999 73.899002 78.939003 83.978996 85.978996 91.509003 96.367996 99.748001 102.978 108.018 113.058 116.438 118.438 123.408 128.37801 130.37801 135.64799 141.088 144.45799 149.87801 151.87801 157.42799 160.798 166.218 168.218 174.008 179.048 181.59801 186.558 192.028 197.578 202.53799 206.008 208.478 213.51801 218.95799"
         y="0"
         sodipodi:role="line"
         id="tspan906">Der Mitgliedsbeitrag beträgt 10 Euro pro Kalenderjahr</tspan></text>
<path
       d="m 212.848,331.148 h 8.254 v 8.254 h -8.254 z"
       style="fill:none;stroke:#231f20;stroke-width:0.5;stroke-linecap:butt;stroke-linejoin:miter;stroke-miterlimit:4;stroke-dasharray:none;stroke-opacity:1"
       id="path910"
       inkscape:connector-curvature="0" /><text
       transform="matrix(1,0,0,-1,223.3524,331.8976)"
       style="font-variant:normal;font-weight:normal;font-stretch:normal;font-size:10px;font-family:'Source Sans Pro';-inkscape-font-specification:SourceSansPro-Regular;writing-mode:lr-tb;fill:#231f20;fill-opacity:1;fill-rule:nonzero;stroke:none"
       id="text916"><tspan
         x="0 6.2540002 11.804 14.264 19.224001 21.224001 26.023001 31.443001 34.813 40.362999 45.323002 48.792999 57.083 59.542999 62.823002 67.862999 70.413002 72.873001 77.833 83.383003 87.572998 92.133003 97.572998 102.613 108.553 110.553 113.013 121.303 123.303 128.302 133.26199 136.632 141.592 144.052 149.522 151.522 157.21201 162.65199 168.14101 172.811 174.811 180.69099 185.651 189.121 191.67101 194.131 199.601 201.601 206.561 209.05099 210.3 214.8"
         y="0"
         sodipodi:role="line"
         id="tspan912">	die	Fördermitgliedschaf	im	Verein	Ruby	Berlin	e.	V.</tspan><tspan
         x="-10.75 6.2579999 8.8879995 13.448 18.888 20.888 29.177999 34.598 39.158001 44.598 47.837002 52.797001 54.797001 60.347 65.306999 70.777 72.777 78.467003 83.906998 89.397003 94.067001 96.067001 101.947 106.907 110.377 112.927 115.387 120.857 122.857 127.817 130.30701 131.56 136.06 138.55 140.55 143.00999 151.3 153.3 158.10001 163.14 168.58 172.05 174.05 182.34 184.8 188.17999"
         y="13"
         sodipodi:role="line"
         id="tspan914">	Ich	möchte	den	Ruby	Berlin	e.	V.	im	Jahr	mit	</tspan></text>
<g
       id="g918"
       transform="translate(416.0443,319.3977)"><path
         d="M 0,0 H 25.261"
         style="fill:none;stroke:#231f20;stroke-width:1;stroke-linecap:round;stroke-linejoin:round;stroke-miterlimit:4;stroke-dasharray:0, 2.021;stroke-dashoffset:0;stroke-opacity:1"
         id="path920"
         inkscape:connector-curvature="0" /></g><g
       id="g922"
       transform="translate(414.0234,319.3977)"><path
         d="M 0,0 V 0 M 28.293,0 V 0"
         style="fill:none;stroke:#231f20;stroke-width:1;stroke-linecap:round;stroke-linejoin:round;stroke-miterlimit:4;stroke-dasharray:none;stroke-opacity:1"
         id="path924"
         inkscape:connector-curvature="0" /></g><text
       transform="matrix(1,0,0,-1,442.8161,318.8976)"
       style="font-variant:normal;font-weight:normal;font-stretch:normal;font-size:10px;font-family:'Source Sans Pro';-inkscape-font-specification:SourceSansPro-Regular;writing-mode:lr-tb;fill:#231f20;fill-opacity:1;fill-rule:nonzero;stroke:none"
       id="text930"><tspan
         x="0 2 7.27 12.71 16.08 21.5 23.5 26.530001 34.82 37.279999 42.75 48.299999 50.790001 52.790001 57.759998 62.73 67.699997 69.699997 74.669998 77.699997 79.699997 93.782997"
         y="0"
         sodipodi:role="line"
         id="tspan926">	Euro	(mind.	120	€)			</tspan><tspan
         x="-230.22 -213.21201 -207.772 -202.302 -199.062 -194.10201 -190.672 -186.68201 -183.302 -177.862 -174.48199 -170.33299 -165.373 -159.903 -157.41299 -155.41299 -150.14301 -147.683 -142.213 -137.25301 -135.25301 -130.453 -125.033 -121.663 -116.113 -111.153 -107.683 -99.392998 -96.932999 -93.653999 -88.613998 -86.064003 -83.603996 -78.643997 -73.094002 -68.903999 -64.344002 -58.903999 -53.863998 -47.924 -45.924 -40.883999 -38.424 -33.064999 -29.684999 -27.684999 -19.395 -16.934999 -13.465 -11.465 -6.6950002 -1.735 0.72500002 6.1950002 8.1949997 13.294 16.674 19.134001 27.424 35.714001 39.084 44.043999 48.604 54.043999 57.493999 59.984001"
         y="13"
         sodipodi:role="line"
         id="tspan928">	unterstützen.	Eine	Fördermitgliedschaf	gibt	mir	kein	Stimmrecht.	</tspan></text>
<text
       transform="matrix(1,0,0,-1,212.5961,292.8976)"
       style="font-variant:normal;font-weight:normal;font-stretch:normal;font-size:10px;font-family:'Source Sans Pro';-inkscape-font-specification:SourceSansPro-Regular;writing-mode:lr-tb;fill:#231f20;fill-opacity:1;fill-rule:nonzero;stroke:none"
       id="text936"><tspan
         x="0 17.007999 23.158001 28.118 31.587999 33.588001 39.467999 44.327 47.707001 50.937 55.977001 61.016998 63.016998 65.476997 69.467003 72.847 74.847 78.836998 82.077003 87.037003 92.476997 97.436996 100.907 103.457 105.917 110.477 115.917 117.917 122.957 125.507 129.69701 131.69701 137.037 142.58701 147.547 153.017 158.567 163.52699 165.52699 170.567 176.097 180.287 185.145 188.52499 192.77499 198.16499 203.205 206.105"
         y="0"
         sodipodi:role="line"
         id="tspan932">	Der	Betrag	ist	steuerlich	als	Spende	absetzbar.</tspan><tspan
         x="0 2.6300001 7.1900001 12.63 14.63 19.59 23.059999 27.829 32.789001 38.258999 43.729 48.688999 50.688999 56.238998 58.699001 63.659 65.658997 70.999001 75.899002 79.278999 83.429001 88.869003 94.338997 99.378998 101.379 106.819 112.289 117.839 119.839 126.479 129.84801 135.39799 140.868 146.308 151.778 156.67799 161.638 167.108 169.108 174.658 179.618 183.808 185.808 190.80701 195.767 199.13699 204.097 206.55701 212.02699 216.217 218.217 223.257 228.72701"
         y="41.349998"
         sodipodi:role="line"
         id="tspan934">Ich	erkenne	die	Satzung	und	Ordnungen	des	Vereins	an.</tspan></text>
<text
       transform="matrix(1,0,0,-1,212.5961,225.5476)"
       style="font-variant:normal;font-weight:normal;font-stretch:normal;font-size:10px;font-family:'Source Sans Pro';-inkscape-font-specification:SourceSansPro-Regular;writing-mode:lr-tb;fill:#231f20;fill-opacity:1;fill-rule:nonzero;stroke:none"
       id="text940"><tspan
         x="0 7.27 9.7299995 13.11 15.11 20.66 25.620001 29.09 31.09 36.43 41.98 46.939999 49.400002 53.959999 59.400002 64.360001 67.830002 73.269997 78.739998 83.779999 86.269997 88.269997 94.720001 100.25 105.21 108.68 116.97 119.43 122.608 125.988 128.53799 133.978 139.448 144.48801 146.48801 151.92799 157.39799 162.948 164.948 169.94701 174.907 178.13699 183.177 186.647 192.177 197.13699 199.597 202.97701 208.41701 213.88699 218.927"
         y="0"
         sodipodi:role="line"
         id="tspan938">Mit der Speicherung, Übermittlung und Verarbeitung </tspan></text>
<text
       transform="matrix(1,0,0,-1,212.5961,212.5476)"
       style="font-variant:normal;font-weight:normal;font-stretch:normal;font-size:10px;font-family:'Source Sans Pro';-inkscape-font-specification:SourceSansPro-Regular;writing-mode:lr-tb;fill:#231f20;fill-opacity:1;fill-rule:nonzero;stroke:none"
       id="text944"><tspan
         x="0 8.29 13.25 15.71 21.18 26.139999 29.610001 31.610001 37.16 42.119999 45.549 49.738998 55.159 60.629002 65.588997 71.058998 76.588997 81.549004 85.697998 91.117996 96.017998 100.978 106.448 111.408 116.878 118.878 125.028 129.92799 133.168 138.12801 143.59801 145.59801 148.51801 153.95799 157.42799 159.42799 164.42799 169.388 172.757 177.717 180.177 185.647 189.83701 194.08701 201.22701 206.187 210.74699 215.51601 220.476"
         y="0"
         sodipodi:role="line"
         id="tspan942">meiner	personenbezogenen	Daten	für	Vereinszwecke	</tspan></text>
<text
       transform="matrix(1,0,0,-1,212.5961,199.5476)"
       style="font-variant:normal;font-weight:normal;font-stretch:normal;font-size:10px;font-family:'Source Sans Pro';-inkscape-font-specification:SourceSansPro-Regular;writing-mode:lr-tb;fill:#231f20;fill-opacity:1;fill-rule:nonzero;stroke:none"
       id="text948"><tspan
         x="0 4.9000001 9.8599997 18.15 23.190001 28.950001 30.950001 36.830002 42.27 47.740002 53.290001 58.25 62.439999 67.989998 72.889 76.128998 81.088997 86.558998 90.749001 95.308998 100.749 106.189 109.569 113.759 118.659 123.619 127.809 132.668 136.048 140.298 142.298 147.828 150.28799 155.758 157.758 160.218 164.778 170.218 172.218 177.17799 179.638 185.108 189.737 194.69701 198.127 202.117 205.287 210.327 215.797 221.347 226.30701 231.77699"
         y="0"
         sodipodi:role="line"
         id="tspan946">gemäß	Bundesdatenschutzgesetz	bin	ich	einverstanden.</tspan></text>
<g
       id="g950"
       transform="translate(215.1027,149.0513)"><path
         d="M 0,0 H 293.631"
         style="fill:none;stroke:#231f20;stroke-width:1;stroke-linecap:round;stroke-linejoin:round;stroke-miterlimit:4;stroke-dasharray:0, 2.004;stroke-dashoffset:0;stroke-opacity:1"
         id="path952"
         inkscape:connector-curvature="0" /></g><g
       id="g954"
       transform="translate(213.0984,149.0513)"><path
         d="M 0,0 V 0 M 296.638,0 V 0"
         style="fill:none;stroke:#231f20;stroke-width:1;stroke-linecap:round;stroke-linejoin:round;stroke-miterlimit:4;stroke-dasharray:none;stroke-opacity:1"
         id="path956"
         inkscape:connector-curvature="0" /></g><text
       transform="matrix(1,0,0,-1,212.5984,134.5512)"
       style="font-variant:normal;font-weight:normal;font-stretch:normal;font-size:10px;font-family:'Source Sans Pro';-inkscape-font-specification:SourceSansPro-Regular;writing-mode:lr-tb;fill:#231f20;fill-opacity:1;fill-rule:nonzero;stroke:none"
       id="text960"><tspan
         x="0 6.4499998 11.92 15.16 20.120001 23.549999 27.74 32.299999 37.740002 41.209999 43.669998"
         y="0"
         sodipodi:role="line"
         id="tspan958">Unterschrif</tspan></text>
<text
       transform="matrix(1,0,0,-1,213.4488,85.8897)"
       style="font-variant:normal;font-weight:normal;font-stretch:normal;font-size:8px;font-family:'Source Sans Pro';-inkscape-font-specification:SourceSansPro-Regular;writing-mode:lr-tb;fill:#231f20;fill-opacity:1;fill-rule:nonzero;stroke:none"
       id="text964"><tspan
         x="0 5.2160001 7.184 11.56 17.271999 21.24 23.208 26.559999 28.552 30.152 34.424 38.759998 43.071201 47.103199 49.1432 53.583199 55.183201 59.535198 63.959202 67.9272 70.703201 72.3032 76.743202 78.711197 82.679199 84.279198 88.582397 92.934402 95.270401 99.6464 103.6784 108.0304 114.6624 118.6304 120.2304 124.1984 128.5744 131.1976 134.54961 138.1976 142.54961 144.51759 148.4856 152.9256 156.8936 161.26961 162.8696 168.6136 172.96561 175.6608 180.1008 184.0688 185.66879 191.3808 195.3488 198.0448 202.4848 206.4528 210.8288 212.4288 216.8688 220.83681 223.61279"
         y="0"
         sodipodi:role="line"
         id="tspan962">Hinweis: Sobald über die Aufnahme entschieden wurde werden per </tspan></text>
<text
       transform="matrix(1,0,0,-1,213.4488,73.8897)"
       style="font-variant:normal;font-weight:normal;font-stretch:normal;font-size:8px;font-family:'Source Sans Pro';-inkscape-font-specification:SourceSansPro-Regular;writing-mode:lr-tb;fill:#231f20;fill-opacity:1;fill-rule:nonzero;stroke:none"
       id="text970"><tspan
         x="0 4.2160001 10.848 14.88 16.848 18.888 20.488001 24.927999 26.896 30.864 32.464001 36.647202 40.679199 45.0312 47.071201 51.423199 55.799198 59.8312 63.183201 65.151199 69.527199 71.782402 76.118401 78.894402 85.526398 89.446404 92.150398 94.118401 98.454399 102.8304 106.7984 111.1744 112.7744 115.1104 119.4624 122.2384 123.8384 128.2784 130.2464 134.2144 135.81441 141.6304 143.5984 146.2216 150.2536 152.29359 154.2616 158.2296 162.6696 166.02161 170.4456 174.4136 176.38161 179.0856 181.66879 185.70081 189.6208 193.58881 195.1888 198.5088 202.86079 206.78081 210.74879 214.1008 218.1328 222.5088 226.94881 229.70799 231.7"
         y="0"
         sodipodi:role="line"
         id="tspan966">Email	die	Zahlungsinformationen	für	die	Mitgliedsbeiträge	zugesandt.	</tspan><tspan
         x="0 4.2160001 6.96 10.152 12.856 14.456 18.832001 22.864 26.511999 30.864 32.464001 36.68 38.647999 43.023998 46.9272 50.959202 55.335201 59.367199 60.967201 65.407204 69.375198 72.151199 73.751198 77.935204 81.967201 86.319199 88.3592 92.711197 97.087196 101.1192 102.7192 104.6872 107.8784 110.5824 112.1824 116.6224 118.5904 122.5584 124.1584 129.9744 131.9424 134.56641 138.5984 140.6384 142.6064 146.5744 151.0144 154.36639 158.0144 162.36639 166.39841 171.15041 172.7504 178.4944 180.4624 183.2384 187.19839 190.5504 194.5824 201.2144"
         y="12"
         sodipodi:role="line"
         id="tspan968">Erst	nach	Eingang	der	Zahlung	ist	die	Mitgliedschaf	wirksam.</tspan></text>
<text
       transform="matrix(1,0,0,-1,62.3622,771.1181)"
       style="font-variant:normal;font-weight:900;font-stretch:normal;font-size:32px;font-family:'Source Sans Pro Black';-inkscape-font-specification:SourceSansPro-Black;writing-mode:lr-tb;fill:#231f20;fill-opacity:1;fill-rule:nonzero;stroke:none"
       id="text974"><tspan
         x="0 20.16 38.655998 56.896"
         y="0"
         sodipodi:role="line"
         id="tspan972">Ruby</tspan></text>
<text
       transform="matrix(1,0,0,-1,62.366,749.1101)"
       style="font-variant:normal;font-weight:900;font-stretch:normal;font-size:21px;font-family:'Source Sans Pro Black';-inkscape-font-specification:SourceSansPro-Black;writing-mode:lr-tb;fill:#231f20;fill-opacity:1;fill-rule:nonzero;stroke:none"
       id="text978"><tspan
         x="0 12.852 23.898001 32.675999 38.933998 44.981998 57.203999 61.403999 72.449997 77.4879 87.819901"
         y="0"
         sodipodi:role="line"
         id="tspan976">Berlin e.V.</tspan></text>
<text
       transform="matrix(1,0,0,-1,63.7795,721.8661)"
       style="font-variant:normal;font-weight:bold;font-stretch:normal;font-size:12px;font-family:'Source Sans Pro';-inkscape-font-specification:SourceSansPro-Bold;writing-mode:lr-tb;fill:#d22027;fill-opacity:1;fill-rule:nonzero;stroke:none"
       id="text982"><tspan
         x="0 4.776 11.592 18.372 24.624001 31.5 37.716 42.492001 45.924 49.236 56.099998 59.5788 66.2388 70.894798"
         y="0"
         sodipodi:role="line"
         id="tspan980">rubyberlin.org</tspan></text>
</g></svg>